<?xml version="1.0" standalone="no"?>
<!DOCTYPE svg PUBLIC "-//W3C//DTD SVG 1.1//EN" "http://www.w3.org/Graphics/SVG/1.1/DTD/svg11.dtd" >
<svg>
<metadata>
Created by FontForge 20090914 at Mon May 30 12:12:56 2016
 By www-data
&#194;&#169; 2002 Microsoft Corporation. All rights reserved.
</metadata>
<defs>
<font id="Kartika" horiz-adv-x="718" >
  <font-face 
    font-family="Kartika"
    font-weight="400"
    font-stretch="normal"
    units-per-em="2048"
    panose-1="2 2 5 3 3 4 4 6 2 3"
    ascent="1408"
    descent="-640"
    x-height="669"
    cap-height="923"
    bbox="-1333 -644.999 3224 1434"
    underline-thickness="72"
    underline-position="-320"
    unicode-range="U+0020-U+25CC"
  />
<missing-glyph horiz-adv-x="717" 
d="M90 0v1434h537v-1434h-537zM179 90h359v1254h-359v-1254z" />
    <glyph glyph-name=".notdef" horiz-adv-x="717" 
d="M90 0v1434h537v-1434h-537zM179 90h359v1254h-359v-1254z" />
    <glyph glyph-name="space" unicode=" " horiz-adv-x="924" 
 />
    <glyph glyph-name="exclam" unicode="!" horiz-adv-x="358" 
d="M244 0h-129v129h129v-129zM244 923v-693h-105v693h105z" />
    <glyph glyph-name="quotedbl" unicode="&#x22;" horiz-adv-x="458" 
d="M404 773l-29 -177h-70l-31 327h130v-150zM182 773l-28 -177h-70l-31 327h129v-150z" />
    <glyph glyph-name="numbersign" unicode="#" 
d="M703 575h-125l-46 -229h120v-93h-140l-51 -253h-96l52 253h-201l-52 -253h-95l51 253h-105v93h124l47 229h-120v94h139l52 254h95l-52 -254h202l52 254h95l-52 -254h106v-94zM482 575h-201l-46 -229h201z" />
    <glyph glyph-name="dollar" unicode="$" 
d="M391 526c52.667 -10.667 96.168 -23.498 130.501 -38.498s61.666 -33 81.999 -54s34.666 -45.333 42.999 -73s12.5 -59.167 12.5 -94.5c0 -37.333 -6.16699 -72.333 -18.5 -105s-30 -61.667 -53 -87s-51 -45.833 -84 -61.5s-70.5 -24.834 -112.5 -27.501v-97h-67v96
c-171.333 19.333 -263 111.666 -275 276.999h123c8.66699 -104.667 59.334 -165 152.001 -181v352c-170 34 -255 117 -255 249c0 75.333 22.833 135.333 68.5 180s107.834 70.667 186.501 78v97h67v-97c149.333 -10.667 231.666 -86.667 246.999 -228h-124
c-6 78 -47 122.333 -123 133v-318zM324.001 540.002v305c-88.667 -16 -133 -67.667 -133 -155c0 -23.333 3 -43.166 9 -59.499s14.833 -30.333 26.5 -42s25.667 -21.334 42 -29.001s34.833 -14.167 55.5 -19.5zM391.001 80.002c97.333 12 146 71.334 146 178.001
c0 21.333 -2 40.166 -6 56.499s-11.5 30.833 -22.5 43.5s-25.833 23.667 -44.5 33s-43 18 -73 26v-337z" />
    <glyph glyph-name="percent" unicode="%" horiz-adv-x="1147" 
d="M501 694c0 -38.667 -5.16699 -73.1641 -15.5 -103.497s-24.833 -56 -43.5 -77s-41 -37 -67 -48s-54.333 -16.5 -85 -16.5c-31.333 0 -59.666 5.66699 -84.999 17s-47.333 27.666 -66 48.999s-33 47.166 -43 77.499s-15 64.166 -15 101.499s5 71 15 101
s24.333 55.667 43 77s40.667 37.833 66 49.5s53.666 17.5 84.999 17.5c30.667 0 59 -5.66699 85 -17s48.333 -27.5 67 -48.5s33.167 -46.667 43.5 -77s15.5 -64.5 15.5 -102.5zM400 694.003c0 112 -36.667 168 -110 168c-72 0 -108 -56 -108 -168s36 -168 108 -168
c73.333 0 110 56 110 168zM871 923.003l-504 -923h-93l505 923h92zM1066 230.003c0 -37.333 -5.16797 -71.165 -15.501 -101.498s-24.833 -56.166 -43.5 -77.499s-41 -37.833 -67 -49.5s-54.333 -17.5 -85 -17.5c-31.333 0 -59.666 5.66699 -84.999 17
s-47.333 27.666 -66 48.999s-33 47.166 -43 77.499s-15 64.5 -15 102.5c0 36.667 5 70.167 15 100.5s24.167 56.166 42.5 77.499s40.333 37.833 66 49.5s54.167 17.5 85.5 17.5c30.667 0 59 -5.83301 85 -17.5s48.333 -28.167 67 -49.5s33.167 -47 43.5 -77
s15.5 -63.667 15.5 -101zM964.999 230.004c0 112 -36.667 168 -110 168c-72 0 -108 -56 -108 -168s36 -168 108 -168c73.333 0 110 56 110 168z" />
    <glyph glyph-name="ampersand" unicode="&#x26;" horiz-adv-x="860" 
d="M774 435c-2.66699 -50 -10.165 -95.6621 -22.498 -136.995s-29.166 -81 -50.499 -119l94 -117l-92 -78l-80 101c-72.667 -67.333 -164 -101 -274 -101c-42 0 -81 7 -117 21s-67.167 33.333 -93.5 58s-46.833 53.334 -61.5 86.001s-22 67.667 -22 105
c0 28.667 4.33301 55.167 13 79.5s21.834 47.666 39.501 69.999s40 43.666 67 63.999s58.5 40.833 94.5 61.5c-64.667 82.667 -97 150.667 -97 204c0 29.333 5.66699 56.666 17 81.999s27.166 47.166 47.499 65.499s44.5 32.666 72.5 42.999s58.667 15.5 92 15.5
c31.333 0 60 -5.33301 86 -16s48.5 -25 67.5 -43s33.833 -38.833 44.5 -62.5s16 -48.834 16 -75.501c0 -24 -3.5 -46.333 -10.5 -67s-18 -40.334 -33 -59.001s-33.833 -36.5 -56.5 -53.5s-49.334 -34.5 -80.001 -52.5l185 -231c9.33301 22.667 16.666 46.834 21.999 72.501
s8.66602 53.5 9.99902 83.5h122zM500.002 740.005c0 16 -2.99805 30.502 -8.99805 43.502s-13.833 24.167 -23.5 33.5s-20.834 16.5 -33.501 21.5s-25.667 7.5 -39 7.5c-14.667 0 -28.5 -2.5 -41.5 -7.5s-24.333 -11.833 -34 -20.5s-17.334 -19.334 -23.001 -32.001
s-8.5 -26.334 -8.5 -41.001c0 -32.667 18.667 -73.667 56 -123l31 -38c44.667 24.667 76.667 48.667 96 72s29 51.333 29 84zM556.004 170.007l-225.001 282c-26 -15.333 -48.5 -30 -67.5 -44s-34.667 -28.333 -47 -43s-21.666 -30.334 -27.999 -47.001
s-9.5 -35.334 -9.5 -56.001c0 -23.333 4.33301 -45.666 13 -66.999s20.5 -40.166 35.5 -56.499s33 -29.333 54 -39s43.5 -14.5 67.5 -14.5c85.333 0 154.333 28.333 207 85z" />
    <glyph glyph-name="quotesingle" unicode="'" horiz-adv-x="246" 
d="M187 773l-28 -177h-70l-31 177v150h129v-150z" />
    <glyph glyph-name="parenleft" unicode="(" horiz-adv-x="430" 
d="M383 -271h-81c-149.333 195.333 -224 397 -224 605c0 210 74.667 411.667 224 605h81c-125.333 -201.333 -188 -403 -188 -605s62.667 -403.667 188 -605z" />
    <glyph glyph-name="parenright" unicode=")" horiz-adv-x="430" 
d="M128 939c149.333 -193.333 224 -395 224 -605c0 -208 -74.667 -409.667 -224 -605h-81c125.333 201.333 188 403 188 605s-62.667 403.667 -188 605h81z" />
    <glyph glyph-name="asterisk" unicode="*" horiz-adv-x="502" 
d="M459 753l-154 -34l104 -120l-78 -57l-81 138l-81 -138l-78 57l105 120l-155 34l30 91l146 -63l-14 158h95l-14 -158l146 63z" />
    <glyph glyph-name="plus" unicode="+" horiz-adv-x="753" 
d="M683 403h-253v-253h-106v253h-253v105h253v253h106v-253h253v-105z" />
    <glyph glyph-name="comma" unicode="," horiz-adv-x="358" 
d="M244 0c0 -26.667 -2.66797 -51.167 -8.00098 -73.5s-13.333 -41.5 -24 -57.5s-24.167 -28.5 -40.5 -37.5s-35.166 -13.5 -56.499 -13.5v60c42.667 0 64 40.667 64 122h-64v129h129v-129z" />
    <glyph glyph-name="hyphen" unicode="-" horiz-adv-x="430" 
d="M388 277h-347v114h347v-114z" />
    <glyph glyph-name="period" unicode="." horiz-adv-x="358" 
d="M244 0h-129v129h129v-129z" />
    <glyph glyph-name="slash" unicode="/" horiz-adv-x="358" 
d="M358 923l-267 -923h-91l267 923h91z" />
    <glyph glyph-name="zero" unicode="0" 
d="M659 461c0 -318 -100.333 -477 -301 -477c-200 0 -300 159 -300 477c0 318.667 100 478 300 478c200.667 0 301 -159.333 301 -478zM537 461c0 71.333 -3.83301 131.502 -11.5 180.502s-19 88.667 -34 119s-33.667 52.166 -56 65.499s-48.166 20 -77.499 20
c-28.667 0 -54 -6.5 -76 -19.5s-40.5 -34.5 -55.5 -64.5s-26.333 -69.5 -34 -118.5s-11.5 -109.833 -11.5 -182.5s3.83301 -133.5 11.5 -182.5s19 -88.333 34 -118s33.5 -50.834 55.5 -63.501s47.333 -19 76 -19c29.333 0 55.166 6.66699 77.499 20s41 35 56 65
s26.333 69.333 34 118s11.5 108.667 11.5 180z" />
    <glyph glyph-name="one" unicode="1" 
d="M484 0h-119v727c-46.667 -32.667 -120.667 -49 -222 -49v93c144.667 0 228 56 250 168h91v-939z" />
    <glyph glyph-name="two" unicode="2" 
d="M652 0h-611.999c0 56.667 17.333 110.334 52 161.001c17.333 25.333 41.833 53.666 73.5 84.999s70.834 66 117.501 104c48 38 87.667 71.833 119 101.5s55.666 55.834 72.999 78.501c34 44 51 95 51 153c0 50.667 -14.5 90.5 -43.5 119.5s-70.5 43.5 -124.5 43.5
c-48 0 -87.833 -14.833 -119.5 -44.5s-49.5 -72.834 -53.5 -129.501h-123c3.33301 41.333 12.833 78.5 28.5 111.5s36.5 61 62.5 84s56.5 40.667 91.5 53s73.833 18.5 116.5 18.5c46.667 0 88 -6.66699 124 -20s66.167 -31.666 90.5 -54.999s42.666 -50.833 54.999 -82.5
s18.5 -65.5 18.5 -101.5c0 -68.667 -18.333 -128.334 -55 -179.001c-19.333 -26 -47.5 -56.667 -84.5 -92s-82.5 -76 -136.5 -122c-110 -92 -166 -151 -168 -177h447v-110z" />
    <glyph glyph-name="three" unicode="3" 
d="M662 272c0 -42.667 -7.83496 -81.6729 -23.502 -117.006s-37.334 -65.666 -65.001 -90.999s-60 -45 -97 -59s-76.833 -21 -119.5 -21c-43.333 0 -82.833 6.16699 -118.5 18.5s-66.667 30 -93 53s-47.166 50.333 -62.499 82s-24 67.167 -26 106.5h122
c0 -22.667 4 -44.167 12 -64.5s19.5 -38 34.5 -53s33.5 -26.833 55.5 -35.5s47.333 -13 76 -13c27.333 0 52.166 4.66699 74.499 14s41.5 22.333 57.5 39s28.333 36.834 37 60.501s13 49.5 13 77.5c0 58.667 -16.833 103.5 -50.5 134.5s-83.834 46.5 -150.501 46.5h-45v93
h27c115.333 0 173 53 173 159c0 46.667 -12.5 82.334 -37.5 107.001s-60.5 37 -106.5 37c-94.667 0 -147.334 -49 -158.001 -147h-122c4.66699 40 14.834 75 30.501 105s35.834 55 60.501 75s52.834 35 84.501 45s65.5 15 101.5 15c40.667 0 77.5 -5.83301 110.5 -17.5
s61.333 -28.167 85 -49.5s41.834 -46.666 54.501 -75.999s19 -61.666 19 -96.999c0 -40.667 -10.667 -78 -32 -112s-53.333 -60.667 -96 -80c26.667 -6.66699 50.834 -17.167 72.501 -31.5s40 -31.666 55 -51.999s26.667 -43.333 35 -69s12.5 -53.167 12.5 -82.5z" />
    <glyph glyph-name="four" unicode="4" 
d="M658 221h-125v-221h-119v221h-394v104l420 610h93v-610h125v-104zM414 325v423l-284 -423h284z" />
    <glyph glyph-name="five" unicode="5" 
d="M666 314c0 -47.333 -7.49902 -90.998 -22.499 -130.998s-36.333 -74.833 -64 -104.5s-60.834 -52.834 -99.501 -69.501s-81.667 -25 -129 -25c-38.667 0 -75 5.33301 -109 16s-64.167 26.834 -90.5 48.501s-48 48.5 -65 80.5s-27.833 69.667 -32.5 113h123
c7.33301 -56 26.5 -97.333 57.5 -124s69.833 -40 116.5 -40c28.667 0 54.667 5.83301 78 17.5s43.5 27.667 60.5 48s30.167 44.166 39.5 71.499s14 56.666 14 87.999c0 32 -4.66699 60.833 -14 86.5s-22.5 47.667 -39.5 66s-37.5 32.333 -61.5 42s-50.333 14.5 -79 14.5
c-66 0 -122 -25.333 -168 -76h-93l39 487h495v-109h-394l-20 -257c45.333 37.333 102.333 56 171 56c37.333 0 73.333 -7 108 -21s65.167 -33.833 91.5 -59.5s47.5 -57 63.5 -94s24 -78.5 24 -124.5z" />
    <glyph glyph-name="six" unicode="6" 
d="M664 300c0 -42 -6.83203 -82.166 -20.499 -120.499s-33 -72 -58 -101s-55.333 -52 -91 -69s-75.5 -25.5 -119.5 -25.5c-100 0 -177.833 38.333 -233.5 115s-83.5 187.667 -83.5 333c0 338 108.667 507 326 507c34 0 66 -4.66699 96 -14s56.5 -23.5 79.5 -42.5
s42.167 -43 57.5 -72s25.666 -62.833 30.999 -101.5h-122c-12 91.333 -61.333 137 -148 137c-56.667 0 -102.5 -29.667 -137.5 -89s-55.5 -145.666 -61.5 -258.999c60 67.333 129.667 101 209 101c38 0 73.667 -7.5 107 -22.5s62.5 -35.833 87.5 -62.5
s44.833 -58.334 59.5 -95.001s22 -76.334 22 -119.001zM540.001 293.001c0 31.333 -4 60 -12 86s-19.5 48.5 -34.5 67.5s-33.167 33.667 -54.5 44s-45 15.5 -71 15.5c-65.333 0 -129 -33.333 -191 -100c2 -105.333 20 -186.333 54 -243s81 -85 141 -85
c26 0 49.333 5.5 70 16.5s38.167 26.333 52.5 46s25.5 42.5 33.5 68.5s12 54 12 84z" />
    <glyph glyph-name="seven" unicode="7" 
d="M659 840l-335 -840h-133l344 814h-473v109h597v-83z" />
    <glyph glyph-name="eight" unicode="8" 
d="M664 245c0 -38 -7.33203 -73.001 -21.999 -105.001s-35.5 -59.5 -62.5 -82.5s-59.167 -41 -96.5 -54s-79 -19.5 -125 -19.5c-45.333 0 -86.5 6.33301 -123.5 19s-69 30.334 -96 53.001s-47.833 50 -62.5 82s-22 67.667 -22 107c0 100.667 64 180.667 192 240
c-104 60 -156 135.333 -156 226c0 32.667 6.5 63 19.5 91s31.167 52.167 54.5 72.5s51.5 36.166 84.5 47.499s69.5 17 109.5 17s76.667 -5.66699 110 -17s61.666 -27.166 84.999 -47.499s41.5 -44.5 54.5 -72.5s19.5 -58.333 19.5 -91c0 -90.667 -52 -166 -156 -226
c128.667 -58.667 193 -138.667 193 -240zM358.001 533.999c98 42.667 147 101.667 147 177c0 42.667 -13 75.834 -39 99.501s-62 35.5 -108 35.5s-81.667 -11.833 -107 -35.5s-38 -56.834 -38 -99.501c0 -75.333 48.333 -134.333 145 -177zM540.001 244.999
c0 40 -14.332 74.332 -42.999 102.999s-75 57 -139 85c-33.333 -15.333 -61.333 -30 -84 -44s-41.334 -28.5 -56.001 -43.5s-25.167 -30.667 -31.5 -47s-9.5 -34.166 -9.5 -53.499c0 -52 16.667 -92.833 50 -122.5s77 -44.5 131 -44.5c26.667 0 51.167 3.66699 73.5 11
s41.5 18.166 57.5 32.499s28.5 31.833 37.5 52.5s13.5 44.334 13.5 71.001z" />
    <glyph glyph-name="nine" unicode="9" 
d="M659 491c0 -338 -108.668 -507 -326.001 -507c-34 0 -66 4.83301 -96 14.5s-56.5 24.167 -79.5 43.5s-42.167 43.333 -57.5 72s-25.333 62 -30 100h122c10 -90.667 59.333 -136 148 -136c56.667 0 102.334 29.5 137.001 88.5s55.334 145.5 62.001 259.5
c-61.333 -67.333 -131.333 -101 -210 -101c-38.667 0 -74.834 7.5 -108.501 22.5s-62.834 35.833 -87.501 62.5s-44 58.167 -58 94.5s-21 75.833 -21 118.5c0 42 6.66699 82.167 20 120.5s32.5 72 57.5 101s55.333 52 91 69s75.834 25.5 120.501 25.5
c100.667 0 178.5 -38 233.5 -114s82.5 -187.333 82.5 -334zM539.999 517c-2 108 -20.166 189.834 -54.499 245.501s-80.833 83.5 -139.5 83.5c-26 0 -49.333 -5.5 -70 -16.5s-38.334 -26.333 -53.001 -46s-26 -42.5 -34 -68.5s-12 -54 -12 -84
c0 -30.667 3.83301 -58.834 11.5 -84.501s19 -48 34 -67s33 -33.833 54 -44.5s45.167 -16 72.5 -16c66 0 129.667 32.667 191 98z" />
    <glyph glyph-name="colon" unicode=":" horiz-adv-x="358" 
d="M244 0h-129v129h129v-129zM244 539h-129v130h129v-130z" />
    <glyph glyph-name="semicolon" unicode=";" horiz-adv-x="358" 
d="M244 0c0 -26.667 -2.66797 -51.167 -8.00098 -73.5s-13.333 -41.5 -24 -57.5s-24.167 -28.5 -40.5 -37.5s-35.166 -13.5 -56.499 -13.5v60c42.667 0 64 40.667 64 122h-64v129h129v-129zM243.999 539h-129v130h129v-130z" />
    <glyph glyph-name="less" unicode="&#x3c;" horiz-adv-x="753" 
d="M683 143l-612 260v105l612 260v-113l-486 -199l486 -200v-113z" />
    <glyph glyph-name="equal" unicode="=" horiz-adv-x="753" 
d="M683 543h-612v106h612v-106zM683 262h-612v106h612v-106z" />
    <glyph glyph-name="greater" unicode="&#x3e;" horiz-adv-x="753" 
d="M683 403l-612 -260v113l485 200l-485 199v113l612 -260v-105z" />
    <glyph glyph-name="question" unicode="?" 
d="M655 688c0 -21.333 -2 -41.1689 -6 -59.502s-11.167 -36.666 -21.5 -54.999s-24.166 -37 -41.499 -56s-39 -39.5 -65 -61.5s-46.5 -40.5 -61.5 -55.5s-26.333 -30.167 -34 -45.5s-12.334 -32.666 -14.001 -51.999s-2.5 -44.666 -2.5 -75.999h-111
c0 38.667 1.66699 70.667 5 96s9.66602 48 18.999 68s22.166 39.167 38.499 57.5s37.166 39.833 62.499 64.5l47.5 44.5c13.667 12.333 25.167 24.166 34.5 35.499s16.333 23.666 21 36.999s7 30 7 50c0 24 -4.33301 46.167 -13 66.5s-20.667 37.833 -36 52.5
s-33.666 26.167 -54.999 34.5s-44.333 12.5 -69 12.5c-100.667 0 -160 -58 -178 -174h-122c2.66699 40 11.834 76.333 27.501 109s36.5 60.834 62.5 84.501s56.667 41.834 92 54.501s74 19 116 19c44.667 0 85.334 -6.33301 122.001 -19s68 -30.334 94 -53.001
s46 -49.167 60 -79.5s21 -63.5 21 -99.5zM422 -0.00292969h-129v129h129v-129z" />
    <glyph glyph-name="at" unicode="@" horiz-adv-x="1310" 
d="M1235 449c0 -70.667 -9.5 -133.83 -28.5 -189.497s-45.5 -102.834 -79.5 -141.501s-74.167 -68.167 -120.5 -88.5s-96.833 -30.5 -151.5 -30.5c-36 0 -64.667 9.83301 -86 29.5s-33 44.834 -35 75.501c-50 -70 -114.667 -105 -194 -105c-33.333 0 -63.833 6 -91.5 18
s-51.667 29.167 -72 51.5s-36.166 49.5 -47.499 81.5s-17 67.667 -17 107c0 36.667 4.33301 72.667 13 108s20.834 68.833 36.501 100.5s33.834 60.667 54.501 87s43.167 49.166 67.5 68.499s49.666 34.5 75.999 45.5s52.833 16.5 79.5 16.5c90.667 0 156.667 -27 198 -81
l15 62h112l-97 -422c-10.667 -44.667 -16 -80 -16 -106c0 -30 11.333 -45 34 -45c36 0 69.5 8.33301 100.5 25s58.167 40.667 81.5 72s41.666 69.333 54.999 114s20 94.667 20 150c0 57.333 -10.833 110.5 -32.5 159.5s-52.167 91.333 -91.5 127s-86.5 63.667 -141.5 84
s-115.833 30.5 -182.5 30.5c-78 0 -149.333 -14.833 -214 -44.5s-120.334 -69.834 -167.001 -120.501s-83 -109.834 -109 -177.501s-39 -139.5 -39 -215.5s12.333 -143.667 37 -203s60.334 -109.333 107.001 -150s103.5 -71.667 170.5 -93s143.167 -32 228.5 -32
c105.333 0 193.666 16.333 264.999 49l46 -77c-91.333 -40 -194.666 -60 -309.999 -60c-99.333 0 -188.333 13 -267 39s-145.334 63.5 -200.001 112.5s-96.667 108.5 -126 178.5s-44 148.667 -44 236c0 184.667 59 338.667 177 462c118.667 122.667 267.667 184 447 184
c82 0 156.167 -12.5 222.5 -37.5s123 -59.5 170 -103.5s83.167 -96 108.5 -156s38 -125 38 -195zM816 510.004c-34.667 52.667 -90.668 78.999 -168.001 78.999c-29.333 0 -57.166 -9.66699 -83.499 -29s-49.666 -44.666 -69.999 -75.999s-36.5 -66.5 -48.5 -105.5
s-18 -78.167 -18 -117.5c0 -113.333 45 -170 135 -170c22 0 43.667 4.83301 65 14.5s41.166 23.5 59.499 41.5s34.333 39.5 48 64.5s24.167 52.833 31.5 83.5z" />
    <glyph glyph-name="A" unicode="A" horiz-adv-x="860" 
d="M581 378l-162 428l-156 -428h318zM862 0h-138l-107 281h-387l-102 -281h-129l355 923h131z" />
    <glyph glyph-name="B" unicode="B" horiz-adv-x="860" 
d="M794 268c0 -88 -29.1689 -154.664 -87.502 -199.997s-144.166 -68 -257.499 -68h-345v923h328c50 0 94.5 -5.5 133.5 -16.5s72 -26.667 99 -47s47.667 -45 62 -74s21.5 -61.5 21.5 -97.5c0 -89.333 -44.333 -155.333 -133 -198c30 -7.33301 56.333 -18.333 79 -33
s41.334 -31.834 56.001 -51.501s25.667 -41.334 33 -65.001s11 -47.834 11 -72.501zM224.998 537.003l206 0.000976562c68.667 0 118.667 10.667 150 32s47 57.333 47 108c0 22 -3.5 41.667 -10.5 59s-18.5 31.666 -34.5 42.999s-37.333 20 -64 26s-60 9 -100 9h-194v-277z
M224.998 110.004h223c146 0 219 52.667 219 158c0 27.333 -4 51 -12 71s-21.167 36.5 -39.5 49.5s-42.5 22.667 -72.5 29s-67 9.5 -111 9.5h-207v-317z" />
    <glyph glyph-name="C" unicode="C" horiz-adv-x="932" 
d="M866 644l-126 -0.00195312c-3.33301 28.667 -11.5 54.667 -24.5 78s-30.167 43.333 -51.5 60s-46.666 29.5 -75.999 38.5s-61.666 13.5 -96.999 13.5c-47.333 0 -89.833 -8.33301 -127.5 -25s-69.5 -41 -95.5 -73s-46 -71 -60 -117s-21 -98.333 -21 -157
c0 -60 7 -113.167 21 -159.5s34.167 -85.333 60.5 -117s58.166 -55.667 95.499 -72s79 -24.5 125 -24.5c75.333 0 134.5 18 177.5 54s67.5 86 73.5 150h126c-4.66699 -50 -17.334 -94.167 -38.001 -132.5s-47.5 -70.666 -80.5 -96.999s-71.5 -46.166 -115.5 -59.499
s-91.333 -20 -142 -20c-65.333 0 -124.5 11.167 -177.5 33.5s-98.167 54.333 -135.5 96s-66.166 91.834 -86.499 150.501s-30.5 124.667 -30.5 198c0 72.667 10.167 138.5 30.5 197.5s49.166 109.167 86.499 150.5s82.5 73.166 135.5 95.499s112.167 33.5 177.5 33.5
c50 0 96.833 -7.16699 140.5 -21.5s82.167 -34.333 115.5 -60s60.5 -56.667 81.5 -93s33.833 -76.5 38.5 -120.5z" />
    <glyph glyph-name="D" unicode="D" horiz-adv-x="932" 
d="M104 923h292c314 0 471 -152 471 -456c0 -311.333 -157 -467 -471 -467h-292v923zM225 110l167.999 -0.000976562c69.333 0 126.5 8.33301 171.5 25s80.5 40.334 106.5 71.001s44.167 68 54.5 112s15.5 93.667 15.5 149c0 54 -5.16699 102.333 -15.5 145
s-28.666 79 -54.999 109s-62 53 -107 69s-101.833 24 -170.5 24h-168v-704z" />
    <glyph glyph-name="E" unicode="E" horiz-adv-x="860" 
d="M792 0h-688v923h667v-109h-546v-282h510v-110h-510v-312h567v-110z" />
    <glyph glyph-name="F" unicode="F" horiz-adv-x="788" 
d="M727 814h-502v-286h434v-109h-434v-419h-121v923h623v-109z" />
    <glyph glyph-name="G" unicode="G" horiz-adv-x="1004" 
d="M507 -16c-66 0 -126.501 11.499 -181.501 34.499s-102.167 55.5 -141.5 97.5s-69.833 92.333 -91.5 151s-32.5 123.667 -32.5 195c0 70.667 10.5 135.167 31.5 193.5s50.833 108.5 89.5 150.5s85.334 74.667 140.001 98s115.334 35 182.001 35
c54.667 0 105.667 -7 153 -21s88.666 -33.833 123.999 -59.5s63.833 -56.667 85.5 -93s34.5 -76.833 38.5 -121.5h-126c-5.33301 58 -31.5 104.167 -78.5 138.5s-111.833 51.5 -194.5 51.5c-47.333 0 -90.5 -8.16699 -129.5 -24.5s-72.5 -40.333 -100.5 -72
s-49.667 -70.667 -65 -117s-23 -99.166 -23 -158.499c0 -58 7.5 -110 22.5 -156s36.5 -85.167 64.5 -117.5s61.667 -57 101 -74s83 -25.5 131 -25.5c132.667 0 231.667 44 297 132v140h-244v110h362v-471h-87l-31 97c-63.333 -75.333 -162 -113 -296 -113z" />
    <glyph glyph-name="H" unicode="H" horiz-adv-x="932" 
d="M828 0h-122v435h-481v-435h-121v923h121v-378h481v378h122v-923z" />
    <glyph glyph-name="I" unicode="I" horiz-adv-x="358" 
d="M242 0h-124v923h124v-923z" />
    <glyph glyph-name="J" unicode="J" horiz-adv-x="645" 
d="M542 295c0 -56 -5.49902 -103.667 -16.499 -143s-27.333 -71.5 -49 -96.5s-48.667 -43.167 -81 -54.5s-69.833 -17 -112.5 -17c-38 0 -72.333 6.16699 -103 18.5s-56.834 29.833 -78.501 52.5s-38.334 49.5 -50.001 80.5s-17.5 65.5 -17.5 103.5v24h124
c0 -112 41.667 -168 125 -168c22 0 41.333 2.5 58 7.5s30.834 14.5 42.501 28.5s20.5 33.667 26.5 59s9 58.333 9 99v634h123v-628z" />
    <glyph glyph-name="K" unicode="K" horiz-adv-x="860" 
d="M858 0h-161l-328 461l-144 -141v-320h-121v923h121v-457l451 457h165l-387 -378z" />
    <glyph glyph-name="L" unicode="L" 
d="M675 0h-571v923h121v-813h450v-110z" />
    <glyph glyph-name="M" unicode="M" horiz-adv-x="1074" 
d="M972 0h-117v785l-263 -785h-110l-263 785v-785h-115v923h182l251 -769l251 769h184v-923z" />
    <glyph glyph-name="N" unicode="N" horiz-adv-x="932" 
d="M828 0h-125l-484 729v-729h-115v923h124l484 -728v728h116v-923z" />
    <glyph glyph-name="O" unicode="O" horiz-adv-x="1004" 
d="M503 939c64.667 0 124 -11.3281 178 -33.9951s100.5 -54.834 139.5 -96.501s69.333 -91.834 91 -150.501s32.5 -124 32.5 -196c0 -72.667 -11 -138.334 -33 -197.001s-52.5 -108.834 -91.5 -150.501s-85.5 -73.834 -139.5 -96.501s-113 -34 -177 -34
c-64.667 0 -124 11.5 -178 34.5s-100.667 55.5 -140 97.5s-70 92.333 -92 151s-33 123.667 -33 195c0 70 10.667 134.333 32 193s51.5 109 90.5 151s85.667 74.667 140 98s114.5 35 180.5 35zM502 89.0049c46.667 0 89.498 8.66797 128.498 26.001s72.333 42.166 100 74.499
s49.167 71.5 64.5 117.5s23 97.667 23 155c0 58 -7.66699 110 -23 156s-36.833 85 -64.5 117s-60.667 56.5 -99 73.5s-80.5 25.5 -126.5 25.5c-46.667 0 -89.5 -8.33301 -128.5 -25s-72.5 -41 -100.5 -73s-49.833 -71 -65.5 -117s-23.5 -98.333 -23.5 -157
c0 -58 7.83301 -110 23.5 -156s37.334 -85.167 65.001 -117.5s60.834 -57 99.501 -74s81 -25.5 127 -25.5z" />
    <glyph glyph-name="P" unicode="P" horiz-adv-x="860" 
d="M104 923l386 0.000976562c40.667 0 80 -4.16699 118 -12.5s71.5 -22.833 100.5 -43.5s52.167 -48.334 69.5 -83.001s26 -78 26 -130c0 -94 -29.167 -165 -87.5 -213s-144.5 -72 -258.5 -72h-233v-369h-121v923zM225 479.001l234 0.000976562
c79.333 0 135.5 14.667 168.5 44s49.5 71.666 49.5 126.999c0 32 -5.33301 58.5 -16 79.5s-25.5 37.833 -44.5 50.5s-41.167 21.5 -66.5 26.5s-52.333 7.5 -81 7.5h-244v-335z" />
    <glyph glyph-name="Q" unicode="Q" horiz-adv-x="1004" 
d="M960 13l-72.001 -86.998l-153 121c-69.333 -42 -146.666 -63 -231.999 -63c-64.667 0 -124 11.5 -178 34.5s-100.667 55.5 -140 97.5s-70 92.333 -92 151s-33 123.667 -33 195c0 70 10.667 134.333 32 193s51.5 109 90.5 151s85.667 74.667 140 98s114.5 35 180.5 35
c64.667 0 124 -11.333 178 -34s100.5 -54.834 139.5 -96.501s69.333 -91.834 91 -150.501s32.5 -124 32.5 -196c0 -138 -39.667 -252.667 -119 -344zM732.999 191.002c56.667 66.667 84.998 157 84.998 271c0 58 -7.66699 110 -23 156s-36.833 85 -64.5 117
s-60.667 56.5 -99 73.5s-80.5 25.5 -126.5 25.5c-46.667 0 -89.5 -8.33301 -128.5 -25s-72.5 -41 -100.5 -73s-49.833 -71 -65.5 -117s-23.5 -98.333 -23.5 -157c0 -58 7.83301 -110 23.5 -156s37.334 -85.167 65.001 -117.5s60.834 -57 99.501 -74s81 -25.5 127 -25.5
c50.667 0 97 10.333 139 31l-92 72l73 87z" />
    <glyph glyph-name="R" unicode="R" horiz-adv-x="932" 
d="M873 0l-132.003 0.000976562l-87 246c-8 22 -18.667 42 -32 60s-28.666 33.667 -45.999 47s-36.5 23.666 -57.5 30.999s-43.167 11 -66.5 11h-227v-395h-121v923h408c50 0 95.167 -4.33301 135.5 -13s74.833 -23 103.5 -43s50.834 -46.667 66.501 -80
s23.5 -74.333 23.5 -123c0 -32.667 -5 -62.5 -15 -89.5s-24.167 -50.833 -42.5 -71.5s-40.166 -38 -65.499 -52s-53.333 -24.667 -84 -32c64 -21.333 113 -77.333 147 -168zM224.997 505.001l273 0.00195312c37.333 0 69.666 2.66699 96.999 8s49.833 14.166 67.5 26.499
s30.834 28.666 39.501 48.999s13 45.5 13 75.5c0 105.333 -66 158 -198 158h-292v-317z" />
    <glyph glyph-name="S" unicode="S" horiz-adv-x="860" 
d="M452 -16c-66 0 -123.505 7.83691 -172.505 23.5039s-89.667 37.5 -122 65.5s-56.666 61.167 -72.999 99.5s-25.166 79.833 -26.499 124.5h118c2.66699 -34.667 11.5 -64.667 26.5 -90s34.5 -46.333 58.5 -63s51.833 -29 83.5 -37s65.834 -12 102.501 -12
c33.333 0 64 3.5 92 10.5s52 17.167 72 30.5s35.667 29.666 47 48.999s17 41.333 17 66c0 26 -5 47.833 -15 65.5s-26.5 33 -49.5 46s-52.833 24.833 -89.5 35.5s-81.667 21.667 -135 33c-54 11.333 -99.833 24.666 -137.5 39.999s-68.167 33.166 -91.5 53.499
s-40.333 43.5 -51 69.5s-16 55.667 -16 89c0 37.333 7.83301 71.666 23.5 102.999s37.667 58.333 66 81s62.833 40.334 103.5 53.001s86 19 136 19c52 0 99.167 -6.16699 141.5 -18.5s78.833 -30.333 109.5 -54s54.834 -52.667 72.501 -87s27.167 -73.5 28.5 -117.5h-119
c-11.333 112 -87.333 168 -228 168c-69.333 0 -122.5 -13 -159.5 -39s-55.5 -59.667 -55.5 -101c0 -19.333 3 -36 9 -50s17 -26.333 33 -37s37.833 -20.5 65.5 -29.5s62.834 -18.167 105.501 -27.5c42 -9.33301 79.167 -18.5 111.5 -27.5s60.5 -17.5 84.5 -25.5
c22.667 -8 44.5 -18.667 65.5 -32s39.667 -29.5 56 -48.5s29.5 -41 39.5 -66s15 -53.5 15 -85.5c0 -40 -8.5 -76.833 -25.5 -110.5s-40.5 -62.834 -70.5 -87.501s-66 -44 -108 -58s-88 -21 -138 -21z" />
    <glyph glyph-name="T" unicode="T" horiz-adv-x="788" 
d="M760 814h-306v-814h-123v814h-303v109h732v-109z" />
    <glyph glyph-name="U" unicode="U" horiz-adv-x="932" 
d="M466 -16c-54.667 0 -101.664 5.33301 -140.997 16s-72.333 25.334 -99 44.001s-48 40.834 -64 66.501s-28.333 53.5 -37 83.5s-14.334 61.5 -17.001 94.5s-4 66.5 -4 100.5v534h121v-532c0 -61.333 5.16699 -111.333 15.5 -150s25.666 -68.834 45.999 -90.501
s45.5 -36.334 75.5 -44.001s64.667 -11.5 104 -11.5c38.667 0 73 4 103 12s55.167 22.833 75.5 44.5s35.666 51.667 45.999 90s15.5 88.166 15.5 149.499v532h122v-534c0 -63.333 -5.5 -120.166 -16.5 -170.499s-30.167 -92.833 -57.5 -127.5s-64.333 -61.167 -111 -79.5
s-105.667 -27.5 -177 -27.5z" />
    <glyph glyph-name="V" unicode="V" horiz-adv-x="860" 
d="M852 923l-359 -923h-126l-359 923h130l292 -791l291 791h131z" />
    <glyph glyph-name="W" unicode="W" horiz-adv-x="1218" 
d="M1205 923l-256 -923h-117l-222 803l-222 -803h-117l-256 923h129l185 -751l208 751h146l208 -751l185 751h129z" />
    <glyph glyph-name="X" unicode="X" horiz-adv-x="860" 
d="M854 0h-150l-273 391l-275 -391h-150l355 487l-320 436h150l239 -341l240 341h149l-321 -436z" />
    <glyph glyph-name="Y" unicode="Y" horiz-adv-x="860" 
d="M854 923l-363 -532v-391h-122v391l-363 532h149l276 -425l275 425h148z" />
    <glyph glyph-name="Z" unicode="Z" horiz-adv-x="788" 
d="M753 0h-730v115l574 699h-521v109h662v-114l-574 -699h589v-110z" />
    <glyph glyph-name="bracketleft" unicode="[" horiz-adv-x="358" 
d="M338 -257h-250v1180h250v-93h-131v-992h131v-95z" />
    <glyph glyph-name="backslash" unicode="\" horiz-adv-x="358" 
d="M358 0h-91l-267 923h91z" />
    <glyph glyph-name="bracketright" unicode="]" horiz-adv-x="358" 
d="M271 -257h-250v95h132v992h-132v93h250v-1180z" />
    <glyph glyph-name="asciicircum" unicode="^" horiz-adv-x="606" 
d="M557 535h-116l-139 274l-140 -274h-115l210 388h90z" />
    <glyph glyph-name="underscore" unicode="_" horiz-adv-x="712" 
d="M720 -203h-728v64h728v-64z" />
    <glyph glyph-name="grave" unicode="`" horiz-adv-x="430" 
d="M286 762h-93l-139 177h149z" />
    <glyph glyph-name="a" unicode="a" 
d="M511 176v148h-81c-172 0 -258 -47 -258 -141c0 -34 12.333 -60 37 -78s59 -27 103 -27c19.333 0 38.5 2.16699 57.5 6.5s37.167 10.833 54.5 19.5s33.5 19 48.5 31s27.833 25.667 38.5 41zM511 69c-61.333 -56.667 -139.334 -85.001 -234.001 -85.001
c-32.667 0 -63 4.66699 -91 14s-52.167 22.5 -72.5 39.5s-36.166 37.333 -47.499 61s-17 49.834 -17 78.501c0 156.667 134.667 235 404 235h58c0 30.667 -1.33301 57.334 -4 80.001s-9.16699 41.334 -19.5 56.001s-26.166 25.5 -47.499 32.5s-51 10.5 -89 10.5
c-106.667 0 -161.334 -38 -164.001 -114h-118c9.33301 137.333 105.333 206 288 206c42.667 0 80.834 -3.5 114.501 -10.5s62.167 -19.833 85.5 -38.5s41.166 -44.334 53.499 -77.001s18.5 -74.334 18.5 -125.001v-432h-118v69z" />
    <glyph glyph-name="b" unicode="b" 
d="M207 589c52.667 62.667 116.335 94 191.002 94c43.333 0 82 -8.16699 116 -24.5s62.667 -39.333 86 -69s41.166 -65.667 53.499 -108s18.5 -89.5 18.5 -141.5c0 -54 -7 -103 -21 -147s-33.667 -81.5 -59 -112.5s-55.333 -54.833 -90 -71.5s-72.334 -25 -113.001 -25
c-72 0 -132.667 22.667 -182 68v-52h-119v923h119v-334zM207.001 159c50 -54 108.333 -81 175 -81c52 0 92.833 21.667 122.5 65s44.5 109 44.5 197c0 83.333 -14 146 -42 188s-68 63 -120 63c-65.333 0 -125.333 -38.333 -180 -115v-317z" />
    <glyph glyph-name="c" unicode="c" horiz-adv-x="645" 
d="M358 -16c-46 0 -88.165 7.50293 -126.498 22.5029s-71.333 37.333 -99 67s-49 66.167 -64 109.5s-22.5 93.666 -22.5 150.999c0 56.667 7.5 106.834 22.5 150.501s36.333 80.167 64 109.5s60.667 51.5 99 66.5s80.5 22.5 126.5 22.5c38 0 72.667 -5 104 -15
s58.666 -24.167 81.999 -42.5s42.166 -40.833 56.499 -67.5s23.5 -56.667 27.5 -90h-122c-1.33301 20 -6.16602 37.667 -14.499 53s-19.166 28.166 -32.499 38.499s-28.833 18.166 -46.5 23.499s-35.834 8 -54.501 8c-28.667 0 -54.667 -5.66699 -78 -17
s-43.333 -27.833 -60 -49.5s-29.667 -48.5 -39 -80.5s-14 -68.667 -14 -110c0 -83.333 17.167 -146.833 51.5 -190.5s80.833 -65.5 139.5 -65.5c18.667 0 36.834 2.33301 54.501 7s33.167 12 46.5 22s24.166 22.667 32.499 38s13.166 33.666 14.499 54.999h122
c-4 -35.333 -13.667 -66.5 -29 -93.5s-35 -49.5 -59 -67.5s-51.5 -31.667 -82.5 -41s-64.167 -14 -99.5 -14z" />
    <glyph glyph-name="d" unicode="d" 
d="M511 192l0.00195312 318c-52 54 -110.667 81 -176 81c-50.667 0 -91.334 -21.667 -122.001 -65s-46 -109 -46 -197c0 -83.333 14.5 -146 43.5 -188s68.833 -63 119.5 -63c65.333 0 125.666 38 180.999 114zM511.002 80c-53.333 -64 -116.998 -96.0029 -190.998 -96.0029
c-43.333 0 -81.833 8 -115.5 24s-62.334 38.833 -86.001 68.5s-41.667 65.834 -54 108.501s-18.5 90.667 -18.5 144c0 54.667 7 103.834 21 147.501s33.5 80.834 58.5 111.501s54.667 54.167 89 70.5s72.166 24.5 113.499 24.5c72.667 0 133.667 -22 183 -66v306h118v-923
h-118v80z" />
    <glyph glyph-name="e" unicode="e" 
d="M372 -16c-48.667 0 -92.998 7.83496 -132.998 23.502s-74.333 38.334 -103 68.001s-50.834 66.167 -66.501 109.5s-23.5 93 -23.5 149c0 54.667 7.66699 103.667 23 147s36.833 80 64.5 110s60.5 52.833 98.5 68.5s80 23.5 126 23.5c48 0 91.333 -7.83301 130 -23.5
s71.667 -38.334 99 -68.001s48.333 -66.167 63 -109.5s22 -92.666 22 -147.999v-29h-503c2.66699 -39.333 9.66699 -73.333 21 -102s26 -52.334 44 -71.001s38.833 -32.334 62.5 -41.001s48.834 -13 75.501 -13c20 0 39.667 2.5 59 7.5s36.666 12.667 51.999 23
s27.833 23.166 37.5 38.499s15.167 33 16.5 53h122c-4.66699 -35.333 -15.334 -66.5 -32.001 -93.5s-37.667 -49.5 -63 -67.5s-54.5 -31.667 -87.5 -41s-67.833 -14 -104.5 -14zM547.002 399.002c-10 64.667 -31.5029 112.834 -64.5029 144.501s-74.5 47.5 -124.5 47.5
c-23.333 0 -45.166 -3.83301 -65.499 -11.5s-38.666 -19.334 -54.999 -35.001s-30.166 -35.667 -41.499 -60s-19.333 -52.833 -24 -85.5h375z" />
    <glyph glyph-name="f" unicode="f" horiz-adv-x="358" 
d="M227 575v-575.001h-118v575h-99v94h99v58c0 141.333 62 212 186 212c41.333 0 71 -2.33301 89 -7v-104c-11.333 2.66699 -23 4.33398 -35 5.00098s-24.333 1 -37 1c-28.667 0 -50 -7.83301 -64 -23.5s-21 -43.5 -21 -83.5v-58h127v-94h-127z" />
    <glyph glyph-name="g" unicode="g" 
d="M629 52c0 -215.333 -96.9971 -323.003 -290.997 -323.003c-42 0 -79.667 4.83301 -113 14.5s-61.833 23.167 -85.5 40.5s-41.834 38.5 -54.501 63.5s-19 52.833 -19 83.5h124c0 -73.333 49 -110 147 -110c26 0 49.833 3.16699 71.5 9.5s40 17.833 55 34.5
s26.667 39.667 35 69s12.5 67 12.5 113v33c-53.333 -64 -117 -96 -191 -96c-43.333 0 -81.833 8 -115.5 24s-62.334 38.833 -86.001 68.5s-41.667 65.834 -54 108.501s-18.5 90.667 -18.5 144c0 54.667 7 103.834 21 147.501s33.5 80.834 58.5 111.501
s54.667 54.167 89 70.5s72.166 24.5 113.499 24.5c72.667 0 133.667 -22 183 -66v52h118v-617zM511.003 191.997l0.00195312 318c-52 54 -110.667 81 -176 81c-50.667 0 -91.334 -21.667 -122.001 -65s-46 -109 -46 -197c0 -83.333 14.5 -146 43.5 -188
s68.833 -63 119.5 -63c65.333 0 125.666 38 180.999 114z" />
    <glyph glyph-name="h" unicode="h" 
d="M207 583c58.667 66.667 125 100 199 100c151.333 0 227 -81.667 227 -245v-438h-120v432c0 54.667 -9.66699 94 -29 118s-51.333 36 -96 36c-60.667 0 -121 -35.667 -181 -107v-479h-119v923h119v-340z" />
    <glyph glyph-name="i" unicode="i" horiz-adv-x="294" 
d="M207 0h-119v669h119v-669zM207 795h-119v128h119v-128z" />
    <glyph glyph-name="j" unicode="j" horiz-adv-x="294" 
d="M207 -36c0 -49.333 -4.16406 -89.333 -12.4971 -120s-20 -54.5 -35 -71.5s-33.167 -28.333 -54.5 -34s-45 -8.5 -71 -8.5c-15.333 0 -29.833 0.5 -43.5 1.5s-25.834 2.83301 -36.501 5.5v101c22.667 -6.66699 45 -10 67 -10c12.667 0 23.167 2 31.5 6
s15.166 11.167 20.499 21.5s9.16602 24.5 11.499 42.5s3.5 40.667 3.5 68v703h119v-705zM207.003 795h-119v128h119v-128z" />
    <glyph glyph-name="k" unicode="k" horiz-adv-x="645" 
d="M640 0h-142l-217 340l-74 -74v-266h-119v923h119v-523l257 269h150l-253 -250z" />
    <glyph glyph-name="l" unicode="l" horiz-adv-x="294" 
d="M207 0h-119v923h119v-923z" />
    <glyph glyph-name="m" unicode="m" horiz-adv-x="1074" 
d="M991 0l-119.001 0.000976562v432c0 56 -7.83301 95.667 -23.5 119s-42.5 35 -80.5 35c-57.333 0 -113.666 -35.667 -168.999 -107v-479h-119v432c0 55.333 -8 94.833 -24 118.5s-43 35.5 -81 35.5c-58 0 -114 -35.667 -168 -107v-479h-119v669h119v-86
c54.667 66.667 116.667 100 186 100c98 0 160.667 -40 188 -120c22.667 26.667 43.334 48 62.001 64s36 28.167 52 36.5s31.167 13.666 45.5 15.999s29.166 3.5 44.499 3.5c137.333 0 206 -81.667 206 -245v-438z" />
    <glyph glyph-name="n" unicode="n" 
d="M207 583c58.667 66.667 125 100 199 100c151.333 0 227 -81.667 227 -245v-438h-120v432c0 54.667 -9.66699 94 -29 118s-51.333 36 -96 36c-60.667 0 -121 -35.667 -181 -107v-479h-119v669h119v-86z" />
    <glyph glyph-name="o" unicode="o" 
d="M358 683c48 0 91.333 -7.83398 130 -23.501s71.667 -38.334 99 -68.001s48.333 -66.167 63 -109.5s22 -92.666 22 -147.999c0 -57.333 -7.66699 -107.666 -23 -150.999s-36.833 -79.833 -64.5 -109.5s-60.667 -52 -99 -67s-80.833 -22.5 -127.5 -22.5
c-46 0 -88.167 7.5 -126.5 22.5s-71.333 37.333 -99 67s-49 66.167 -64 109.5s-22.5 93.666 -22.5 150.999c0 56.667 7.5 106.834 22.5 150.501s36.333 80.167 64 109.5s60.667 51.5 99 66.5s80.5 22.5 126.5 22.5zM358 77.999c58.667 0 105.167 21.5 139.5 64.5
s51.5 106.833 51.5 191.5c0 43.333 -4.66699 81 -14 113s-22.5 58.667 -39.5 80s-37.167 37.333 -60.5 48s-49 16 -77 16c-28.667 0 -54.667 -5.66699 -78 -17s-43.333 -27.833 -60 -49.5s-29.667 -48.5 -39 -80.5s-14 -68.667 -14 -110
c0 -83.333 17.167 -146.833 51.5 -190.5s80.833 -65.5 139.5 -65.5z" />
    <glyph glyph-name="p" unicode="p" 
d="M207 589c52.667 62.667 116.335 94 191.002 94c43.333 0 82 -8.16699 116 -24.5s62.667 -39.333 86 -69s41.166 -65.667 53.499 -108s18.5 -89.5 18.5 -141.5c0 -54 -7 -103 -21 -147s-33.667 -81.5 -59 -112.5s-55.333 -54.833 -90 -71.5s-72.334 -25 -113.001 -25
c-72 0 -132.667 22.667 -182 68v-309h-119v926h119v-80zM207.001 159c50 -54 108.333 -81 175 -81c52 0 92.833 21.667 122.5 65s44.5 109 44.5 197c0 83.333 -14 146 -42 188s-68 63 -120 63c-65.333 0 -125.333 -38.333 -180 -115v-317z" />
    <glyph glyph-name="q" unicode="q" 
d="M629 -257l-117.998 -0.00292969v337c-53.333 -64 -117 -96 -191 -96c-43.333 0 -81.833 8 -115.5 24s-62.334 38.833 -86.001 68.5s-41.667 65.834 -54 108.501s-18.5 90.667 -18.5 144c0 54.667 7 103.834 21 147.501s33.5 80.834 58.5 111.501s54.667 54.167 89 70.5
s72.166 24.5 113.499 24.5c72.667 0 133.667 -22 183 -66v52h118v-926zM511.002 191.997l0.00195312 318c-52 54 -110.667 81 -176 81c-50.667 0 -91.334 -21.667 -122.001 -65s-46 -109 -46 -197c0 -83.333 14.5 -146 43.5 -188s68.833 -63 119.5 -63
c65.333 0 125.666 38 180.999 114z" />
    <glyph glyph-name="r" unicode="r" horiz-adv-x="430" 
d="M435 560c-19.333 5.33301 -43.668 8 -73.001 8c-60 0 -111.667 -31.667 -155 -95v-473h-119v669h119v-94c48 72 106 108 174 108c8.66699 0 17.334 -0.333008 26.001 -1s18 -2 28 -4v-118z" />
    <glyph glyph-name="s" unicode="s" horiz-adv-x="645" 
d="M326 -16c-182.667 0 -277.999 71.9961 -285.999 215.996h119c1.33301 -81.333 56.666 -122 165.999 -122c50 0 87.667 9.83301 113 29.5s38 45.5 38 77.5c0 14.667 -2.5 26.834 -7.5 36.501s-14.5 18.334 -28.5 26.001s-33.667 15.334 -59 23.001s-58.333 16.5 -99 26.5
c-40 10 -74.167 19.833 -102.5 29.5s-51.833 21.667 -70.5 36s-32.334 31.666 -41.001 51.999s-13 45.833 -13 76.5c0 28 5.83301 53.667 17.5 77s28.334 43.5 50.001 60.5s48 30.333 79 40s65.5 14.5 103.5 14.5c174.667 0 264 -62.333 268 -187h-119
c-4 63.333 -51.333 95 -142 95c-18.667 0 -36.334 -1.83301 -53.001 -5.5s-31.334 -9.16699 -44.001 -16.5s-22.667 -16.666 -30 -27.999s-11 -24.333 -11 -39c0 -13.333 1.33301 -24.166 4 -32.499s10 -16 22 -23s30.167 -14 54.5 -21s58.166 -15.833 101.499 -26.5
c40 -10 75 -20.167 105 -30.5s54.833 -23 74.5 -38s34.5 -33.167 44.5 -54.5s15 -48 15 -80c0 -29.333 -6.16699 -57 -18.5 -83s-30.166 -48.5 -53.499 -67.5s-51.666 -34 -84.999 -45s-70.666 -16.5 -111.999 -16.5z" />
    <glyph glyph-name="t" unicode="t" horiz-adv-x="358" 
d="M347 -1c-13.333 -2.66699 -27.0029 -4.66797 -41.0029 -6.00098s-28.667 -2 -44 -2c-37.333 0 -66.666 4.66699 -87.999 14s-37.166 22.833 -47.499 40.5s-16.666 39.167 -18.999 64.5s-3.5 54 -3.5 86v379h-82v94h82v165h119v-165h108v-94h-108v-385
c0 -23.333 1.5 -42 4.5 -56s7.16699 -24.667 12.5 -32s12.166 -12.166 20.499 -14.499s17.5 -3.5 27.5 -3.5c10.667 0 20.834 0.333008 30.501 1s19.167 2 28.5 4v-90z" />
    <glyph glyph-name="u" unicode="u" 
d="M511 85c-59.333 -67.333 -125.667 -100.999 -199 -100.999c-151.333 0 -227 82.333 -227 247v438h119v-433c0 -54.667 9.66699 -93.834 29 -117.501s51.333 -35.5 96 -35.5c66 0 126.667 35.667 182 107v479h118v-669h-118v85z" />
    <glyph glyph-name="v" unicode="v" horiz-adv-x="645" 
d="M628 669l-253 -669h-106l-252 669h129l177 -523l177 523h128z" />
    <glyph glyph-name="w" unicode="w" horiz-adv-x="932" 
d="M925 669l-201 -669h-114l-144 491l-145 -491h-113l-202 669h132l123 -510l151 510h107l152 -510l123 510h131z" />
    <glyph glyph-name="x" unicode="x" horiz-adv-x="645" 
d="M636 0h-147l-166 261l-167 -261h-147l247 347l-228 322h148l147 -234l146 234h148l-228 -320z" />
    <glyph glyph-name="y" unicode="y" horiz-adv-x="645" 
d="M125 -161c58.667 0 106.667 53.668 144 161.001l-252 669h129l177 -523l177 523h128l-253 -669c-17.333 -46 -33.666 -85.833 -48.999 -119.5s-31.5 -61.834 -48.5 -84.501s-36 -39.5 -57 -50.5s-45.833 -16.5 -74.5 -16.5c-30.667 0 -56.334 3 -77.001 9v109
c20 -5.33301 38.667 -8 56 -8z" />
    <glyph glyph-name="z" unicode="z" horiz-adv-x="645" 
d="M618 0h-592v101l416 467h-392v101h547v-101l-416 -467h437v-101z" />
    <glyph glyph-name="braceleft" unicode="{" horiz-adv-x="431" 
d="M400 -271h-34.9971c-23.333 0 -45.333 1.5 -66 4.5s-39.167 9.5 -55.5 19.5s-30.5 24.667 -42.5 44s-21.333 45.333 -28 78c-1.33301 8.66699 -2.33301 20.834 -3 36.501s-1.33398 33 -2.00098 52s-1.16699 38.833 -1.5 59.5s-0.833008 40.5 -1.5 59.5
s-1.5 36.167 -2.5 51.5s-1.83301 27 -2.5 35c-4.66699 31.333 -16.334 57.833 -35.001 79.5s-48.334 33.167 -89.001 34.5v103c29.333 0 52.5 5.16699 69.5 15.5s29.833 24.666 38.5 42.999s14.334 40.166 17.001 65.499s4.16699 53.166 4.5 83.499
s0.666016 62.5 0.999023 96.5s2.5 68.667 6.5 104c6 30 14.667 54.5 26 73.5s25 33.667 41 44s34.5 17.5 55.5 21.5s44.167 6 69.5 6h35v-98h-19c-44 0 -71 -11.667 -81 -35c-9.33301 -22 -14 -84 -14 -186c0 -45.333 -3 -84.166 -9 -116.499s-15 -59.833 -27 -82.5
s-27 -40.834 -45 -54.501s-39.333 -24.5 -64 -32.5c24 -7.33301 45 -17.666 63 -30.999s33 -31.166 45 -53.499s21.167 -49.833 27.5 -82.5s9.5 -72 9.5 -118c0 -102.667 4.66699 -165 14 -187c10 -23.333 37 -35 81 -35h19v-98z" />
    <glyph glyph-name="bar" unicode="|" horiz-adv-x="335" 
d="M217 -271h-99v1194h99v-1194z" />
    <glyph glyph-name="braceright" unicode="}" horiz-adv-x="431" 
d="M31 939l34.9951 0.00488281c26 0 49.833 -2.33301 71.5 -7s40.834 -12.5 57.501 -23.5s30.334 -25.833 41.001 -44.5s17.667 -42 21 -70c2 -14.667 3.5 -36 4.5 -64l3 -87c1 -30 2 -58.333 3 -85s2.5 -46.334 4.5 -59.001c2 -15.333 5.66699 -29.833 11 -43.5
s13 -25.667 23 -36s22.333 -18.5 37 -24.5s32 -9 52 -9v-103c-30 -0.666992 -53.5 -6.33398 -70.5 -17.001s-29.833 -25.167 -38.5 -43.5s-14 -40 -16 -65s-3 -52.5 -3 -82.5s-0.333008 -62 -1 -96s-3.66699 -68.667 -9 -104c-3.33301 -28 -10.166 -51.333 -20.499 -70
s-23.833 -33.667 -40.5 -45s-36 -19.333 -58 -24s-46 -7 -72 -7h-35v98h19c43.333 0 70 11.667 80 35c5.33301 11.333 9.5 32.333 12.5 63s4.16699 72 3.5 124c0 45.333 2.83301 84.166 8.5 116.499s14.334 59.666 26.001 81.999s26.5 40.333 44.5 54s39.667 24.5 65 32.5
c-25.333 8 -47 18.833 -65 32.5s-32.833 31.667 -44.5 54s-20.334 49.833 -26.001 82.5s-8.5 71.667 -8.5 117c0 52 -1.33301 93.167 -4 123.5s-6.66699 51.166 -12 62.499s-14.166 20 -26.499 26s-30.166 9 -53.499 9h-19v98z" />
    <glyph glyph-name="asciitilde" unicode="~" horiz-adv-x="753" 
d="M699 796c-44 -50.667 -101.667 -76 -173 -76c-46 0 -101 14 -165 42s-111.667 42 -143 42c-53.333 0 -107.666 -28.667 -162.999 -86v129c44.667 50.667 103 76 175 76c45.333 0 99.666 -14 162.999 -42c64 -28 112 -42 144 -42c54.667 0 108.667 28.667 162 86v-129z
" />
    <glyph glyph-name="uni00A0" unicode="&#xa0;" horiz-adv-x="645" 
 />
    <glyph glyph-name="exclamdown" unicode="&#xa1;" horiz-adv-x="358" 
d="M244 539h-129v130h129v-130zM230 437v-693h-105v693h105z" />
    <glyph glyph-name="cent" unicode="&#xa2;" 
d="M654 200c-4.66699 -34.667 -14.499 -65.502 -29.499 -92.502s-34.333 -49.667 -58 -68s-51 -32.166 -82 -41.499s-64.5 -14 -100.5 -14c-11.333 0 -22.5 0.666992 -33.5 2s-22.833 3 -35.5 5l-41 -149l-66 19l41 149c-118.667 54 -178 162 -178 324
c0 55.333 7.33301 104.666 22 147.999s35.667 79.833 63 109.5s60.333 52.334 99 68.001s81.667 23.5 129 23.5c9.33301 0 18.166 -0.166992 26.499 -0.5s16.833 -1.16602 25.5 -2.49902l40 146l66 -18l-40 -144c90.667 -34 141.334 -99.333 152.001 -196h-122
c-1.33301 44 -20.333 77.333 -57 100l-134 -485c7.33301 -2 14.5 -3.33301 21.5 -4s14.167 -1 21.5 -1c19.333 0 37.666 2.5 54.999 7.5s32.833 12.5 46.5 22.5s24.5 22.667 32.5 38s12.667 33.333 14 54h122zM410.001 588.998c-6.66699 1.33301 -15.332 2 -25.999 2
c-28 0 -53.833 -5.5 -77.5 -16.5s-43.834 -27.167 -60.501 -48.5s-29.667 -48 -39 -80s-14 -69.333 -14 -112c0 -107.333 28 -181.333 84 -222z" />
    <glyph glyph-name="sterling" unicode="&#xa3;" 
d="M666 13c-42.667 -19.333 -87.332 -29 -133.999 -29c-12.667 0 -31.667 3 -57 9l-80.5 19.5l-81.5 19.5c-26 6 -45.667 9 -59 9c-68 0 -142.333 -19 -223 -57v114c21.333 11.333 40.166 24.166 56.499 38.499s30.166 31 41.499 50s20 40.833 26 65.5s9 53.334 9 86.001
c0 26.667 -3.33301 53 -10 79h-123v93h97c-11.333 36 -19.5 67.833 -24.5 95.5s-7.5 51.167 -7.5 70.5c0 40.667 7 77.334 21 110.001s33.5 60.334 58.5 83.001s55.167 40 90.5 52s74 18 116 18c38.667 0 74.5 -5.16699 107.5 -15.5s61.667 -25.5 86 -45.5
s43.833 -44.833 58.5 -74.5s23.667 -63.834 27 -102.501h-123c-8 96.667 -61 145 -159 145c-24 0 -45.833 -4.16699 -65.5 -12.5s-36.667 -19.833 -51 -34.5s-25.333 -31.5 -33 -50.5s-11.5 -39.5 -11.5 -61.5c0 -46 11.667 -105 35 -177h197v-93h-176
c6.66699 -18 10 -36.667 10 -56c0 -26.667 -2 -50.834 -6 -72.501s-10.5 -41.667 -19.5 -60s-20.667 -35.833 -35 -52.5s-32.166 -33.667 -53.499 -51c15.333 5.33301 30.5 9 45.5 11s30.5 3 46.5 3c15.333 0 36 -2.16699 62 -6.5s52.5 -9 79.5 -14l74.5 -14
c22.667 -4.33301 38.667 -6.5 48 -6.5c48 0 94.667 11.667 140 35v-120z" />
    <glyph glyph-name="currency" unicode="&#xa4;" 
d="M670 222l-73.998 -74l-88 87c-22.667 -15.333 -46.334 -26.666 -71.001 -33.999s-51 -11 -79 -11c-54.667 0 -104.334 15.333 -149.001 46l-87 -88l-74 74l87 88c-29.333 47.333 -44 96 -44 146c0 50.667 14.667 99.667 44 147l-87 89l74 73l87 -88
c45.333 31.333 95 47 149 47c54.667 0 104.667 -15.667 150 -47l88 88l74 -73l-88 -89c29.333 -47.333 44 -96.333 44 -147s-15 -99.334 -45 -146.001zM358.002 293c22 0 43.001 4.33008 63.001 12.9971s37.5 20.334 52.5 35.001s26.833 31.834 35.5 51.501
s13 40.834 13 63.501s-4.33301 43.834 -13 63.501s-20.5 37 -35.5 52s-32.333 26.833 -52 35.5s-40.834 13 -63.501 13s-43.834 -4.33301 -63.501 -13s-36.834 -20.5 -51.501 -35.5s-26.334 -32.333 -35.001 -52s-13 -40.834 -13 -63.501c0 -22 4.33301 -42.833 13 -62.5
s20.334 -37 35.001 -52s31.834 -26.833 51.501 -35.5s40.834 -13 63.501 -13z" />
    <glyph glyph-name="yen" unicode="&#xa5;" 
d="M718 923l-242 -421h200v-88h-259v-114h259v-87h-259v-213h-114v213h-262v87h262v114h-262v88h201l-241 421h134l223 -409l225 409h135z" />
    <glyph glyph-name="brokenbar" unicode="&#xa6;" horiz-adv-x="335" 
d="M217 -271h-99v482h99v-482zM217 441h-99v482h99v-482z" />
    <glyph glyph-name="section" unicode="&#xa7;" 
d="M485 721c-8 83.333 -52.668 124.998 -134.001 124.998c-38 0 -67.5 -9.16699 -88.5 -27.5s-31.5 -42.5 -31.5 -72.5c0 -14 2.33301 -27 7 -39s14.5 -25.167 29.5 -39.5s37 -31 66 -50s67.833 -42.833 116.5 -71.5c46 -27.333 83 -51.833 111 -73.5
s49.5 -42.334 64.5 -62.001s24.833 -38.834 29.5 -57.501s7 -38.667 7 -60c0 -75.333 -47.667 -136 -143 -182c66 -43.333 99 -101.666 99 -174.999c0 -30 -6.33301 -57.667 -19 -83s-30.334 -47.166 -53.001 -65.499s-49.167 -32.666 -79.5 -42.999
s-63.166 -15.5 -98.499 -15.5c-37.333 0 -71.666 4.83301 -102.999 14.5s-59 24 -83 43s-43.833 42.667 -59.5 71s-25.834 61.166 -30.501 98.499h124c8 -88 58.667 -132 152 -132c21.333 0 40.333 3 57 9s30.5 14.167 41.5 24.5s19.333 22.166 25 35.499s8.5 27 8.5 41
c0 14.667 -3.16699 28.334 -9.5 41.001s-18.166 26.5 -35.499 41.5s-41.5 32.333 -72.5 52l-120.5 73.5c-47.333 28.667 -84.833 54.334 -112.5 77.001s-48.5 44.167 -62.5 64.5s-23 40.166 -27 59.499s-6 40 -6 62c0 76.667 47.333 136.334 142 179.001
c-56 48.667 -84 101 -84 157c0 25.333 5.33301 49.833 16 73.5s26 44.834 46 63.501s44.333 33.5 73 44.5s61 16.5 97 16.5c78.667 0 140.5 -19.167 185.5 -57.5s71.167 -91.833 78.5 -160.5h-123zM462.999 154.998c56.667 28 84.998 66.6641 84.998 115.997
c0 14.667 -2.66699 28.667 -8 42s-14.333 27 -27 41s-29.167 28.5 -49.5 43.5s-45.5 31.5 -75.5 49.5c-31.333 18.667 -58.166 36 -80.499 52l-56.5 41c-56 -27.333 -84 -67.666 -84 -120.999c0 -16 2.16699 -30.667 6.5 -44s12.333 -26.666 24 -39.999
s27.834 -27.5 48.501 -42.5s47.667 -32.833 81 -53.5l83.5 -50c22.333 -13.333 39.833 -24.666 52.5 -33.999z" />
    <glyph glyph-name="dieresis" unicode="&#xa8;" horiz-adv-x="430" 
d="M389 788h-115v129h115v-129zM156 788h-116v129h116v-129z" />
    <glyph glyph-name="copyright" unicode="&#xa9;" horiz-adv-x="951" 
d="M476 939c64.667 0 125.669 -12.665 183.002 -37.998s107.666 -59.5 150.999 -102.5s77.666 -93.333 102.999 -151s38 -118.834 38 -183.501c0 -64 -12.333 -124.667 -37 -182s-58.5 -107.666 -101.5 -150.999s-93.333 -77.833 -151 -103.5s-119.5 -38.5 -185.5 -38.5
c-65.333 0 -126.833 12.5 -184.5 37.5s-108 59.167 -151 102.5s-77.167 93.666 -102.5 150.999s-38 118.666 -38 183.999s12.667 126.833 38 184.5s59.666 108 102.999 151s93.833 77 151.5 102s118.834 37.5 183.501 37.5zM475.002 66.002
c53.333 0 104.001 10.5 152.001 31.5s90.167 49.5 126.5 85.5s65.166 78.167 86.499 126.5s32 99.833 32 154.5c0 53.333 -10.333 104 -31 152s-49 90 -85 126s-78.167 64.667 -126.5 86s-99.833 32 -154.5 32s-106.167 -10.667 -154.5 -32s-90.5 -50 -126.5 -86
s-64.333 -78 -85 -126s-31 -98.667 -31 -152c0 -54 10.5 -105.167 31.5 -153.5s49.5 -90.5 85.5 -126.5s78.167 -64.667 126.5 -86s99.5 -32 153.5 -32zM702.003 364.002c-29.333 -115.333 -104.334 -173.001 -225.001 -173.001c-36 0 -69.333 6.16699 -100 18.5
s-57.167 30.166 -79.5 53.499s-39.666 51.833 -51.999 85.5s-18.5 71.834 -18.5 114.501c0 42 6 79.5 18 112.5s29 61 51 84s48.667 40.5 80 52.5s66.666 18 105.999 18c27.333 0 53 -3.66699 77 -11s45.5 -17.666 64.5 -30.999s34.833 -30 47.5 -50
s21.334 -42.333 26.001 -67h-88c-13.333 60 -56.666 90 -129.999 90c-26.667 0 -50.334 -4.83301 -71.001 -14.5s-38 -23.334 -52 -41.001s-24.5 -38.667 -31.5 -63s-10.5 -51.5 -10.5 -81.5c0 -29.333 3.83301 -55.833 11.5 -79.5s18.5 -44.167 32.5 -61.5
s31 -30.666 51 -39.999s42.333 -14 67 -14c78 0 124 32.667 138 98h88z" />
    <glyph glyph-name="ordfeminine" unicode="&#xaa;" horiz-adv-x="477" 
d="M340 612v78h-57c-107.333 0 -161 -29 -161 -87c0 -38.667 27.333 -58 82 -58c10 0 21.333 1.66699 34 5s25.334 8 38.001 14s24.667 13 36 21s20.666 17 27.999 27zM340 482l0.000976562 44.0029c-40.667 -36.667 -93.667 -55 -159 -55c-22 0 -42.5 3.16699 -61.5 9.5
s-35.333 15.166 -49 26.499s-24.334 24.833 -32.001 40.5s-11.5 33.167 -11.5 52.5c0 104.667 90.333 157 271 157h42c0 24 -2.5 43.167 -7.5 57.5s-12 25.166 -21 32.499s-20 12.166 -33 14.499s-27.5 3.5 -43.5 3.5c-66 0 -100 -21 -102 -63h-92
c8 91.333 74.333 137 199 137c65.333 0 113.333 -13 144 -39s46 -69 46 -129v-289h-90zM422.001 326.003h-372v74h372v-74z" />
    <glyph glyph-name="guillemotleft" unicode="&#xab;" 
d="M628 46h-93l-200 287l200 287h93l-164 -287zM382 46h-93l-200 287l200 287h93l-164 -287z" />
    <glyph glyph-name="logicalnot" unicode="&#xac;" horiz-adv-x="753" 
d="M683 262h-107v281h-505v106h612v-387z" />
    <glyph glyph-name="registered" unicode="&#xae;" horiz-adv-x="951" 
d="M476 939c64.667 0 125.669 -12.665 183.002 -37.998s107.666 -59.5 150.999 -102.5s77.666 -93.333 102.999 -151s38 -118.834 38 -183.501c0 -64 -12.333 -124.667 -37 -182s-58.5 -107.666 -101.5 -150.999s-93.333 -77.833 -151 -103.5s-119.5 -38.5 -185.5 -38.5
c-65.333 0 -126.833 12.5 -184.5 37.5s-108 59.167 -151 102.5s-77.167 93.666 -102.5 150.999s-38 118.666 -38 183.999s12.667 126.833 38 184.5s59.666 108 102.999 151s93.833 77 151.5 102s118.834 37.5 183.501 37.5zM475.002 66.002
c53.333 0 104.001 10.5 152.001 31.5s90.167 49.5 126.5 85.5s65.166 78.167 86.499 126.5s32 99.833 32 154.5c0 53.333 -10.333 104 -31 152s-49 90 -85 126s-78.167 64.667 -126.5 86s-99.833 32 -154.5 32s-106.167 -10.667 -154.5 -32s-90.5 -50 -126.5 -86
s-64.333 -78 -85 -126s-31 -98.667 -31 -152c0 -54 10.5 -105.167 31.5 -153.5s49.5 -90.5 85.5 -126.5s78.167 -64.667 126.5 -86s99.5 -32 153.5 -32zM690.003 201.002h-95l-40 111c-24 66.667 -69.333 100 -136 100h-64v-211h-83v511h192c135.333 0 203 -47 203 -141
c0 -90 -44.333 -138.333 -133 -145c45.333 -14 79 -46.333 101 -97zM355.003 484.002h103c81.333 0 122 26.333 122 79c0 53.333 -42 80 -126 80h-99v-159z" />
    <glyph glyph-name="macron" unicode="&#xaf;" horiz-adv-x="430" 
d="M412 805h-394v94h394v-94z" />
    <glyph glyph-name="degree" unicode="&#xb0;" horiz-adv-x="516" 
d="M258 935c24 0 46.5 -4.66699 67.5 -14s39.333 -21.833 55 -37.5s28.167 -34 37.5 -55s14 -43.5 14 -67.5s-4.66699 -46.667 -14 -68s-21.833 -40 -37.5 -56s-34 -28.5 -55 -37.5s-43.5 -13.5 -67.5 -13.5s-46.5 4.5 -67.5 13.5s-39.333 21.5 -55 37.5
s-28.167 34.667 -37.5 56s-14 44 -14 68c0 24.667 4.66699 47.5 14 68.5s22 39.333 38 55s34.5 28 55.5 37s43.167 13.5 66.5 13.5zM258 654c14.667 0 28.3311 2.83203 40.998 8.49902s23.834 13.334 33.501 23.001s17.334 21 23.001 34s8.5 26.833 8.5 41.5
s-2.83301 28.5 -8.5 41.5s-13.334 24.333 -23.001 34s-21 17.167 -34 22.5s-26.5 8 -40.5 8c-13.333 0 -26.333 -2.5 -39 -7.5s-23.834 -12.167 -33.501 -21.5s-17.5 -20.5 -23.5 -33.5s-9 -27.5 -9 -43.5s2.83301 -30.5 8.5 -43.5s13.334 -24.333 23.001 -34
s20.834 -17 33.501 -22s26 -7.5 40 -7.5z" />
    <glyph glyph-name="plusminus" unicode="&#xb1;" horiz-adv-x="753" 
d="M683 430h-253v-253h-106v253h-253v105h253v253h106v-253h253v-105zM683 0h-612v106h612v-106z" />
    <glyph glyph-name="twosuperior" unicode="&#xb2;" horiz-adv-x="430" 
d="M407 462h-392.001c10 69.333 64.667 133.666 164 192.999c27.333 16.667 49.333 31 66 43s29.5 23 38.5 33s14.833 19.667 17.5 29s4 19.333 4 30c0 46.667 -28.667 70 -86 70c-54.667 0 -86.334 -20.333 -95.001 -61h-96c18 90.667 82.333 136 193 136
c59.333 0 104.833 -13 136.5 -39s47.5 -59 47.5 -99c0 -18.667 -2.33301 -35.667 -7 -51s-12.167 -29.666 -22.5 -42.999s-23.833 -26.5 -40.5 -39.5s-37 -26.5 -61 -40.5c-25.333 -15.333 -47.166 -30 -65.499 -44s-34.166 -27.667 -47.499 -41h246v-76z" />
    <glyph glyph-name="threesuperior" unicode="&#xb3;" horiz-adv-x="430" 
d="M298 709c72 -13.333 108 -51 108 -113c0 -20.667 -4.33301 -39.834 -13 -57.501s-21.334 -33 -38.001 -46s-36.667 -23.333 -60 -31s-49.666 -11.5 -78.999 -11.5c-118 0 -183 45.333 -195 136h97c5.33301 -41.333 36.333 -62 93 -62c64.667 0 97 28 97 84
c0 42.667 -33 64 -99 64h-35v70c74.667 0 112 22.333 112 67c0 35.333 -25 53 -75 53c-48 0 -75.333 -17.333 -82 -52h-98c16 83.333 76 125 180 125c56.667 0 99.667 -11.167 129 -33.5s44 -50.166 44 -83.499c0 -56.667 -28.667 -93 -86 -109z" />
    <glyph glyph-name="acute" unicode="&#xb4;" horiz-adv-x="430" 
d="M375 939l-139 -177h-93l84 177h148z" />
    <glyph glyph-name="mu" unicode="&#xb5;" 
d="M703 -13c-7.33301 -2 -18.332 -3 -32.999 -3c-84 0 -136 35.333 -156 106c-56.667 -70.667 -123.334 -106 -200.001 -106c-40 0 -76.333 10.333 -109 31l2 -272h-119v926h119v-455c0 -87.333 43.667 -131 131 -131c16.667 0 32 1.5 46 4.5s27.667 8.5 41 16.5
s27 18.833 41 32.5s29 31.5 45 53.5v479h118v-518c0 -45.333 18 -68 54 -68c9.33301 0 16 0.666992 20 2v-98z" />
    <glyph glyph-name="paragraph" unicode="&#xb6;" horiz-adv-x="693" 
d="M696 831l-90.001 0.000976562v-1088h-106v1088h-142v-1088h-105v658c-40.667 2.66699 -76.834 11 -108.501 25s-58.167 32.167 -79.5 54.5s-37.666 48.666 -48.999 78.999s-17 63.166 -17 98.499c0 42 6.83301 79.333 20.5 112s33.334 60.334 59.001 83.001s57 40 94 52
s78.5 18 124.5 18h399v-92z" />
    <glyph glyph-name="periodcentered" unicode="&#xb7;" horiz-adv-x="358" 
d="M244 389h-129v130h129v-130z" />
    <glyph glyph-name="cedilla" unicode="&#xb8;" horiz-adv-x="430" 
d="M234 -48c70.667 -8.66699 106.001 -42 106.001 -100c0 -82 -64 -123 -192 -123c-18.667 0 -40 1 -64 3v73c11.333 -1.33301 22.666 -2.33301 33.999 -3s23 -1 35 -1c54 0 81 17.333 81 52c0 32 -29.333 48 -88 48v99h88v-48z" />
    <glyph glyph-name="onesuperior" unicode="&#xb9;" horiz-adv-x="430" 
d="M299 462h-91v309c-28.667 -20.667 -76 -31 -142 -31v78c110 0 165 39 165 117h68v-473z" />
    <glyph glyph-name="ordmasculine" unicode="&#xba;" horiz-adv-x="471" 
d="M236 939c30.667 0 58.834 -5.33496 84.501 -16.002s47.667 -26.167 66 -46.5s32.5 -45.166 42.5 -74.499s15 -62.333 15 -99c0 -37.333 -5 -70.666 -15 -99.999s-24.167 -54.166 -42.5 -74.499s-40.333 -35.833 -66 -46.5s-53.834 -16 -84.501 -16
s-58.834 5.33301 -84.501 16s-47.667 26 -66 46s-32.5 44.667 -42.5 74s-15 63 -15 101c0 36.667 5 69.667 15 99s24.167 54.166 42.5 74.499s40.333 35.833 66 46.5s53.834 16 84.501 16zM236 548.998c75.333 0 113 51.333 113 154c0 101.333 -37.667 152 -113 152
s-113 -50.667 -113 -152c0 -102.667 37.667 -154 113 -154zM422 325.998h-372v74h372v-74z" />
    <glyph glyph-name="guillemotright" unicode="&#xbb;" 
d="M628 333l-200 -287h-93l165 287l-165 287h93zM382 333l-200 -287h-93l164 287l-164 287h93z" />
    <glyph glyph-name="onequarter" unicode="&#xbc;" horiz-adv-x="1076" 
d="M312 935v-473h-91v309c-28.667 -20.667 -75.667 -31 -141 -31v78c109.333 0 164 39 164 117h68zM903 923l-657 -923h-99l656 923h100zM1018 97h-66v-97h-90v97h-242v77l255 299h77v-294h66v-82zM862 179v178l-153 -178h153z" />
    <glyph glyph-name="onehalf" unicode="&#xbd;" horiz-adv-x="1076" 
d="M312 935v-473h-91v309c-28.667 -20.667 -75.667 -31 -141 -31v78c109.333 0 164 39 164 117h68zM903 923l-657 -923h-99l656 923h100zM1039 0l-391.001 0.00292969c8.66699 69.333 62.667 133.666 162 192.999c28 16 50.333 30.167 67 42.5s29.5 23.5 38.5 33.5
s14.833 19.667 17.5 29s4 19.666 4 30.999c0 46.667 -28.667 70 -86 70c-54 0 -85.667 -20.667 -95 -62h-96c18 91.333 82.333 137 193 137c56.667 0 101.5 -12.833 134.5 -38.5s49.5 -59.167 49.5 -100.5c0 -19.333 -2.33301 -36.5 -7 -51.5s-12.167 -29.167 -22.5 -42.5
s-24 -26.333 -41 -39s-37.5 -26.334 -61.5 -41.001c-24.667 -15.333 -46.167 -29.833 -64.5 -43.5s-34.166 -27.5 -47.499 -41.5h246v-76z" />
    <glyph glyph-name="threequarters" unicode="&#xbe;" horiz-adv-x="1076" 
d="M311 709c72 -13.333 108.003 -51 108.003 -113c0 -21.333 -4.5 -40.833 -13.5 -58.5s-21.833 -33 -38.5 -46s-36.834 -23.167 -60.501 -30.5s-49.834 -11 -78.501 -11c-117.333 0 -182 45.333 -194 136h97c5.33301 -41.333 36.333 -62 93 -62c64.667 0 97 28 97 84
c0 42.667 -33 64 -99 64h-36v70c75.333 0 113 22.333 113 67c0 35.333 -25.333 53 -76 53c-48 0 -75.333 -17.333 -82 -52h-98c17.333 83.333 77.666 125 180.999 125c56 0 98.833 -11.5 128.5 -34.5s44.5 -50.5 44.5 -82.5c0 -56.667 -28.667 -93 -86 -109zM938.003 923
l-657 -923h-99l657 923h99zM1018 97h-66v-97h-90v97h-242v77l255 299h77v-294h66v-82zM862.003 179v178l-153 -178h153z" />
    <glyph glyph-name="questiondown" unicode="&#xbf;" 
d="M658 -4c-3.33301 -40.667 -13.0029 -77.499 -29.0029 -110.499s-37 -61 -63 -84s-56.667 -40.833 -92 -53.5s-74 -19 -116 -19c-43.333 0 -83.166 6.16699 -119.499 18.5s-67.5 29.666 -93.5 51.999s-46.333 48.833 -61 79.5s-22 64.334 -22 101.001
c0 21.333 2.16699 41.333 6.5 60s11.5 37.167 21.5 55.5s23.667 36.833 41 55.5s39 39 65 61c26.667 22.667 47.5 41.667 62.5 57s26.167 30.666 33.5 45.999s11.833 32.666 13.5 51.999s2.5 44 2.5 74h111c0 -78.667 -9 -136 -27 -172
c-9.33301 -18 -22.333 -36.5 -39 -55.5s-36.667 -38.833 -60 -59.5c-23.333 -20 -42.166 -37.333 -56.499 -52s-25.333 -28.167 -33 -40.5s-12.667 -24.166 -15 -35.499s-3.5 -23.666 -3.5 -36.999c0 -25.333 4.5 -48.333 13.5 -69s21.333 -38.334 37 -53.001
s33.834 -26 54.501 -34s43 -12 67 -12c102 0 161.333 58.333 178 175h123zM424.997 539.001h-130v130h130v-130z" />
    <glyph glyph-name="Agrave" unicode="&#xc0;" horiz-adv-x="860" 
d="M581 378l-162 428l-156 -428h318zM862 0h-138l-107 281h-387l-102 -281h-129l355 923h131zM486 1022h-93l-139 177h149z" />
    <glyph glyph-name="Aacute" unicode="&#xc1;" horiz-adv-x="860" 
d="M581 378l-162 428l-156 -428h318zM862 0h-138l-107 281h-387l-102 -281h-129l355 923h131zM578 1199l-139 -177h-93l84 177h148z" />
    <glyph glyph-name="Acircumflex" unicode="&#xc2;" horiz-adv-x="860" 
d="M581 378l-162 428l-156 -428h318zM862 0h-138l-107 281h-387l-102 -281h-129l355 923h131zM620 1022h-128l-72 107l-71 -107h-128l139 177h121z" />
    <glyph glyph-name="Atilde" unicode="&#xc3;" horiz-adv-x="860" 
d="M581 378l-162 428l-156 -428h318zM862 0h-138l-107 281h-387l-102 -281h-129l355 923h131zM636 1145c0 -45.333 -11.833 -80.667 -35.5 -106s-54.167 -38 -91.5 -38c-8.66699 0 -21.5 2.83301 -38.5 8.5l-52 18l-48.5 18c-14.667 5.66699 -24 8.5 -28 8.5
c-26 0 -41 -18.333 -45 -55h-83c0 44 12 79 36 105s54.667 39 92 39c10 0 23.5 -2.66699 40.5 -8s34.333 -11.333 52 -18l47.5 -18c14 -5.33301 23 -8 27 -8c26 0 41 18 45 54h82z" />
    <glyph glyph-name="Adieresis" unicode="&#xc4;" horiz-adv-x="860" 
d="M581 378l-162 428l-156 -428h318zM862 0h-138l-107 281h-387l-102 -281h-129l355 923h131zM594 1048h-115v129h115v-129zM361 1048h-116v129h116v-129z" />
    <glyph glyph-name="Aring" unicode="&#xc5;" horiz-adv-x="860" 
d="M581 378l-162 428l-156 -428h318zM862 0h-138l-107 281h-387l-102 -281h-129l355 923h131zM533 1037c0 -16 -3 -31.001 -9 -45.001s-14.167 -26 -24.5 -36s-22.333 -18 -36 -24s-28.167 -9 -43.5 -9c-16 0 -30.833 3 -44.5 9s-25.5 14.167 -35.5 24.5s-18 22.5 -24 36.5
s-9 28.667 -9 44s3 29.833 9 43.5s14 25.834 24 36.501s21.833 19 35.5 25s28.5 9 44.5 9c15.333 0 29.833 -3 43.5 -9s25.667 -14.167 36 -24.5s18.5 -22.333 24.5 -36s9 -28.5 9 -44.5zM488 1037c0 20 -7.33301 36.334 -22 49.001s-30 19 -46 19
c-18 0 -33.5 -6.5 -46.5 -19.5s-19.5 -29.167 -19.5 -48.5s6.33301 -35.666 19 -48.999s28.334 -20 47.001 -20c8.66699 0 17.167 1.83301 25.5 5.5s15.666 8.66699 21.999 15s11.333 13.666 15 21.999s5.5 17.166 5.5 26.499z" />
    <glyph glyph-name="AE" unicode="&#xc6;" horiz-adv-x="1290" 
d="M1219 0h-604v267h-326l-148 -267h-141l532 923h666v-109h-460v-282h424v-110h-424v-312h481v-110zM615 375v439h-26l-240 -439h266z" />
    <glyph glyph-name="Ccedilla" unicode="&#xc7;" horiz-adv-x="932" 
d="M866 644l-126 -0.00195312c-3.33301 28.667 -11.5 54.667 -24.5 78s-30.167 43.333 -51.5 60s-46.666 29.5 -75.999 38.5s-61.666 13.5 -96.999 13.5c-47.333 0 -89.833 -8.33301 -127.5 -25s-69.5 -41 -95.5 -73s-46 -71 -60 -117s-21 -98.333 -21 -157
c0 -60 7 -113.167 21 -159.5s34.167 -85.333 60.5 -117s58.166 -55.667 95.499 -72s79 -24.5 125 -24.5c75.333 0 134.5 18 177.5 54s67.5 86 73.5 150h126c-4.66699 -50 -17.334 -94.167 -38.001 -132.5s-47.5 -70.666 -80.5 -96.999s-71.5 -46.166 -115.5 -59.499
s-91.333 -20 -142 -20c-65.333 0 -124.5 11.167 -177.5 33.5s-98.167 54.333 -135.5 96s-66.166 91.834 -86.499 150.501s-30.5 124.667 -30.5 198c0 72.667 10.167 138.5 30.5 197.5s49.166 109.167 86.499 150.5s82.5 73.166 135.5 95.499s112.167 33.5 177.5 33.5
c50 0 96.833 -7.16699 140.5 -21.5s82.167 -34.333 115.5 -60s60.5 -56.667 81.5 -93s33.833 -76.5 38.5 -120.5zM517 -48.002c70.667 -8.66699 106.001 -42 106.001 -100c0 -82 -64 -123 -192 -123c-18.667 0 -40 1 -64 3v73c11.333 -1.33301 22.666 -2.33301 33.999 -3
s23 -1 35 -1c54 0 81 17.333 81 52c0 32 -29.333 48 -88 48v99h88v-48z" />
    <glyph glyph-name="Egrave" unicode="&#xc8;" horiz-adv-x="860" 
d="M792 0h-688v923h667v-109h-546v-282h510v-110h-510v-312h567v-110zM512 1022h-93l-139 177h149z" />
    <glyph glyph-name="Eacute" unicode="&#xc9;" horiz-adv-x="860" 
d="M792 0h-688v923h667v-109h-546v-282h510v-110h-510v-312h567v-110zM591 1199l-139 -177h-93l84 177h148z" />
    <glyph glyph-name="Ecircumflex" unicode="&#xca;" horiz-adv-x="860" 
d="M792 0h-688v923h667v-109h-546v-282h510v-110h-510v-312h567v-110zM645 1022h-128l-72 107l-71 -107h-128l139 177h121z" />
    <glyph glyph-name="Edieresis" unicode="&#xcb;" horiz-adv-x="860" 
d="M792 0h-688v923h667v-109h-546v-282h510v-110h-510v-312h567v-110zM618 1048h-115v129h115v-129zM385 1048h-116v129h116v-129z" />
    <glyph glyph-name="Igrave" unicode="&#xcc;" horiz-adv-x="358" 
d="M242 0h-124v923h124v-923zM253 1022h-93l-139 177h149z" />
    <glyph glyph-name="Iacute" unicode="&#xcd;" horiz-adv-x="358" 
d="M242 0h-124v923h124v-923zM325 1199l-139 -177h-93l84 177h148z" />
    <glyph glyph-name="Icircumflex" unicode="&#xce;" horiz-adv-x="358" 
d="M242 0h-124v923h124v-923zM380 1022h-128l-72 107l-71 -107h-128l139 177h121z" />
    <glyph glyph-name="Idieresis" unicode="&#xcf;" horiz-adv-x="358" 
d="M355 1048h-115v129h115v-129zM122 1048h-116v129h116v-129zM242 0h-124v923h124v-923z" />
    <glyph glyph-name="Eth" unicode="&#xd0;" horiz-adv-x="932" 
d="M104 923h292c314 0 471 -152 471 -456c0 -311.333 -157 -467 -471 -467h-292v407h-103v110h103v406zM225 110l167.999 -0.000976562c69.333 0 126.5 8.33301 171.5 25s80.5 40.334 106.5 71.001s44.167 68 54.5 112s15.5 93.667 15.5 149
c0 54 -5.16699 102.333 -15.5 145s-28.666 79 -54.999 109s-62 53 -107 69s-101.833 24 -170.5 24h-168v-297h252v-110h-252v-297z" />
    <glyph glyph-name="Ntilde" unicode="&#xd1;" horiz-adv-x="932" 
d="M828 0h-125l-484 729v-729h-115v923h124l484 -728v728h116v-923zM691 1185c0 -45.333 -11.833 -80.667 -35.5 -106s-54.167 -38 -91.5 -38c-8.66699 0 -21.5 2.83301 -38.5 8.5l-52 18l-48.5 18c-14.667 5.66699 -24 8.5 -28 8.5c-26 0 -41 -18.333 -45 -55h-83
c0 44 12 79 36 105s54.667 39 92 39c10 0 23.5 -2.66699 40.5 -8s34.333 -11.333 52 -18l47.5 -18c14 -5.33301 23 -8 27 -8c26 0 41 18 45 54h82z" />
    <glyph glyph-name="Ograve" unicode="&#xd2;" horiz-adv-x="1004" 
d="M503 939c64.667 0 124 -11.3281 178 -33.9951s100.5 -54.834 139.5 -96.501s69.333 -91.834 91 -150.501s32.5 -124 32.5 -196c0 -72.667 -11 -138.334 -33 -197.001s-52.5 -108.834 -91.5 -150.501s-85.5 -73.834 -139.5 -96.501s-113 -34 -177 -34
c-64.667 0 -124 11.5 -178 34.5s-100.667 55.5 -140 97.5s-70 92.333 -92 151s-33 123.667 -33 195c0 70 10.667 134.333 32 193s51.5 109 90.5 151s85.667 74.667 140 98s114.5 35 180.5 35zM502 89.0049c46.667 0 89.498 8.66797 128.498 26.001s72.333 42.166 100 74.499
s49.167 71.5 64.5 117.5s23 97.667 23 155c0 58 -7.66699 110 -23 156s-36.833 85 -64.5 117s-60.667 56.5 -99 73.5s-80.5 25.5 -126.5 25.5c-46.667 0 -89.5 -8.33301 -128.5 -25s-72.5 -41 -100.5 -73s-49.833 -71 -65.5 -117s-23.5 -98.333 -23.5 -157
c0 -58 7.83301 -110 23.5 -156s37.334 -85.167 65.001 -117.5s60.834 -57 99.501 -74s81 -25.5 127 -25.5zM589.998 1022.01h-93l-139 177h149z" />
    <glyph glyph-name="Oacute" unicode="&#xd3;" horiz-adv-x="1004" 
d="M503 939c64.667 0 124 -11.3281 178 -33.9951s100.5 -54.834 139.5 -96.501s69.333 -91.834 91 -150.501s32.5 -124 32.5 -196c0 -72.667 -11 -138.334 -33 -197.001s-52.5 -108.834 -91.5 -150.501s-85.5 -73.834 -139.5 -96.501s-113 -34 -177 -34
c-64.667 0 -124 11.5 -178 34.5s-100.667 55.5 -140 97.5s-70 92.333 -92 151s-33 123.667 -33 195c0 70 10.667 134.333 32 193s51.5 109 90.5 151s85.667 74.667 140 98s114.5 35 180.5 35zM502 89.0049c46.667 0 89.498 8.66797 128.498 26.001s72.333 42.166 100 74.499
s49.167 71.5 64.5 117.5s23 97.667 23 155c0 58 -7.66699 110 -23 156s-36.833 85 -64.5 117s-60.667 56.5 -99 73.5s-80.5 25.5 -126.5 25.5c-46.667 0 -89.5 -8.33301 -128.5 -25s-72.5 -41 -100.5 -73s-49.833 -71 -65.5 -117s-23.5 -98.333 -23.5 -157
c0 -58 7.83301 -110 23.5 -156s37.334 -85.167 65.001 -117.5s60.834 -57 99.501 -74s81 -25.5 127 -25.5zM662.998 1199.01l-139 -177h-93l84 177h148z" />
    <glyph glyph-name="Ocircumflex" unicode="&#xd4;" horiz-adv-x="1004" 
d="M503 939c64.667 0 124 -11.3281 178 -33.9951s100.5 -54.834 139.5 -96.501s69.333 -91.834 91 -150.501s32.5 -124 32.5 -196c0 -72.667 -11 -138.334 -33 -197.001s-52.5 -108.834 -91.5 -150.501s-85.5 -73.834 -139.5 -96.501s-113 -34 -177 -34
c-64.667 0 -124 11.5 -178 34.5s-100.667 55.5 -140 97.5s-70 92.333 -92 151s-33 123.667 -33 195c0 70 10.667 134.333 32 193s51.5 109 90.5 151s85.667 74.667 140 98s114.5 35 180.5 35zM502 89.0049c46.667 0 89.498 8.66797 128.498 26.001s72.333 42.166 100 74.499
s49.167 71.5 64.5 117.5s23 97.667 23 155c0 58 -7.66699 110 -23 156s-36.833 85 -64.5 117s-60.667 56.5 -99 73.5s-80.5 25.5 -126.5 25.5c-46.667 0 -89.5 -8.33301 -128.5 -25s-72.5 -41 -100.5 -73s-49.833 -71 -65.5 -117s-23.5 -98.333 -23.5 -157
c0 -58 7.83301 -110 23.5 -156s37.334 -85.167 65.001 -117.5s60.834 -57 99.501 -74s81 -25.5 127 -25.5zM701.998 1022.01h-128l-72 107l-71 -107h-128l139 177h121z" />
    <glyph glyph-name="Otilde" unicode="&#xd5;" horiz-adv-x="1004" 
d="M503 939c64.667 0 124 -11.3281 178 -33.9951s100.5 -54.834 139.5 -96.501s69.333 -91.834 91 -150.501s32.5 -124 32.5 -196c0 -72.667 -11 -138.334 -33 -197.001s-52.5 -108.834 -91.5 -150.501s-85.5 -73.834 -139.5 -96.501s-113 -34 -177 -34
c-64.667 0 -124 11.5 -178 34.5s-100.667 55.5 -140 97.5s-70 92.333 -92 151s-33 123.667 -33 195c0 70 10.667 134.333 32 193s51.5 109 90.5 151s85.667 74.667 140 98s114.5 35 180.5 35zM502 89.0049c46.667 0 89.498 8.66797 128.498 26.001s72.333 42.166 100 74.499
s49.167 71.5 64.5 117.5s23 97.667 23 155c0 58 -7.66699 110 -23 156s-36.833 85 -64.5 117s-60.667 56.5 -99 73.5s-80.5 25.5 -126.5 25.5c-46.667 0 -89.5 -8.33301 -128.5 -25s-72.5 -41 -100.5 -73s-49.833 -71 -65.5 -117s-23.5 -98.333 -23.5 -157
c0 -58 7.83301 -110 23.5 -156s37.334 -85.167 65.001 -117.5s60.834 -57 99.501 -74s81 -25.5 127 -25.5zM711.998 1185.01c0 -45.333 -11.833 -80.667 -35.5 -106s-54.167 -38 -91.5 -38c-8.66699 0 -21.5 2.83301 -38.5 8.5l-52 18l-48.5 18
c-14.667 5.66699 -24 8.5 -28 8.5c-26 0 -41 -18.333 -45 -55h-83c0 44 12 79 36 105s54.667 39 92 39c10 0 23.5 -2.66699 40.5 -8s34.333 -11.333 52 -18l47.5 -18c14 -5.33301 23 -8 27 -8c26 0 41 18 45 54h82z" />
    <glyph glyph-name="Odieresis" unicode="&#xd6;" horiz-adv-x="1004" 
d="M503 939c64.667 0 124 -11.3281 178 -33.9951s100.5 -54.834 139.5 -96.501s69.333 -91.834 91 -150.501s32.5 -124 32.5 -196c0 -72.667 -11 -138.334 -33 -197.001s-52.5 -108.834 -91.5 -150.501s-85.5 -73.834 -139.5 -96.501s-113 -34 -177 -34
c-64.667 0 -124 11.5 -178 34.5s-100.667 55.5 -140 97.5s-70 92.333 -92 151s-33 123.667 -33 195c0 70 10.667 134.333 32 193s51.5 109 90.5 151s85.667 74.667 140 98s114.5 35 180.5 35zM502 89.0049c46.667 0 89.498 8.66797 128.498 26.001s72.333 42.166 100 74.499
s49.167 71.5 64.5 117.5s23 97.667 23 155c0 58 -7.66699 110 -23 156s-36.833 85 -64.5 117s-60.667 56.5 -99 73.5s-80.5 25.5 -126.5 25.5c-46.667 0 -89.5 -8.33301 -128.5 -25s-72.5 -41 -100.5 -73s-49.833 -71 -65.5 -117s-23.5 -98.333 -23.5 -157
c0 -58 7.83301 -110 23.5 -156s37.334 -85.167 65.001 -117.5s60.834 -57 99.501 -74s81 -25.5 127 -25.5zM676.998 1048.01h-115v129h115v-129zM443.998 1048.01h-116v129h116v-129z" />
    <glyph glyph-name="multiply" unicode="&#xd7;" horiz-adv-x="753" 
d="M649 258l-75 -75l-197 198l-198 -198l-75 75l198 198l-198 196l75 75l198 -196l197 196l75 -75l-197 -196z" />
    <glyph glyph-name="Oslash" unicode="&#xd8;" horiz-adv-x="1004" 
d="M955 906l-111 -123.996c66.667 -84.667 100 -191.334 100 -320.001c0 -72.667 -11 -138.334 -33 -197.001s-52.5 -108.834 -91.5 -150.501s-85.5 -73.834 -139.5 -96.501s-113 -34 -177 -34c-109.333 0 -204 33 -284 99l-106 -118l-63 53l111 123
c-67.333 89.333 -101 196.333 -101 321c0 70 10.667 134.333 32 193s51.5 109 90.5 151s85.667 74.667 140 98s114.5 35 180.5 35c111.333 0 205.333 -32.667 282 -98l106 118zM709 756.004c-54 52 -122 78.001 -204 78.001c-46.667 0 -89.5 -8.33301 -128.5 -25
s-72.5 -41 -100.5 -73s-49.833 -71 -65.5 -117s-23.5 -98.333 -23.5 -157c0 -92.667 18.333 -169.334 55 -230.001zM295 167.005c56.667 -52 125.667 -77.999 207 -77.999c46.667 0 89.5 8.66699 128.5 26s72.333 42.166 100 74.499s49.167 71.5 64.5 117.5
s23 97.667 23 155c0 90 -18.667 166.667 -56 230z" />
    <glyph glyph-name="Ugrave" unicode="&#xd9;" horiz-adv-x="932" 
d="M466 -16c-54.667 0 -101.664 5.33301 -140.997 16s-72.333 25.334 -99 44.001s-48 40.834 -64 66.501s-28.333 53.5 -37 83.5s-14.334 61.5 -17.001 94.5s-4 66.5 -4 100.5v534h121v-532c0 -61.333 5.16699 -111.333 15.5 -150s25.666 -68.834 45.999 -90.501
s45.5 -36.334 75.5 -44.001s64.667 -11.5 104 -11.5c38.667 0 73 4 103 12s55.167 22.833 75.5 44.5s35.666 51.667 45.999 90s15.5 88.166 15.5 149.499v532h122v-534c0 -63.333 -5.5 -120.166 -16.5 -170.499s-30.167 -92.833 -57.5 -127.5s-64.333 -61.167 -111 -79.5
s-105.667 -27.5 -177 -27.5zM542.003 1022h-93l-139 177h149z" />
    <glyph glyph-name="Uacute" unicode="&#xda;" horiz-adv-x="932" 
d="M466 -16c-54.667 0 -101.664 5.33301 -140.997 16s-72.333 25.334 -99 44.001s-48 40.834 -64 66.501s-28.333 53.5 -37 83.5s-14.334 61.5 -17.001 94.5s-4 66.5 -4 100.5v534h121v-532c0 -61.333 5.16699 -111.333 15.5 -150s25.666 -68.834 45.999 -90.501
s45.5 -36.334 75.5 -44.001s64.667 -11.5 104 -11.5c38.667 0 73 4 103 12s55.167 22.833 75.5 44.5s35.666 51.667 45.999 90s15.5 88.166 15.5 149.499v532h122v-534c0 -63.333 -5.5 -120.166 -16.5 -170.499s-30.167 -92.833 -57.5 -127.5s-64.333 -61.167 -111 -79.5
s-105.667 -27.5 -177 -27.5zM627.003 1199l-139 -177h-93l84 177h148z" />
    <glyph glyph-name="Ucircumflex" unicode="&#xdb;" horiz-adv-x="932" 
d="M466 -16c-54.667 0 -101.664 5.33301 -140.997 16s-72.333 25.334 -99 44.001s-48 40.834 -64 66.501s-28.333 53.5 -37 83.5s-14.334 61.5 -17.001 94.5s-4 66.5 -4 100.5v534h121v-532c0 -61.333 5.16699 -111.333 15.5 -150s25.666 -68.834 45.999 -90.501
s45.5 -36.334 75.5 -44.001s64.667 -11.5 104 -11.5c38.667 0 73 4 103 12s55.167 22.833 75.5 44.5s35.666 51.667 45.999 90s15.5 88.166 15.5 149.499v532h122v-534c0 -63.333 -5.5 -120.166 -16.5 -170.499s-30.167 -92.833 -57.5 -127.5s-64.333 -61.167 -111 -79.5
s-105.667 -27.5 -177 -27.5zM664.003 1022h-128l-72 107l-71 -107h-128l139 177h121z" />
    <glyph glyph-name="Udieresis" unicode="&#xdc;" horiz-adv-x="932" 
d="M466 -16c-54.667 0 -101.664 5.33301 -140.997 16s-72.333 25.334 -99 44.001s-48 40.834 -64 66.501s-28.333 53.5 -37 83.5s-14.334 61.5 -17.001 94.5s-4 66.5 -4 100.5v534h121v-532c0 -61.333 5.16699 -111.333 15.5 -150s25.666 -68.834 45.999 -90.501
s45.5 -36.334 75.5 -44.001s64.667 -11.5 104 -11.5c38.667 0 73 4 103 12s55.167 22.833 75.5 44.5s35.666 51.667 45.999 90s15.5 88.166 15.5 149.499v532h122v-534c0 -63.333 -5.5 -120.166 -16.5 -170.499s-30.167 -92.833 -57.5 -127.5s-64.333 -61.167 -111 -79.5
s-105.667 -27.5 -177 -27.5zM589.003 1048h-115v129h115v-129zM356.003 1048h-116v129h116v-129z" />
    <glyph glyph-name="Yacute" unicode="&#xdd;" horiz-adv-x="860" 
d="M854 923l-363 -532v-391h-122v391l-363 532h149l276 -425l275 425h148zM591 1159l-139 -177h-93l84 177h148z" />
    <glyph glyph-name="Thorn" unicode="&#xde;" horiz-adv-x="860" 
d="M225 742h222.998c37.333 0 71.833 -1.33301 103.5 -4s60.334 -8.16699 86.001 -16.5s48.667 -19.833 69 -34.5s37.833 -34 52.5 -58c14.667 -23.333 25.834 -48 33.501 -74s11.5 -53.333 11.5 -82c0 -94.667 -29.167 -166 -87.5 -214s-144.5 -72 -258.5 -72h-233v-187
h-121v923h121v-181zM224.998 297l234 0.00292969c79.333 0 135.5 14.667 168.5 44s49.5 71.666 49.5 126.999c0 18.667 -2.5 36.5 -7.5 53.5s-12 32.167 -21 45.5s-19.333 24.666 -31 33.999s-24.5 15.666 -38.5 18.999c-26 8.66699 -67 13 -123 13h-231v-336z" />
    <glyph glyph-name="germandbls" unicode="&#xdf;" horiz-adv-x="788" 
d="M88 0l0.000976562 628.997c0 206.667 91 310 273 310c36.667 0 69.667 -4.66699 99 -14s54.166 -22.166 74.499 -38.499s35.833 -35.5 46.5 -57.5s16 -45.333 16 -70c0 -41.333 -21.667 -100.666 -65 -177.999c-20 -36 -30 -62.333 -30 -79
c0 -10 1.16699 -18.667 3.5 -26s7.5 -15 15.5 -23s19.833 -17.333 35.5 -28l62.5 -42c24.667 -16.667 45.167 -32.5 61.5 -47.5s29.166 -30 38.499 -45s16 -30.167 20 -45.5s6 -31.666 6 -48.999c0 -29.333 -5.66699 -57 -17 -83s-27.333 -48.5 -48 -67.5s-45 -34 -73 -45
s-59 -16.5 -93 -16.5c-30 0 -58.333 4 -85 12s-50 19.5 -70 34.5s-36.167 33.167 -48.5 54.5s-19.166 45 -20.499 71h114c6.66699 -52 42.667 -78 108 -78c33.333 0 60.666 10.167 81.999 30.5s32 46.5 32 78.5c0 14.667 -1.5 27 -4.5 37s-8.5 19.5 -16.5 28.5
s-19.167 18.5 -33.5 28.5l-54.5 37c-43.333 27.333 -76.5 53 -99.5 77s-34.5 53.667 -34.5 89c0 28.667 15.667 70.667 47 126c36.667 66.667 55 112.334 55 137.001c0 28 -11.667 51.5 -35 70.5s-54 28.5 -92 28.5c-22 0 -42.333 -3 -61 -9s-34.667 -17.333 -48 -34
s-23.666 -39.334 -30.999 -68.001s-11 -65.667 -11 -111v-624h-119z" />
    <glyph glyph-name="agrave" unicode="&#xe0;" 
d="M511 176v148h-81c-172 0 -258 -47 -258 -141c0 -34 12.333 -60 37 -78s59 -27 103 -27c19.333 0 38.5 2.16699 57.5 6.5s37.167 10.833 54.5 19.5s33.5 19 48.5 31s27.833 25.667 38.5 41zM511 69c-61.333 -56.667 -139.334 -85.001 -234.001 -85.001
c-32.667 0 -63 4.66699 -91 14s-52.167 22.5 -72.5 39.5s-36.166 37.333 -47.499 61s-17 49.834 -17 78.501c0 156.667 134.667 235 404 235h58c0 30.667 -1.33301 57.334 -4 80.001s-9.16699 41.334 -19.5 56.001s-26.166 25.5 -47.499 32.5s-51 10.5 -89 10.5
c-106.667 0 -161.334 -38 -164.001 -114h-118c9.33301 137.333 105.333 206 288 206c42.667 0 80.834 -3.5 114.501 -10.5s62.167 -19.833 85.5 -38.5s41.166 -44.334 53.499 -77.001s18.5 -74.334 18.5 -125.001v-432h-118v69zM425.999 761.999h-93l-139 177h149z" />
    <glyph glyph-name="aacute" unicode="&#xe1;" 
d="M511 176v148h-81c-172 0 -258 -47 -258 -141c0 -34 12.333 -60 37 -78s59 -27 103 -27c19.333 0 38.5 2.16699 57.5 6.5s37.167 10.833 54.5 19.5s33.5 19 48.5 31s27.833 25.667 38.5 41zM511 69c-61.333 -56.667 -139.334 -85.001 -234.001 -85.001
c-32.667 0 -63 4.66699 -91 14s-52.167 22.5 -72.5 39.5s-36.166 37.333 -47.499 61s-17 49.834 -17 78.501c0 156.667 134.667 235 404 235h58c0 30.667 -1.33301 57.334 -4 80.001s-9.16699 41.334 -19.5 56.001s-26.166 25.5 -47.499 32.5s-51 10.5 -89 10.5
c-106.667 0 -161.334 -38 -164.001 -114h-118c9.33301 137.333 105.333 206 288 206c42.667 0 80.834 -3.5 114.501 -10.5s62.167 -19.833 85.5 -38.5s41.166 -44.334 53.499 -77.001s18.5 -74.334 18.5 -125.001v-432h-118v69zM519.999 938.999l-139 -177h-93l84 177h148z
" />
    <glyph glyph-name="acircumflex" unicode="&#xe2;" 
d="M511 176v148h-81c-172 0 -258 -47 -258 -141c0 -34 12.333 -60 37 -78s59 -27 103 -27c19.333 0 38.5 2.16699 57.5 6.5s37.167 10.833 54.5 19.5s33.5 19 48.5 31s27.833 25.667 38.5 41zM511 69c-61.333 -56.667 -139.334 -85.001 -234.001 -85.001
c-32.667 0 -63 4.66699 -91 14s-52.167 22.5 -72.5 39.5s-36.166 37.333 -47.499 61s-17 49.834 -17 78.501c0 156.667 134.667 235 404 235h58c0 30.667 -1.33301 57.334 -4 80.001s-9.16699 41.334 -19.5 56.001s-26.166 25.5 -47.499 32.5s-51 10.5 -89 10.5
c-106.667 0 -161.334 -38 -164.001 -114h-118c9.33301 137.333 105.333 206 288 206c42.667 0 80.834 -3.5 114.501 -10.5s62.167 -19.833 85.5 -38.5s41.166 -44.334 53.499 -77.001s18.5 -74.334 18.5 -125.001v-432h-118v69zM557.999 761.999h-128l-72 107l-71 -107h-128
l139 177h121z" />
    <glyph glyph-name="atilde" unicode="&#xe3;" 
d="M511 176v148h-81c-172 0 -258 -47 -258 -141c0 -34 12.333 -60 37 -78s59 -27 103 -27c19.333 0 38.5 2.16699 57.5 6.5s37.167 10.833 54.5 19.5s33.5 19 48.5 31s27.833 25.667 38.5 41zM511 69c-61.333 -56.667 -139.334 -85.001 -234.001 -85.001
c-32.667 0 -63 4.66699 -91 14s-52.167 22.5 -72.5 39.5s-36.166 37.333 -47.499 61s-17 49.834 -17 78.501c0 156.667 134.667 235 404 235h58c0 30.667 -1.33301 57.334 -4 80.001s-9.16699 41.334 -19.5 56.001s-26.166 25.5 -47.499 32.5s-51 10.5 -89 10.5
c-106.667 0 -161.334 -38 -164.001 -114h-118c9.33301 137.333 105.333 206 288 206c42.667 0 80.834 -3.5 114.501 -10.5s62.167 -19.833 85.5 -38.5s41.166 -44.334 53.499 -77.001s18.5 -74.334 18.5 -125.001v-432h-118v69zM566.999 924.999
c0 -45.333 -11.833 -80.667 -35.5 -106s-54.167 -38 -91.5 -38c-8.66699 0 -21.5 2.83301 -38.5 8.5l-52 18l-48.5 18c-14.667 5.66699 -24 8.5 -28 8.5c-26 0 -41 -18.333 -45 -55h-83c0 44 12 79 36 105s54.667 39 92 39c10 0 23.5 -2.66699 40.5 -8
s34.333 -11.333 52 -18l47.5 -18c14 -5.33301 23 -8 27 -8c26 0 41 18 45 54h82z" />
    <glyph glyph-name="adieresis" unicode="&#xe4;" 
d="M511 176v148h-81c-172 0 -258 -47 -258 -141c0 -34 12.333 -60 37 -78s59 -27 103 -27c19.333 0 38.5 2.16699 57.5 6.5s37.167 10.833 54.5 19.5s33.5 19 48.5 31s27.833 25.667 38.5 41zM511 69c-61.333 -56.667 -139.334 -85.001 -234.001 -85.001
c-32.667 0 -63 4.66699 -91 14s-52.167 22.5 -72.5 39.5s-36.166 37.333 -47.499 61s-17 49.834 -17 78.501c0 156.667 134.667 235 404 235h58c0 30.667 -1.33301 57.334 -4 80.001s-9.16699 41.334 -19.5 56.001s-26.166 25.5 -47.499 32.5s-51 10.5 -89 10.5
c-106.667 0 -161.334 -38 -164.001 -114h-118c9.33301 137.333 105.333 206 288 206c42.667 0 80.834 -3.5 114.501 -10.5s62.167 -19.833 85.5 -38.5s41.166 -44.334 53.499 -77.001s18.5 -74.334 18.5 -125.001v-432h-118v69zM533.999 787.999h-115v129h115v-129z
M300.999 787.999h-116v129h116v-129z" />
    <glyph glyph-name="aring" unicode="&#xe5;" 
d="M511 176v148h-81c-172 0 -258 -47 -258 -141c0 -34 12.333 -60 37 -78s59 -27 103 -27c19.333 0 38.5 2.16699 57.5 6.5s37.167 10.833 54.5 19.5s33.5 19 48.5 31s27.833 25.667 38.5 41zM511 69c-61.333 -56.667 -139.334 -85.001 -234.001 -85.001
c-32.667 0 -63 4.66699 -91 14s-52.167 22.5 -72.5 39.5s-36.166 37.333 -47.499 61s-17 49.834 -17 78.501c0 156.667 134.667 235 404 235h58c0 30.667 -1.33301 57.334 -4 80.001s-9.16699 41.334 -19.5 56.001s-26.166 25.5 -47.499 32.5s-51 10.5 -89 10.5
c-106.667 0 -161.334 -38 -164.001 -114h-118c9.33301 137.333 105.333 206 288 206c42.667 0 80.834 -3.5 114.501 -10.5s62.167 -19.833 85.5 -38.5s41.166 -44.334 53.499 -77.001s18.5 -74.334 18.5 -125.001v-432h-118v69zM359.999 969.999c15.333 0 29.833 -3 43.5 -9
s25.667 -14.167 36 -24.5s18.5 -22.5 24.5 -36.5s9 -29 9 -45s-3 -30.833 -9 -44.5s-14.167 -25.667 -24.5 -36s-22.333 -18.5 -36 -24.5s-28.167 -9 -43.5 -9c-16 0 -30.833 3 -44.5 9s-25.667 14.167 -36 24.5s-18.5 22.333 -24.5 36s-9 28.5 -9 44.5s3 31 9 45
s14.167 26.167 24.5 36.5s22.333 18.5 36 24.5s28.5 9 44.5 9zM359.999 786.999c8 0 15.832 1.66699 23.499 5s14.834 8 21.501 14s12 13.167 16 21.5s6 17.5 6 27.5c0 18 -6.83301 33.833 -20.5 47.5s-29.167 20.5 -46.5 20.5c-16.667 0 -32 -6 -46 -18
s-21 -28.667 -21 -50c0 -20.667 7 -37.167 21 -49.5s29.333 -18.5 46 -18.5z" />
    <glyph glyph-name="ae" unicode="&#xe6;" horiz-adv-x="1147" 
d="M498 276l-0.000976562 48.001h-81c-163.333 0 -245 -47 -245 -141c0 -70 44.333 -105 133 -105c28.667 0 54.834 4.16699 78.501 12.5s44 20.666 61 36.999s30.167 36.833 39.5 61.5s14 53.667 14 87zM548.999 113.001c-12 -19.333 -25.498 -36.833 -40.498 -52.5
s-33.333 -29.167 -55 -40.5s-47.334 -20.166 -77.001 -26.499s-64.834 -9.5 -105.501 -9.5c-32.667 0 -62.667 4.66699 -90 14s-50.666 22.333 -69.999 39s-34.5 36.834 -45.5 60.501s-16.5 50.167 -16.5 79.5c0 156.667 130.333 235 391 235h58c0 26 -1.16699 50 -3.5 72
s-8.5 41 -18.5 57s-25.333 28.333 -46 37s-49.334 13 -86.001 13c-98.667 0 -151 -38 -157 -114h-118c9.33301 137.333 103.333 206 282 206c114 0 190.667 -28 230 -84c54.667 56 126 84 214 84c48 0 90.833 -7.83301 128.5 -23.5s69.834 -38.5 96.501 -68.5
s47 -66.667 61 -110s21 -92.333 21 -147v-29h-485c4 -73.333 22.833 -129.5 56.5 -168.5s78.5 -58.5 134.5 -58.5c20 0 39.5 2.66699 58.5 8s35.667 13.166 50 23.499s26 23 35 38s14.167 32.5 15.5 52.5h122c-4.66699 -34.667 -14.834 -65.334 -30.501 -92.001
s-35.834 -49.167 -60.501 -67.5s-53.167 -32.333 -85.5 -42s-67.166 -14.5 -104.499 -14.5c-116 0 -202.333 43 -259 129zM977.001 399.001c-20 128 -80.667 192 -182 192c-100 0 -158.333 -64 -175 -192h357z" />
    <glyph glyph-name="ccedilla" unicode="&#xe7;" horiz-adv-x="645" 
d="M358 -16c-46 0 -88.165 7.50293 -126.498 22.5029s-71.333 37.333 -99 67s-49 66.167 -64 109.5s-22.5 93.666 -22.5 150.999c0 56.667 7.5 106.834 22.5 150.501s36.333 80.167 64 109.5s60.667 51.5 99 66.5s80.5 22.5 126.5 22.5c38 0 72.667 -5 104 -15
s58.666 -24.167 81.999 -42.5s42.166 -40.833 56.499 -67.5s23.5 -56.667 27.5 -90h-122c-1.33301 20 -6.16602 37.667 -14.499 53s-19.166 28.166 -32.499 38.499s-28.833 18.166 -46.5 23.499s-35.834 8 -54.501 8c-28.667 0 -54.667 -5.66699 -78 -17
s-43.333 -27.833 -60 -49.5s-29.667 -48.5 -39 -80.5s-14 -68.667 -14 -110c0 -83.333 17.167 -146.833 51.5 -190.5s80.833 -65.5 139.5 -65.5c18.667 0 36.834 2.33301 54.501 7s33.167 12 46.5 22s24.166 22.667 32.499 38s13.166 33.666 14.499 54.999h122
c-4 -35.333 -13.667 -66.5 -29 -93.5s-35 -49.5 -59 -67.5s-51.5 -31.667 -82.5 -41s-64.167 -14 -99.5 -14zM394.002 -47.9971c70.667 -8.66699 106.001 -42 106.001 -100c0 -82 -64 -123 -192 -123c-18.667 0 -40 1 -64 3v73c11.333 -1.33301 22.666 -2.33301 33.999 -3
s23 -1 35 -1c54 0 81 17.333 81 52c0 32 -29.333 48 -88 48v99h88v-48z" />
    <glyph glyph-name="egrave" unicode="&#xe8;" 
d="M372 -16c-48.667 0 -92.998 7.83496 -132.998 23.502s-74.333 38.334 -103 68.001s-50.834 66.167 -66.501 109.5s-23.5 93 -23.5 149c0 54.667 7.66699 103.667 23 147s36.833 80 64.5 110s60.5 52.833 98.5 68.5s80 23.5 126 23.5c48 0 91.333 -7.83301 130 -23.5
s71.667 -38.334 99 -68.001s48.333 -66.167 63 -109.5s22 -92.666 22 -147.999v-29h-503c2.66699 -39.333 9.66699 -73.333 21 -102s26 -52.334 44 -71.001s38.833 -32.334 62.5 -41.001s48.834 -13 75.501 -13c20 0 39.667 2.5 59 7.5s36.666 12.667 51.999 23
s27.833 23.166 37.5 38.499s15.167 33 16.5 53h122c-4.66699 -35.333 -15.334 -66.5 -32.001 -93.5s-37.667 -49.5 -63 -67.5s-54.5 -31.667 -87.5 -41s-67.833 -14 -104.5 -14zM547.002 399.002c-10 64.667 -31.5029 112.834 -64.5029 144.501s-74.5 47.5 -124.5 47.5
c-23.333 0 -45.166 -3.83301 -65.499 -11.5s-38.666 -19.334 -54.999 -35.001s-30.166 -35.667 -41.499 -60s-19.333 -52.833 -24 -85.5h375zM430.999 762.002h-93l-139 177h149z" />
    <glyph glyph-name="eacute" unicode="&#xe9;" 
d="M372 -16c-48.667 0 -92.998 7.83496 -132.998 23.502s-74.333 38.334 -103 68.001s-50.834 66.167 -66.501 109.5s-23.5 93 -23.5 149c0 54.667 7.66699 103.667 23 147s36.833 80 64.5 110s60.5 52.833 98.5 68.5s80 23.5 126 23.5c48 0 91.333 -7.83301 130 -23.5
s71.667 -38.334 99 -68.001s48.333 -66.167 63 -109.5s22 -92.666 22 -147.999v-29h-503c2.66699 -39.333 9.66699 -73.333 21 -102s26 -52.334 44 -71.001s38.833 -32.334 62.5 -41.001s48.834 -13 75.501 -13c20 0 39.667 2.5 59 7.5s36.666 12.667 51.999 23
s27.833 23.166 37.5 38.499s15.167 33 16.5 53h122c-4.66699 -35.333 -15.334 -66.5 -32.001 -93.5s-37.667 -49.5 -63 -67.5s-54.5 -31.667 -87.5 -41s-67.833 -14 -104.5 -14zM547.002 399.002c-10 64.667 -31.5029 112.834 -64.5029 144.501s-74.5 47.5 -124.5 47.5
c-23.333 0 -45.166 -3.83301 -65.499 -11.5s-38.666 -19.334 -54.999 -35.001s-30.166 -35.667 -41.499 -60s-19.333 -52.833 -24 -85.5h375zM519.999 939.002l-139 -177h-93l84 177h148z" />
    <glyph glyph-name="ecircumflex" unicode="&#xea;" 
d="M372 -16c-48.667 0 -92.998 7.83496 -132.998 23.502s-74.333 38.334 -103 68.001s-50.834 66.167 -66.501 109.5s-23.5 93 -23.5 149c0 54.667 7.66699 103.667 23 147s36.833 80 64.5 110s60.5 52.833 98.5 68.5s80 23.5 126 23.5c48 0 91.333 -7.83301 130 -23.5
s71.667 -38.334 99 -68.001s48.333 -66.167 63 -109.5s22 -92.666 22 -147.999v-29h-503c2.66699 -39.333 9.66699 -73.333 21 -102s26 -52.334 44 -71.001s38.833 -32.334 62.5 -41.001s48.834 -13 75.501 -13c20 0 39.667 2.5 59 7.5s36.666 12.667 51.999 23
s27.833 23.166 37.5 38.499s15.167 33 16.5 53h122c-4.66699 -35.333 -15.334 -66.5 -32.001 -93.5s-37.667 -49.5 -63 -67.5s-54.5 -31.667 -87.5 -41s-67.833 -14 -104.5 -14zM547.002 399.002c-10 64.667 -31.5029 112.834 -64.5029 144.501s-74.5 47.5 -124.5 47.5
c-23.333 0 -45.166 -3.83301 -65.499 -11.5s-38.666 -19.334 -54.999 -35.001s-30.166 -35.667 -41.499 -60s-19.333 -52.833 -24 -85.5h375zM557.999 762.002h-128l-72 107l-71 -107h-128l139 177h121z" />
    <glyph glyph-name="edieresis" unicode="&#xeb;" 
d="M372 -16c-48.667 0 -92.998 7.83496 -132.998 23.502s-74.333 38.334 -103 68.001s-50.834 66.167 -66.501 109.5s-23.5 93 -23.5 149c0 54.667 7.66699 103.667 23 147s36.833 80 64.5 110s60.5 52.833 98.5 68.5s80 23.5 126 23.5c48 0 91.333 -7.83301 130 -23.5
s71.667 -38.334 99 -68.001s48.333 -66.167 63 -109.5s22 -92.666 22 -147.999v-29h-503c2.66699 -39.333 9.66699 -73.333 21 -102s26 -52.334 44 -71.001s38.833 -32.334 62.5 -41.001s48.834 -13 75.501 -13c20 0 39.667 2.5 59 7.5s36.666 12.667 51.999 23
s27.833 23.166 37.5 38.499s15.167 33 16.5 53h122c-4.66699 -35.333 -15.334 -66.5 -32.001 -93.5s-37.667 -49.5 -63 -67.5s-54.5 -31.667 -87.5 -41s-67.833 -14 -104.5 -14zM547.002 399.002c-10 64.667 -31.5029 112.834 -64.5029 144.501s-74.5 47.5 -124.5 47.5
c-23.333 0 -45.166 -3.83301 -65.499 -11.5s-38.666 -19.334 -54.999 -35.001s-30.166 -35.667 -41.499 -60s-19.333 -52.833 -24 -85.5h375zM533.999 788.002h-115v129h115v-129zM300.999 788.002h-116v129h116v-129z" />
    <glyph glyph-name="igrave" unicode="&#xec;" horiz-adv-x="294" 
d="M207 0h-119v669h119v-669zM220 762h-93l-140 177h149z" />
    <glyph glyph-name="iacute" unicode="&#xed;" horiz-adv-x="294" 
d="M207 0h-119v669h119v-669zM309 939l-140 -177h-93l84 177h149z" />
    <glyph glyph-name="icircumflex" unicode="&#xee;" horiz-adv-x="294" 
d="M207 0h-119v669h119v-669zM347 762h-129l-71 107l-71 -107h-129l139 177h121z" />
    <glyph glyph-name="idieresis" unicode="&#xef;" horiz-adv-x="294" 
d="M207 0h-119v669h119v-669zM323 788h-116v129h116v-129zM90 788h-117v129h117v-129z" />
    <glyph glyph-name="eth" unicode="&#xf0;" 
d="M466 809c36.667 -42.667 68.1631 -83.6689 94.4961 -123.002s47.5 -78 63.5 -116c16.667 -38 28.834 -77.167 36.501 -117.5s11.5 -82.5 11.5 -126.5c0 -55.333 -7.66699 -104.166 -23 -146.499s-36.833 -78 -64.5 -107s-60.667 -51 -99 -66s-80.833 -22.5 -127.5 -22.5
c-45.333 0 -87.166 7.33301 -125.499 22s-71.333 36.334 -99 65.001s-49.167 64.334 -64.5 107.001s-23 92 -23 148c0 56.667 7.83301 106.5 23.5 149.5s37.5 78.833 65.5 107.5s61 50.167 99 64.5s79.333 21.5 124 21.5c38 0 71.667 -8 101 -24
c-21.333 45.333 -48.666 86.666 -81.999 123.999l-154 -71l-32 61l135 62c-17.333 16.667 -36.666 33.5 -57.999 50.5s-45.333 34.167 -72 51.5h137l49 -37.5c13.333 -10.333 23.333 -18.833 30 -25.5l135 63l33 -60zM357.996 77.998c28 0 53.832 5.16699 77.499 15.5
s43.834 25.833 60.501 46.5s29.667 46.5 39 77.5s14 67.167 14 108.5c0 42 -4.66699 78.5 -14 109.5s-22.5 56.833 -39.5 77.5s-37.167 36.167 -60.5 46.5s-49 15.5 -77 15.5s-53.667 -5.33301 -77 -16s-43.5 -26.5 -60.5 -47.5s-30.167 -47 -39.5 -78
s-14 -66.833 -14 -107.5c0 -79.333 17.167 -140.5 51.5 -183.5s80.833 -64.5 139.5 -64.5z" />
    <glyph glyph-name="ntilde" unicode="&#xf1;" 
d="M207 583c58.667 66.667 125 100 199 100c151.333 0 227 -81.667 227 -245v-438h-120v432c0 54.667 -9.66699 94 -29 118s-51.333 36 -96 36c-60.667 0 -121 -35.667 -181 -107v-479h-119v669h119v-86zM568 925c0 -45.333 -11.833 -80.667 -35.5 -106
s-54.167 -38 -91.5 -38c-8.66699 0 -21.5 2.83301 -38.5 8.5l-52 18l-48.5 18c-14.667 5.66699 -24 8.5 -28 8.5c-26 0 -41 -18.333 -45 -55h-83c0 44 12 79 36 105s54.667 39 92 39c10 0 23.5 -2.66699 40.5 -8s34.333 -11.333 52 -18l47.5 -18c14 -5.33301 23 -8 27 -8
c26 0 41 18 45 54h82z" />
    <glyph glyph-name="ograve" unicode="&#xf2;" 
d="M358 683c48 0 91.333 -7.83398 130 -23.501s71.667 -38.334 99 -68.001s48.333 -66.167 63 -109.5s22 -92.666 22 -147.999c0 -57.333 -7.66699 -107.666 -23 -150.999s-36.833 -79.833 -64.5 -109.5s-60.667 -52 -99 -67s-80.833 -22.5 -127.5 -22.5
c-46 0 -88.167 7.5 -126.5 22.5s-71.333 37.333 -99 67s-49 66.167 -64 109.5s-22.5 93.666 -22.5 150.999c0 56.667 7.5 106.834 22.5 150.501s36.333 80.167 64 109.5s60.667 51.5 99 66.5s80.5 22.5 126.5 22.5zM358 77.999c58.667 0 105.167 21.5 139.5 64.5
s51.5 106.833 51.5 191.5c0 43.333 -4.66699 81 -14 113s-22.5 58.667 -39.5 80s-37.167 37.333 -60.5 48s-49 16 -77 16c-28.667 0 -54.667 -5.66699 -78 -17s-43.333 -27.833 -60 -49.5s-29.667 -48.5 -39 -80.5s-14 -68.667 -14 -110
c0 -83.333 17.167 -146.833 51.5 -190.5s80.833 -65.5 139.5 -65.5zM429 761.999h-93l-139 177h149z" />
    <glyph glyph-name="oacute" unicode="&#xf3;" 
d="M358 683c48 0 91.333 -7.83398 130 -23.501s71.667 -38.334 99 -68.001s48.333 -66.167 63 -109.5s22 -92.666 22 -147.999c0 -57.333 -7.66699 -107.666 -23 -150.999s-36.833 -79.833 -64.5 -109.5s-60.667 -52 -99 -67s-80.833 -22.5 -127.5 -22.5
c-46 0 -88.167 7.5 -126.5 22.5s-71.333 37.333 -99 67s-49 66.167 -64 109.5s-22.5 93.666 -22.5 150.999c0 56.667 7.5 106.834 22.5 150.501s36.333 80.167 64 109.5s60.667 51.5 99 66.5s80.5 22.5 126.5 22.5zM358 77.999c58.667 0 105.167 21.5 139.5 64.5
s51.5 106.833 51.5 191.5c0 43.333 -4.66699 81 -14 113s-22.5 58.667 -39.5 80s-37.167 37.333 -60.5 48s-49 16 -77 16c-28.667 0 -54.667 -5.66699 -78 -17s-43.333 -27.833 -60 -49.5s-29.667 -48.5 -39 -80.5s-14 -68.667 -14 -110
c0 -83.333 17.167 -146.833 51.5 -190.5s80.833 -65.5 139.5 -65.5zM520 938.999l-139 -177h-93l84 177h148z" />
    <glyph glyph-name="ocircumflex" unicode="&#xf4;" 
d="M358 683c48 0 91.333 -7.83398 130 -23.501s71.667 -38.334 99 -68.001s48.333 -66.167 63 -109.5s22 -92.666 22 -147.999c0 -57.333 -7.66699 -107.666 -23 -150.999s-36.833 -79.833 -64.5 -109.5s-60.667 -52 -99 -67s-80.833 -22.5 -127.5 -22.5
c-46 0 -88.167 7.5 -126.5 22.5s-71.333 37.333 -99 67s-49 66.167 -64 109.5s-22.5 93.666 -22.5 150.999c0 56.667 7.5 106.834 22.5 150.501s36.333 80.167 64 109.5s60.667 51.5 99 66.5s80.5 22.5 126.5 22.5zM358 77.999c58.667 0 105.167 21.5 139.5 64.5
s51.5 106.833 51.5 191.5c0 43.333 -4.66699 81 -14 113s-22.5 58.667 -39.5 80s-37.167 37.333 -60.5 48s-49 16 -77 16c-28.667 0 -54.667 -5.66699 -78 -17s-43.333 -27.833 -60 -49.5s-29.667 -48.5 -39 -80.5s-14 -68.667 -14 -110
c0 -83.333 17.167 -146.833 51.5 -190.5s80.833 -65.5 139.5 -65.5zM560 761.999h-128l-72 107l-71 -107h-128l139 177h121z" />
    <glyph glyph-name="otilde" unicode="&#xf5;" 
d="M358 683c48 0 91.333 -7.83398 130 -23.501s71.667 -38.334 99 -68.001s48.333 -66.167 63 -109.5s22 -92.666 22 -147.999c0 -57.333 -7.66699 -107.666 -23 -150.999s-36.833 -79.833 -64.5 -109.5s-60.667 -52 -99 -67s-80.833 -22.5 -127.5 -22.5
c-46 0 -88.167 7.5 -126.5 22.5s-71.333 37.333 -99 67s-49 66.167 -64 109.5s-22.5 93.666 -22.5 150.999c0 56.667 7.5 106.834 22.5 150.501s36.333 80.167 64 109.5s60.667 51.5 99 66.5s80.5 22.5 126.5 22.5zM358 77.999c58.667 0 105.167 21.5 139.5 64.5
s51.5 106.833 51.5 191.5c0 43.333 -4.66699 81 -14 113s-22.5 58.667 -39.5 80s-37.167 37.333 -60.5 48s-49 16 -77 16c-28.667 0 -54.667 -5.66699 -78 -17s-43.333 -27.833 -60 -49.5s-29.667 -48.5 -39 -80.5s-14 -68.667 -14 -110
c0 -83.333 17.167 -146.833 51.5 -190.5s80.833 -65.5 139.5 -65.5zM569 924.999c0 -45.333 -11.833 -80.667 -35.5 -106s-54.167 -38 -91.5 -38c-8.66699 0 -21.5 2.83301 -38.5 8.5l-52 18l-48.5 18c-14.667 5.66699 -24 8.5 -28 8.5c-26 0 -41 -18.333 -45 -55h-83
c0 44 12 79 36 105s54.667 39 92 39c10 0 23.5 -2.66699 40.5 -8s34.333 -11.333 52 -18l47.5 -18c14 -5.33301 23 -8 27 -8c26 0 41 18 45 54h82z" />
    <glyph glyph-name="odieresis" unicode="&#xf6;" 
d="M358 683c48 0 91.333 -7.83398 130 -23.501s71.667 -38.334 99 -68.001s48.333 -66.167 63 -109.5s22 -92.666 22 -147.999c0 -57.333 -7.66699 -107.666 -23 -150.999s-36.833 -79.833 -64.5 -109.5s-60.667 -52 -99 -67s-80.833 -22.5 -127.5 -22.5
c-46 0 -88.167 7.5 -126.5 22.5s-71.333 37.333 -99 67s-49 66.167 -64 109.5s-22.5 93.666 -22.5 150.999c0 56.667 7.5 106.834 22.5 150.501s36.333 80.167 64 109.5s60.667 51.5 99 66.5s80.5 22.5 126.5 22.5zM358 77.999c58.667 0 105.167 21.5 139.5 64.5
s51.5 106.833 51.5 191.5c0 43.333 -4.66699 81 -14 113s-22.5 58.667 -39.5 80s-37.167 37.333 -60.5 48s-49 16 -77 16c-28.667 0 -54.667 -5.66699 -78 -17s-43.333 -27.833 -60 -49.5s-29.667 -48.5 -39 -80.5s-14 -68.667 -14 -110
c0 -83.333 17.167 -146.833 51.5 -190.5s80.833 -65.5 139.5 -65.5zM534 787.999h-115v129h115v-129zM301 787.999h-116v129h116v-129z" />
    <glyph glyph-name="divide" unicode="&#xf7;" horiz-adv-x="753" 
d="M441 594h-129v128h129v-128zM683 403h-612v105h612v-105zM441 188h-129v130h129v-130z" />
    <glyph glyph-name="oslash" unicode="&#xf8;" 
d="M596 582c50.667 -62.667 76.001 -145.335 76.001 -248.002c0 -57.333 -7.66699 -107.666 -23 -150.999s-36.833 -79.833 -64.5 -109.5s-60.667 -52 -99 -67s-80.833 -22.5 -127.5 -22.5c-70 0 -130.333 17.333 -181 52l-64 -82l-59 46l42.5 52.5
c10.333 13 18.166 24.167 23.499 33.5c-49.333 61.333 -74 144 -74 248c0 56.667 7.5 106.834 22.5 150.501s36.333 80.167 64 109.5s60.667 51.5 99 66.5s80.5 22.5 126.5 22.5c70 0 130.667 -16.667 182 -50l63 82l61 -45zM476.001 547.999
c-33.333 28.667 -72.667 43 -118 43c-28.667 0 -54.667 -5.66699 -78 -17s-43.333 -27.833 -60 -49.5s-29.667 -48.5 -39 -80.5s-14 -68.667 -14 -110c0 -62.667 9.33301 -113 28 -151zM240 119.999c32 -28 71.333 -42 118 -42c58.667 0 105.167 21.5 139.5 64.5
s51.5 106.833 51.5 191.5c0 64 -9.33301 114.333 -28 151z" />
    <glyph glyph-name="ugrave" unicode="&#xf9;" 
d="M511 85c-59.333 -67.333 -125.667 -100.999 -199 -100.999c-151.333 0 -227 82.333 -227 247v438h119v-433c0 -54.667 9.66699 -93.834 29 -117.501s51.333 -35.5 96 -35.5c66 0 126.667 35.667 182 107v479h118v-669h-118v85zM432.999 762.001h-93l-139 177h149z" />
    <glyph glyph-name="uacute" unicode="&#xfa;" 
d="M511 85c-59.333 -67.333 -125.667 -100.999 -199 -100.999c-151.333 0 -227 82.333 -227 247v438h119v-433c0 -54.667 9.66699 -93.834 29 -117.501s51.333 -35.5 96 -35.5c66 0 126.667 35.667 182 107v479h118v-669h-118v85zM519.999 939.001l-139 -177h-93l84 177h148
z" />
    <glyph glyph-name="ucircumflex" unicode="&#xfb;" 
d="M511 85c-59.333 -67.333 -125.667 -100.999 -199 -100.999c-151.333 0 -227 82.333 -227 247v438h119v-433c0 -54.667 9.66699 -93.834 29 -117.501s51.333 -35.5 96 -35.5c66 0 126.667 35.667 182 107v479h118v-669h-118v85zM558.999 762.001h-128l-72 107l-71 -107
h-128l139 177h121z" />
    <glyph glyph-name="udieresis" unicode="&#xfc;" 
d="M511 85c-59.333 -67.333 -125.667 -100.999 -199 -100.999c-151.333 0 -227 82.333 -227 247v438h119v-433c0 -54.667 9.66699 -93.834 29 -117.501s51.333 -35.5 96 -35.5c66 0 126.667 35.667 182 107v479h118v-669h-118v85zM533.999 788.001h-115v129h115v-129z
M300.999 788.001h-116v129h116v-129z" />
    <glyph glyph-name="yacute" unicode="&#xfd;" horiz-adv-x="645" 
d="M125 -161c58.667 0 106.667 53.668 144 161.001l-252 669h129l177 -523l177 523h128l-253 -669c-17.333 -46 -33.666 -85.833 -48.999 -119.5s-31.5 -61.834 -48.5 -84.501s-36 -39.5 -57 -50.5s-45.833 -16.5 -74.5 -16.5c-30.667 0 -56.334 3 -77.001 9v109
c20 -5.33301 38.667 -8 56 -8zM484 939.001l-139 -177h-93l84 177h148z" />
    <glyph glyph-name="thorn" unicode="&#xfe;" 
d="M207 589c52.667 62.667 116.335 94 191.002 94c43.333 0 82 -8.16699 116 -24.5s62.667 -39.333 86 -69s41.166 -65.667 53.499 -108s18.5 -89.5 18.5 -141.5c0 -54 -7 -103 -21 -147s-33.667 -81.5 -59 -112.5s-55.333 -54.833 -90 -71.5s-72.334 -25 -113.001 -25
c-72 0 -132.667 22.667 -182 68v-309h-119v1180h119v-334zM207.001 159c50 -54 108.333 -81 175 -81c52 0 92.833 21.667 122.5 65s44.5 109 44.5 197c0 83.333 -14 146 -42 188s-68 63 -120 63c-65.333 0 -125.333 -38.333 -180 -115v-317z" />
    <glyph glyph-name="ydieresis" unicode="&#xff;" horiz-adv-x="645" 
d="M125 -161c58.667 0 106.667 53.668 144 161.001l-252 669h129l177 -523l177 523h128l-253 -669c-17.333 -46 -33.666 -85.833 -48.999 -119.5s-31.5 -61.834 -48.5 -84.501s-36 -39.5 -57 -50.5s-45.833 -16.5 -74.5 -16.5c-30.667 0 -56.334 3 -77.001 9v109
c20 -5.33301 38.667 -8 56 -8zM498 788.001h-115v129h115v-129zM265 788.001h-116v129h116v-129z" />
    <glyph glyph-name="OE" unicode="&#x152;" horiz-adv-x="1290" 
d="M1222 0l-517.997 -0.00195312v122c-13.333 -20.667 -29.5 -39.5 -48.5 -56.5s-39.833 -31.5 -62.5 -43.5s-46.5 -21.333 -71.5 -28s-49.833 -10 -74.5 -10c-61.333 0 -116 11.333 -164 34s-88.5 54.667 -121.5 96s-58.167 91.5 -75.5 150.5s-26 124.833 -26 197.5
s8.66699 138.334 26 197.001s42.666 108.834 75.999 150.501s73.833 73.667 121.5 96s102.167 33.5 163.5 33.5c24.667 0 49.5 -3.33301 74.5 -10s48.667 -16 71 -28s43.166 -26.333 62.499 -43s35.666 -35 48.999 -55v120h496v-109h-373v-282h338v-110h-338v-312h395v-110z
M445.003 88.998c172.667 0 258.999 124.331 258.999 372.998c0 248 -85.333 372 -256 372c-42 0 -79.333 -8.33301 -112 -25s-60 -41 -82 -73s-38.667 -71 -50 -117s-17 -98.333 -17 -157c0 -61.333 6 -115.166 18 -161.499s29.333 -85.166 52 -116.499
s49.834 -55 81.501 -71s67.167 -24 106.5 -24z" />
    <glyph glyph-name="oe" unicode="&#x153;" horiz-adv-x="1218" 
d="M1173 305l-502.999 -0.00195312c2 -37.333 8.5 -70.166 19.5 -98.499s25.333 -52 43 -71s38.334 -33.333 62.001 -43s49.5 -14.5 77.5 -14.5c20 0 39.833 2.66699 59.5 8s37.167 13 52.5 23s27.833 22.667 37.5 38s14.834 33 15.501 53h123
c-4.66699 -35.333 -15.334 -66.333 -32.001 -93s-37.834 -49.167 -63.501 -67.5s-55 -32.166 -88 -41.499s-67.833 -14 -104.5 -14c-113.333 0 -200.666 40.667 -261.999 122c-56 -81.333 -140 -122 -252 -122c-46 0 -88.167 7.5 -126.5 22.5s-71.333 37.333 -99 67
s-49 66.167 -64 109.5s-22.5 93.666 -22.5 150.999c0 56.667 7.5 106.834 22.5 150.501s36.333 80.167 64 109.5s60.667 51.5 99 66.5s80.5 22.5 126.5 22.5c112 0 196 -40 252 -120c58 80 141.333 120 250 120c47.333 0 90.166 -7.83301 128.499 -23.5
s71.166 -38.334 98.499 -68.001s48.5 -66.167 63.5 -109.5s22.5 -92.666 22.5 -147.999v-29zM1048 398.998c-10 64.667 -31.832 112.832 -65.499 144.499s-74.5 47.5 -122.5 47.5c-48.667 0 -89.334 -15.667 -122.001 -47s-54.667 -79.666 -66 -144.999h376z
M358.002 77.9961c58.667 0 105.167 21.5 139.5 64.5s51.5 106.833 51.5 191.5c0 43.333 -4.66699 81 -14 113s-22.5 58.667 -39.5 80s-37.167 37.333 -60.5 48s-49 16 -77 16c-28.667 0 -54.667 -5.66699 -78 -17s-43.333 -27.833 -60 -49.5s-29.667 -48.5 -39 -80.5
s-14 -68.667 -14 -110c0 -83.333 17.167 -146.833 51.5 -190.5s80.833 -65.5 139.5 -65.5z" />
    <glyph glyph-name="Scaron" unicode="&#x160;" horiz-adv-x="860" 
d="M452 -16c-66 0 -123.505 7.83691 -172.505 23.5039s-89.667 37.5 -122 65.5s-56.666 61.167 -72.999 99.5s-25.166 79.833 -26.499 124.5h118c2.66699 -34.667 11.5 -64.667 26.5 -90s34.5 -46.333 58.5 -63s51.833 -29 83.5 -37s65.834 -12 102.501 -12
c33.333 0 64 3.5 92 10.5s52 17.167 72 30.5s35.667 29.666 47 48.999s17 41.333 17 66c0 26 -5 47.833 -15 65.5s-26.5 33 -49.5 46s-52.833 24.833 -89.5 35.5s-81.667 21.667 -135 33c-54 11.333 -99.833 24.666 -137.5 39.999s-68.167 33.166 -91.5 53.499
s-40.333 43.5 -51 69.5s-16 55.667 -16 89c0 37.333 7.83301 71.666 23.5 102.999s37.667 58.333 66 81s62.833 40.334 103.5 53.001s86 19 136 19c52 0 99.167 -6.16699 141.5 -18.5s78.833 -30.333 109.5 -54s54.834 -52.667 72.501 -87s27.167 -73.5 28.5 -117.5h-119
c-11.333 112 -87.333 168 -228 168c-69.333 0 -122.5 -13 -159.5 -39s-55.5 -59.667 -55.5 -101c0 -19.333 3 -36 9 -50s17 -26.333 33 -37s37.833 -20.5 65.5 -29.5s62.834 -18.167 105.501 -27.5c42 -9.33301 79.167 -18.5 111.5 -27.5s60.5 -17.5 84.5 -25.5
c22.667 -8 44.5 -18.667 65.5 -32s39.667 -29.5 56 -48.5s29.5 -41 39.5 -66s15 -53.5 15 -85.5c0 -40 -8.5 -76.833 -25.5 -110.5s-40.5 -62.834 -70.5 -87.501s-66 -44 -108 -58s-88 -21 -138 -21zM615.995 1159l-139 -177h-121l-139 177h128l72 -107l71 107h128z" />
    <glyph glyph-name="scaron" unicode="&#x161;" horiz-adv-x="645" 
d="M326 -16c-182.667 0 -277.999 71.9961 -285.999 215.996h119c1.33301 -81.333 56.666 -122 165.999 -122c50 0 87.667 9.83301 113 29.5s38 45.5 38 77.5c0 14.667 -2.5 26.834 -7.5 36.501s-14.5 18.334 -28.5 26.001s-33.667 15.334 -59 23.001s-58.333 16.5 -99 26.5
c-40 10 -74.167 19.833 -102.5 29.5s-51.833 21.667 -70.5 36s-32.334 31.666 -41.001 51.999s-13 45.833 -13 76.5c0 28 5.83301 53.667 17.5 77s28.334 43.5 50.001 60.5s48 30.333 79 40s65.5 14.5 103.5 14.5c174.667 0 264 -62.333 268 -187h-119
c-4 63.333 -51.333 95 -142 95c-18.667 0 -36.334 -1.83301 -53.001 -5.5s-31.334 -9.16699 -44.001 -16.5s-22.667 -16.666 -30 -27.999s-11 -24.333 -11 -39c0 -13.333 1.33301 -24.166 4 -32.499s10 -16 22 -23s30.167 -14 54.5 -21s58.166 -15.833 101.499 -26.5
c40 -10 75 -20.167 105 -30.5s54.833 -23 74.5 -38s34.5 -33.167 44.5 -54.5s15 -48 15 -80c0 -29.333 -6.16699 -57 -18.5 -83s-30.166 -48.5 -53.499 -67.5s-51.666 -34 -84.999 -45s-70.666 -16.5 -111.999 -16.5zM496.001 938.996l-139 -177h-121l-139 177h128l72 -107
l71 107h128z" />
    <glyph glyph-name="Ydieresis" unicode="&#x178;" horiz-adv-x="860" 
d="M854 923l-363 -532v-391h-122v391l-363 532h149l276 -425l275 425h148zM603 1008h-115v129h115v-129zM370 1008h-116v129h116v-129z" />
    <glyph glyph-name="florin" unicode="&#x192;" 
d="M664 808c-17.333 4.66699 -33.832 8.16699 -49.499 10.5s-31.167 3.5 -46.5 3.5c-10 0 -19 -0.833008 -27 -2.5s-15.167 -6 -21.5 -13s-12 -17.167 -17 -30.5s-9.83301 -31.666 -14.5 -54.999l-13 -66h128l-14 -87h-130l-119 -675
c-10.667 -58 -29.5 -99.833 -56.5 -125.5s-64.833 -38.5 -113.5 -38.5c-44.667 0 -87.667 4.33301 -129 13v100c23.333 -4.66699 43.833 -8.16699 61.5 -10.5s32.5 -3.5 44.5 -3.5c14 0 25.5 1.66699 34.5 5s16.333 8.83301 22 16.5s10.167 17.667 13.5 30
s6.66602 27.5 9.99902 45.5l113 643h-127l14 87h128l14 86c6 37.333 14.167 68.166 24.5 92.499s23 43.5 38 57.5s32.167 23.667 51.5 29s41 8 65 8c22 0 42.667 -0.833008 62 -2.5s37.333 -4.16699 54 -7.5v-110z" />
    <glyph glyph-name="circumflex" unicode="&#x2c6;" horiz-adv-x="509" 
d="M454 762h-128l-72 107l-71 -107h-128l139 177h121z" />
    <glyph glyph-name="tilde" unicode="&#x2dc;" horiz-adv-x="532" 
d="M477 925c0 -45.333 -11.833 -80.667 -35.5 -106s-54.167 -38 -91.5 -38c-8.66699 0 -21.5 2.83301 -38.5 8.5l-52 18l-48.5 18c-14.667 5.66699 -24 8.5 -28 8.5c-26 0 -41 -18.333 -45 -55h-83c0 44 12 79 36 105s54.667 39 92 39c10 0 23.5 -2.66699 40.5 -8
s34.333 -11.333 52 -18l47.5 -18c14 -5.33301 23 -8 27 -8c26 0 41 18 45 54h82z" />
    <glyph glyph-name="ml_anusvara" unicode="&#xd02;" horiz-adv-x="840" 
d="M755 319c0 -45.333 -9.00195 -88.1699 -27.002 -128.503s-42.167 -75.666 -72.5 -105.999s-65.833 -54.5 -106.5 -72.5s-83.667 -27 -129 -27c-44.667 0 -87.167 8.83301 -127.5 26.5s-75.833 41.667 -106.5 72s-55.167 65.666 -73.5 105.999s-27.5 83.5 -27.5 129.5
c0 46.667 9 90.334 27 131.001s42.333 76.334 73 107.001s66.334 54.834 107.001 72.501s83.334 26.5 128.001 26.5c45.333 0 88.333 -9 129 -27s76.167 -42.333 106.5 -73s54.5 -66.5 72.5 -107.5s27 -84.167 27 -129.5zM635.998 318.996
c0 29.333 -5.83301 57.167 -17.5 83.5s-27.5 49.333 -47.5 69s-43 35.334 -69 47.001s-53.333 17.5 -82 17.5c-30 0 -58.167 -6 -84.5 -18s-49.333 -28 -69 -48s-35.167 -43.167 -46.5 -69.5s-17 -53.5 -17 -81.5s5.66699 -55 17 -81s26.833 -48.833 46.5 -68.5
s42.667 -35.334 69 -47.001s54.5 -17.5 84.5 -17.5c28.667 0 56 5.83301 82 17.5s49 27.167 69 46.5s35.833 42 47.5 68s17.5 53.333 17.5 82z" />
    <glyph glyph-name="ml_visarga" unicode="&#xd03;" horiz-adv-x="554" 
d="M469 746c0 -25.333 -5 -49.665 -15 -72.998s-23.667 -43.833 -41 -61.5s-37.666 -31.834 -60.999 -42.501s-48.333 -16 -75 -16c-26 0 -50.667 5.16699 -74 15.5s-43.666 24.333 -60.999 42s-31.166 38.167 -41.499 61.5s-15.5 48 -15.5 74s5.16699 50.5 15.5 73.5
s24.166 43.333 41.499 61s37.666 31.667 60.999 42s48 15.5 74 15.5c26.667 0 51.667 -5.33301 75 -16s43.666 -24.834 60.999 -42.501s31 -38 41 -61s15 -47.167 15 -72.5zM469 177.001c0 -25.333 -5 -49.4941 -15 -72.4941s-23.667 -43.333 -41 -61
s-37.666 -31.834 -60.999 -42.501s-48.333 -16 -75 -16c-26 0 -50.667 5.16699 -74 15.5s-43.666 24.166 -60.999 41.499s-31.166 37.666 -41.499 60.999s-15.5 48 -15.5 74s5.16699 50.667 15.5 74s24.166 43.666 41.499 60.999s37.666 31.166 60.999 41.499
s48 15.5 74 15.5c26.667 0 51.667 -5.33301 75 -16s43.666 -24.834 60.999 -42.501s31 -38 41 -61s15 -47.167 15 -72.5zM349 746.007c0 19.333 -7.16895 35.999 -21.502 49.999s-31.166 21 -50.499 21c-18.667 0 -35.334 -7.16699 -50.001 -21.5s-22 -30.833 -22 -49.5
c0 -19.333 7.33301 -36.166 22 -50.499s31.334 -21.5 50.001 -21.5c9.33301 0 18.333 2 27 6s16.334 9.16699 23.001 15.5s12 13.833 16 22.5s6 18 6 28zM348.998 177.006c0 19.333 -7.16699 36.166 -21.5 50.499s-31.166 21.5 -50.499 21.5
c-18.667 0 -35.334 -7.16699 -50.001 -21.5s-22 -31.166 -22 -50.499c0 -18.667 7.33301 -35.167 22 -49.5s31.334 -21.5 50.001 -21.5c19.333 0 36.166 7 50.499 21s21.5 30.667 21.5 50z" />
    <glyph glyph-name="ml_a" unicode="&#xd05;" horiz-adv-x="2108" 
d="M2023 415c0 -59.333 -7.50684 -114.999 -22.5068 -166.999s-36 -97.5 -63 -136.5s-59.5 -69.833 -97.5 -92.5s-80 -34 -126 -34c-40.667 0 -78.667 8.83301 -114 26.5s-66.166 41.334 -92.499 71.001s-47 64.167 -62 103.5s-22.5 80.666 -22.5 123.999
c0 49.333 10.5 97 31.5 143s48.833 86.5 83.5 121.5s74.334 63 119.001 84s91 31.5 139 31.5h14c4 0 8.33301 -0.333008 13 -1c-28 42.667 -62.5 74.667 -103.5 96s-82.833 32 -125.5 32c-41.333 0 -79.666 -10.167 -114.999 -30.5s-66.333 -47.666 -93 -81.999
s-47.5 -74.166 -62.5 -119.499s-22.5 -92.666 -22.5 -141.999v-443h-120v443c0 50 -5.66699 96 -17 138s-28 78.833 -50 110.5s-49 57.667 -81 78s-68.667 34.166 -110 41.499c46 -52.667 69 -116.667 69 -192c0 -34 -5.83301 -63.5 -17.5 -88.5s-31.167 -46.5 -58.5 -64.5
c16.667 -8 31.834 -19 45.501 -33s25.5 -30 35.5 -48s17.667 -37.167 23 -57.5s8 -40.5 8 -60.5c0 -38.667 -7.5 -75 -22.5 -109s-35.167 -63.833 -60.5 -89.5s-55.333 -46 -90 -61s-71.334 -22.5 -110.001 -22.5c-55.333 0 -106.666 12.167 -153.999 36.5
s-88.166 57.333 -122.499 99s-61.166 90.167 -80.499 145.5s-29 114 -29 176c0 39.333 3.83301 77.166 11.5 113.499s20.167 72.166 37.5 107.499c13.333 28 28.5 54 45.5 78s36.5 46.333 58.5 67c-45.333 -10 -86.833 -27.167 -124.5 -51.5s-70 -54 -97 -89
s-47.833 -74.5 -62.5 -118.5s-22 -91 -22 -141c0 -121.333 45.333 -225.666 136 -312.999l-73 -97c-122.667 100 -184 238.333 -184 415c0 75.333 13.333 145.166 40 209.499s63.5 119.833 110.5 166.5s102.333 83.167 166 109.5s132.834 39.5 207.501 39.5
c21.333 0 41.833 -1 61.5 -3s39.167 -5.66699 58.5 -11c18.667 4.66699 38.834 8.16699 60.501 10.5s43.167 3.5 64.5 3.5c85.333 0 160.166 -19 224.499 -57s117.5 -93.667 159.5 -167c14 31.333 33.667 60.666 59 87.999s53.833 51 85.5 71s65.167 35.833 100.5 47.5
s70 17.5 104 17.5c63.333 0 121.666 -13.833 174.999 -41.5s99.333 -65.334 138 -113.001s68.834 -103.167 90.501 -166.5s32.5 -130.666 32.5 -201.999zM908.993 253.001c0 20 -4.83594 38.667 -14.5029 56s-23.667 32.333 -42 45s-41 22.667 -68 30s-57.5 11 -91.5 11v121
c119.333 0 179 35.667 179 107c0 39.333 -13.167 74.333 -39.5 105s-62.166 53.667 -107.499 69c-37.333 -12 -71.166 -29.833 -101.499 -53.5s-56.166 -51.334 -77.499 -83.001s-37.833 -66.167 -49.5 -103.5s-17.5 -75.666 -17.5 -114.999
c0 -46 6.16699 -89.333 18.5 -130s29.833 -76.167 52.5 -106.5s50 -54.5 82 -72.5s67.667 -27 107 -27c22.667 0 44.167 3.83301 64.5 11.5s38.333 18.167 54 31.5s28.167 29 37.5 47s14 37 14 57zM1894.99 405.001c0 26 -1.49805 51.167 -4.49805 75.5
s-8.16699 47.5 -15.5 69.5c-11.333 3.33301 -23 6 -35 8s-25 3 -39 3c-33.333 0 -65.5 -7 -96.5 -21s-58.5 -32.5 -82.5 -55.5s-43.167 -49.667 -57.5 -80s-21.5 -61.833 -21.5 -94.5c0 -26 3.83301 -51.167 11.5 -75.5s18.5 -46 32.5 -65s30.333 -34.333 49 -46
s39 -17.5 61 -17.5c30 0 57.167 7.83301 81.5 23.5s45.166 37.167 62.499 64.5s30.666 59 39.999 95s14 74.667 14 116z" />
    <glyph glyph-name="ml_aa" unicode="&#xd06;" horiz-adv-x="2298" 
d="M2213 184c0 -72 -12.0068 -137.833 -36.0068 -197.5s-57.5 -111 -100.5 -154s-94.333 -76.5 -154 -100.5s-125.167 -36 -196.5 -36c-118.667 0 -222.667 37.667 -312 113l72 91c73.333 -55.333 155.333 -83 246 -83c52.667 0 101.334 9.33301 146.001 28
s83.167 44.834 115.5 78.501s57.666 73.5 75.999 119.5s27.5 96 27.5 150c0 82.667 -25 161.667 -75 237l1 -15c0 -59.333 -7.5 -115 -22.5 -167s-36 -97.5 -63 -136.5s-59.5 -69.833 -97.5 -92.5s-80 -34 -126 -34c-40.667 0 -78.667 8.83301 -114 26.5
s-66.166 41.334 -92.499 71.001s-47 64.167 -62 103.5s-22.5 80.666 -22.5 123.999c0 49.333 10.5 97 31.5 143s48.833 86.5 83.5 121.5s74.334 63 119.001 84s91 31.5 139 31.5h14c4 0 8.33301 -0.333008 13 -1c-28 42.667 -62.5 74.667 -103.5 96s-82.833 32 -125.5 32
c-41.333 0 -79.666 -10.167 -114.999 -30.5s-66.333 -47.666 -93 -81.999s-47.5 -74.166 -62.5 -119.499s-22.5 -92.666 -22.5 -141.999v-443h-120v443c0 50 -5.66699 96 -17 138s-28 78.833 -50 110.5s-49 57.667 -81 78s-68.667 34.166 -110 41.499
c46 -52.667 69 -116.667 69 -192c0 -34 -5.83301 -63.5 -17.5 -88.5s-31.167 -46.5 -58.5 -64.5c16.667 -8 31.834 -19 45.501 -33s25.5 -30 35.5 -48s17.667 -37.167 23 -57.5s8 -40.5 8 -60.5c0 -38.667 -7.5 -75 -22.5 -109s-35.167 -63.833 -60.5 -89.5
s-55.333 -46 -90 -61s-71.334 -22.5 -110.001 -22.5c-55.333 0 -106.666 12.167 -153.999 36.5s-88.166 57.333 -122.499 99s-61.166 90.167 -80.499 145.5s-29 114 -29 176c0 39.333 3.83301 77.166 11.5 113.499s20.167 72.166 37.5 107.499c13.333 28 28.5 54 45.5 78
s36.5 46.333 58.5 67c-45.333 -10 -86.833 -27.167 -124.5 -51.5s-70 -54 -97 -89s-47.833 -74.5 -62.5 -118.5s-22 -91 -22 -141c0 -121.333 45.333 -225.666 136 -312.999l-73 -97c-122.667 100 -184 238.333 -184 415c0 75.333 13.333 145.166 40 209.499
s63.5 119.833 110.5 166.5s102.333 83.167 166 109.5s132.834 39.5 207.501 39.5c21.333 0 41.833 -1 61.5 -3s39.167 -5.66699 58.5 -11c18.667 4.66699 38.834 8.16699 60.501 10.5s43.167 3.5 64.5 3.5c85.333 0 160.166 -19 224.499 -57s117.5 -93.667 159.5 -167
c14 31.333 33.667 60.666 59 87.999s53.833 51 85.5 71s65.167 35.833 100.5 47.5s70 17.5 104 17.5c46.667 0 90.5 -7.66699 131.5 -23s78.667 -36.5 113 -63.5s64.5 -59.5 90.5 -97.5s47.333 -79.333 64 -124c37.333 -24 70 -52.5 98 -85.5s51.5 -69 70.5 -108
s33.5 -80 43.5 -123s15 -86.167 15 -129.5zM908.993 253c0 20 -4.83594 38.667 -14.5029 56s-23.667 32.333 -42 45s-41 22.667 -68 30s-57.5 11 -91.5 11v121c119.333 0 179 35.667 179 107c0 39.333 -13.167 74.333 -39.5 105s-62.166 53.667 -107.499 69
c-37.333 -12 -71.166 -29.833 -101.499 -53.5s-56.166 -51.334 -77.499 -83.001s-37.833 -66.167 -49.5 -103.5s-17.5 -75.666 -17.5 -114.999c0 -46 6.16699 -89.333 18.5 -130s29.833 -76.167 52.5 -106.5s50 -54.5 82 -72.5s67.667 -27 107 -27
c22.667 0 44.167 3.83301 64.5 11.5s38.333 18.167 54 31.5s28.167 29 37.5 47s14 37 14 57zM1894.99 405c0 26 -1.49805 51.167 -4.49805 75.5s-8.16699 47.5 -15.5 69.5c-11.333 3.33301 -23 6 -35 8s-25 3 -39 3c-33.333 0 -65.5 -7 -96.5 -21s-58.5 -32.5 -82.5 -55.5
s-43.167 -49.667 -57.5 -80s-21.5 -61.833 -21.5 -94.5c0 -26 3.83301 -51.167 11.5 -75.5s18.5 -46 32.5 -65s30.333 -34.333 49 -46s39 -17.5 61 -17.5c30 0 57.167 7.83301 81.5 23.5s45.166 37.167 62.499 64.5s30.666 59 39.999 95s14 74.667 14 116z" />
    <glyph glyph-name="ml_i" unicode="&#xd07;" horiz-adv-x="1715" 
d="M1630 -328l-0.00488281 -120.001h-1298c-164.667 0 -247 62.667 -247 188c0 122.667 82.333 184 247 184h455c112.667 0 213.5 12.167 302.5 36.5s164.333 59.833 226 106.5s108.834 103.5 141.501 170.5s49 143.5 49 229.5c0 44 -6.66699 87 -20 129
s-31.5 79.333 -54.5 112s-50 59 -81 79s-63.833 30 -98.5 30c-38 0 -72.5 -10.833 -103.5 -32.5s-57.667 -50.334 -80 -86.001s-39.666 -76.667 -51.999 -123s-18.5 -94.5 -18.5 -144.5v-338h-123v338c0 80 -11 143 -33 189c-13.333 28 -31.166 54.167 -53.499 78.5
s-47.333 45.166 -75 62.499s-56.667 31 -87 41s-59.833 15 -88.5 15c-46.667 0 -90.167 -10.167 -130.5 -30.5s-75.5 -47.5 -105.5 -81.5s-53.5 -73.167 -70.5 -117.5s-25.5 -90.166 -25.5 -137.499c0 -36 3.83301 -71 11.5 -105s19.834 -63.667 36.501 -89
c2 30 9.33301 57.667 22 83s29.334 47.5 50.001 66.5s45.167 33.833 73.5 44.5s59.166 16 92.499 16c32.667 0 63.5 -6.33301 92.5 -19s54.5 -30 76.5 -52s39.333 -47.833 52 -77.5s19 -61.167 19 -94.5c0 -31.333 -6.66699 -61.333 -20 -90s-31.166 -54 -53.499 -76
s-48.166 -39.5 -77.499 -52.5s-60 -19.5 -92 -19.5c-58 0 -111.667 13.5 -161 40.5s-92 63.167 -128 108.5s-64.167 98.166 -84.5 158.499s-30.5 123.833 -30.5 190.5c0 58.667 12.667 115.5 38 170.5s59.333 103.5 102 145.5s91.667 75.667 147 101s113 38 173 38
c36.667 0 74.167 -5.83301 112.5 -17.5s74.833 -27.667 109.5 -48s66.5 -44.333 95.5 -72s52.833 -57.834 71.5 -90.501c14.667 32.667 33.167 62.834 55.5 90.501s47 51.667 74 72s55.333 36.333 85 48s59.167 17.5 88.5 17.5c60 0 114.167 -12.333 162.5 -37
s89.5 -58.167 123.5 -100.5s60.333 -92.166 79 -149.499s28 -118.666 28 -183.999c0 -103.333 -19.333 -195.833 -58 -277.5s-93.834 -151.167 -165.501 -208.5s-158.5 -101.166 -260.5 -131.499s-216.333 -45.5 -343 -45.5h-484c-31.333 0 -58 -5.83301 -80 -17.5
s-33 -27.167 -33 -46.5c0 -45.333 37.667 -68 113 -68h1311zM610.995 224.999c0 16 -3.16504 31.333 -9.49805 46s-15 27.5 -26 38.5s-23.667 19.667 -38 26s-29.5 9.5 -45.5 9.5s-31.333 -3.16699 -46 -9.5s-27.5 -15 -38.5 -26s-19.667 -23.833 -26 -38.5
s-9.5 -30 -9.5 -46c0 -42.667 4 -69 12 -79c11.333 -14 26.166 -24.167 44.499 -30.5s39.5 -9.5 63.5 -9.5c15.333 0 30.166 3.16699 44.499 9.5s27 14.833 38 25.5s19.833 23.167 26.5 37.5s10 29.833 10 46.5z" />
    <glyph glyph-name="ml_ii" unicode="&#xd08;" horiz-adv-x="2694" 
d="M1630 -328l-0.00488281 -120.001h-1298c-164.667 0 -247 62.667 -247 188c0 122.667 82.333 184 247 184h455c112.667 0 213.5 12.167 302.5 36.5s164.333 59.833 226 106.5s108.834 103.5 141.501 170.5s49 143.5 49 229.5c0 44 -6.66699 87 -20 129
s-31.5 79.333 -54.5 112s-50 59 -81 79s-63.833 30 -98.5 30c-38 0 -72.5 -10.833 -103.5 -32.5s-57.667 -50.334 -80 -86.001s-39.666 -76.667 -51.999 -123s-18.5 -94.5 -18.5 -144.5v-338h-123v338c0 80 -11 143 -33 189c-13.333 28 -31.166 54.167 -53.499 78.5
s-47.333 45.166 -75 62.499s-56.667 31 -87 41s-59.833 15 -88.5 15c-46.667 0 -90.167 -10.167 -130.5 -30.5s-75.5 -47.5 -105.5 -81.5s-53.5 -73.167 -70.5 -117.5s-25.5 -90.166 -25.5 -137.499c0 -36 3.83301 -71 11.5 -105s19.834 -63.667 36.501 -89
c2 30 9.33301 57.667 22 83s29.334 47.5 50.001 66.5s45.167 33.833 73.5 44.5s59.166 16 92.499 16c32.667 0 63.5 -6.33301 92.5 -19s54.5 -30 76.5 -52s39.333 -47.833 52 -77.5s19 -61.167 19 -94.5c0 -31.333 -6.66699 -61.333 -20 -90s-31.166 -54 -53.499 -76
s-48.166 -39.5 -77.499 -52.5s-60 -19.5 -92 -19.5c-58 0 -111.667 13.5 -161 40.5s-92 63.167 -128 108.5s-64.167 98.166 -84.5 158.499s-30.5 123.833 -30.5 190.5c0 58.667 12.667 115.5 38 170.5s59.333 103.5 102 145.5s91.667 75.667 147 101s113 38 173 38
c36.667 0 74.167 -5.83301 112.5 -17.5s74.833 -27.667 109.5 -48s66.5 -44.333 95.5 -72s52.833 -57.834 71.5 -90.501c14.667 32.667 33.167 62.834 55.5 90.501s47 51.667 74 72s55.333 36.333 85 48s59.167 17.5 88.5 17.5c60 0 114.167 -12.333 162.5 -37
s89.5 -58.167 123.5 -100.5s60.333 -92.166 79 -149.499s28 -118.666 28 -183.999c0 -103.333 -19.333 -195.833 -58 -277.5s-93.834 -151.167 -165.501 -208.5s-158.5 -101.166 -260.5 -131.499s-216.333 -45.5 -343 -45.5h-484c-31.333 0 -58 -5.83301 -80 -17.5
s-33 -27.167 -33 -46.5c0 -45.333 37.667 -68 113 -68h1311zM610.995 224.999c0 16 -3.16504 31.333 -9.49805 46s-15 27.5 -26 38.5s-23.667 19.667 -38 26s-29.5 9.5 -45.5 9.5s-31.333 -3.16699 -46 -9.5s-27.5 -15 -38.5 -26s-19.667 -23.833 -26 -38.5
s-9.5 -30 -9.5 -46c0 -42.667 4 -69 12 -79c11.333 -14 26.166 -24.167 44.499 -30.5s39.5 -9.5 63.5 -9.5c15.333 0 30.166 3.16699 44.499 9.5s27 14.833 38 25.5s19.833 23.167 26.5 37.5s10 29.833 10 46.5zM2609 469.999c0 -67.333 -8.49902 -130.501 -25.499 -189.501
s-41.833 -110.333 -74.5 -154s-72.334 -78.167 -119 -103.5c-46.667 -25.333 -99.334 -38 -158.001 -38c-38 0 -74.333 6.16699 -109 18.5s-66.5 30.166 -95.5 53.499s-54.5 51.5 -76.5 84.5s-39 70.5 -51 112.5l107 46c20.667 -59.333 50.667 -106.5 90.001 -141.5
c39.333 -35 84.333 -52.5 135 -52.5c41.333 0 78.166 8.66699 110.5 26c32.333 17.333 59.833 41.5 82.5 72.5s39.834 67.667 51.5 110c11.667 42.333 17.5 88.833 17.5 139.5c0 18 -1.16699 39.333 -3.5 64s-6.16602 50.334 -11.5 77.001
c-5.33301 26.667 -12.333 53 -21 79s-19.167 49.5 -31.5 70.5s-26.666 38 -42.999 51s-34.833 20.167 -55.5 21.5c-22.667 0 -42.667 -3.5 -60 -10.5s-32 -18.667 -44 -35s-21.5 -38.166 -28.5 -65.499s-11.5 -61.333 -13.5 -102v-84h-121v84c0 74 -11.833 128 -35.5 162
s-58.834 51 -105.501 51c-20 0 -39.167 -3.83301 -57.5 -11.5s-34.5 -17.834 -48.5 -30.501s-25 -27.5 -33 -44.5s-12 -34.5 -12 -52.5c0 -41.333 15 -76.333 45 -105l-95 -82c-46.667 50.667 -70 115 -70 193c0 34.667 7.5 67.5 22.5 98.5s35 58 60 81
s53.333 41.167 85 54.5s64.5 20 98.5 20c42 0 80.667 -9.16699 116 -27.5s66 -44.5 92 -78.5c25.333 38 53.666 65.167 85 81.5c31.333 16.333 67 24.5 107 24.5c46 0 87.167 -11.5 123.5 -34.5s67.166 -55.167 92.5 -96.5c25.333 -41.333 44.666 -90.666 57.999 -147.999
s20 -120.333 20 -189z" />
    <glyph glyph-name="ml_u" unicode="&#xd09;" horiz-adv-x="1247" 
d="M1162 -331l0.00292969 -117.001h-817c-40 0 -76.167 4.66699 -108.5 14s-59.666 22.5 -81.999 39.5s-39.5 37.167 -51.5 60.5s-18 49 -18 77c0 30.667 6 57.167 18 79.5s28.667 40.833 50 55.5s47.166 25.5 77.499 32.5s64.166 10.5 101.499 10.5
c116 0 215 7.33301 297 22s147 32.667 195 54c70 34 123.333 85.5 160 154.5s55 153.5 55 253.5c0 54 -11.167 105.833 -33.5 155.5s-52.5 93.5 -90.5 131.5s-81.833 68.333 -131.5 91s-101.834 34 -156.501 34c-59.333 0 -114.666 -12.833 -165.999 -38.5
s-95.833 -59.5 -133.5 -101.5s-67.334 -90 -89.001 -144s-32.834 -109.333 -33.501 -166c20.667 30 48.5 54 83.5 72s70.833 27 107.5 27c32 0 62.667 -6.5 92 -19.5s55.166 -30.5 77.499 -52.5s40 -47.5 53 -76.5s19.5 -59.833 19.5 -92.5s-6.5 -63.5 -19.5 -92.5
s-30.667 -54.5 -53 -76.5s-48 -39.333 -77 -52s-59.5 -19 -91.5 -19c-43.333 0 -84 11.167 -122 33.5s-71 52 -99 89s-50.167 79.5 -66.5 127.5s-24.5 97.333 -24.5 148c0 76 12.833 147.5 38.5 214.5s62.167 125.833 109.5 176.5s104.333 90.667 171 120s141 44 223 44
c80.667 0 153.667 -14.667 219 -44s121.333 -68.833 168 -118.5s82.667 -107.167 108 -172.5s38 -133.666 38 -204.999c0 -122 -22.167 -224.667 -66.5 -308s-110.833 -147 -199.5 -191c-61.333 -30 -140.166 -53.667 -236.499 -71s-211.5 -26.333 -345.5 -27
c-35.333 0 -61.5 -4 -78.5 -12s-25.5 -23.333 -25.5 -46c0 -20.667 10.833 -38.167 32.5 -52.5s54.5 -21.5 98.5 -21.5h823zM516.003 224.999c0 16 -3.33398 31.167 -10.001 45.5s-15.5 27 -26.5 38s-23.667 19.833 -38 26.5s-29.5 10 -45.5 10
c-16.667 0 -32.667 -3.66699 -48 -11s-29 -17 -41 -29s-21.667 -25.333 -29 -40s-11.333 -29 -12 -43c4 -14 10.167 -28 18.5 -42s18.333 -26.5 30 -37.5s24.334 -19.833 38.001 -26.5s28.167 -10 43.5 -10c16 0 31.167 3.16699 45.5 9.5s27 15 38 26s19.833 23.667 26.5 38
s10 29.5 10 45.5z" />
    <glyph glyph-name="ml_uu" unicode="&#xd0a;" horiz-adv-x="2246" 
d="M1162 -331l0.00292969 -117.001h-817c-40 0 -76.167 4.66699 -108.5 14s-59.666 22.5 -81.999 39.5s-39.5 37.167 -51.5 60.5s-18 49 -18 77c0 30.667 6 57.167 18 79.5s28.667 40.833 50 55.5s47.166 25.5 77.499 32.5s64.166 10.5 101.499 10.5
c116 0 215 7.33301 297 22s147 32.667 195 54c70 34 123.333 85.5 160 154.5s55 153.5 55 253.5c0 54 -11.167 105.833 -33.5 155.5s-52.5 93.5 -90.5 131.5s-81.833 68.333 -131.5 91s-101.834 34 -156.501 34c-59.333 0 -114.666 -12.833 -165.999 -38.5
s-95.833 -59.5 -133.5 -101.5s-67.334 -90 -89.001 -144s-32.834 -109.333 -33.501 -166c20.667 30 48.5 54 83.5 72s70.833 27 107.5 27c32 0 62.667 -6.5 92 -19.5s55.166 -30.5 77.499 -52.5s40 -47.5 53 -76.5s19.5 -59.833 19.5 -92.5s-6.5 -63.5 -19.5 -92.5
s-30.667 -54.5 -53 -76.5s-48 -39.333 -77 -52s-59.5 -19 -91.5 -19c-43.333 0 -84 11.167 -122 33.5s-71 52 -99 89s-50.167 79.5 -66.5 127.5s-24.5 97.333 -24.5 148c0 76 12.833 147.5 38.5 214.5s62.167 125.833 109.5 176.5s104.333 90.667 171 120s141 44 223 44
c80.667 0 153.667 -14.667 219 -44s121.333 -68.833 168 -118.5s82.667 -107.167 108 -172.5s38 -133.666 38 -204.999c0 -122 -22.167 -224.667 -66.5 -308s-110.833 -147 -199.5 -191c-61.333 -30 -140.166 -53.667 -236.499 -71s-211.5 -26.333 -345.5 -27
c-35.333 0 -61.5 -4 -78.5 -12s-25.5 -23.333 -25.5 -46c0 -20.667 10.833 -38.167 32.5 -52.5s54.5 -21.5 98.5 -21.5h823zM516.003 224.999c0 16 -3.33398 31.167 -10.001 45.5s-15.5 27 -26.5 38s-23.667 19.833 -38 26.5s-29.5 10 -45.5 10
c-16.667 0 -32.667 -3.66699 -48 -11s-29 -17 -41 -29s-21.667 -25.333 -29 -40s-11.333 -29 -12 -43c4 -14 10.167 -28 18.5 -42s18.333 -26.5 30 -37.5s24.334 -19.833 38.001 -26.5s28.167 -10 43.5 -10c16 0 31.167 3.16699 45.5 9.5s27 15 38 26s19.833 23.667 26.5 38
s10 29.5 10 45.5zM2161 469.999c0 -67.333 -8.49707 -130.501 -25.4971 -189.501s-41.833 -110.333 -74.5 -154s-72.334 -78.167 -119.001 -103.5s-99.334 -38 -158.001 -38c-38 0 -74.333 6.16699 -109 18.5s-66.5 30.166 -95.5 53.499s-54.5 51.5 -76.5 84.5
s-39 70.5 -51 112.5l107 46c20.667 -59.333 50.667 -106.5 90 -141.5s84.333 -52.5 135 -52.5c41.333 0 78.166 8.66699 110.499 26s59.833 41.5 82.5 72.5s39.834 67.667 51.501 110s17.5 88.833 17.5 139.5c0 18 -1.16699 39.333 -3.5 64s-6.16602 50.334 -11.499 77.001
s-12.333 53 -21 79s-19.167 49.5 -31.5 70.5s-26.666 38 -42.999 51s-34.833 20.167 -55.5 21.5c-22.667 0 -42.667 -3.5 -60 -10.5s-32 -18.667 -44 -35s-21.5 -38.166 -28.5 -65.499s-11.5 -61.333 -13.5 -102v-84h-121v84c0 74 -11.833 128 -35.5 162
s-58.834 51 -105.501 51c-20 0 -39.167 -3.83301 -57.5 -11.5s-34.5 -17.834 -48.5 -30.501s-25 -27.5 -33 -44.5s-12 -34.5 -12 -52.5c0 -41.333 15 -76.333 45 -105l-95 -82c-46.667 50.667 -70 115 -70 193c0 34.667 7.5 67.5 22.5 98.5s35 58 60 81
s53.333 41.167 85 54.5s64.5 20 98.5 20c42 0 80.667 -9.16699 116 -27.5s66 -44.5 92 -78.5c25.333 38 53.666 65.167 84.999 81.5s67 24.5 107 24.5c46 0 87.167 -11.5 123.5 -34.5s67.166 -55.167 92.499 -96.5s44.666 -90.666 58 -147.999
c13.333 -57.333 20 -120.333 20 -189z" />
    <glyph glyph-name="ml_ri" unicode="&#xd0b;" horiz-adv-x="1544" 
d="M1459 540c0 -114 -39.3359 -215.004 -118.003 -303.004c-31.333 -34 -67.166 -64.667 -107.499 -92s-84.166 -51.333 -131.499 -72c39.333 -14.667 75 -31.834 107 -51.501s59.333 -41 82 -64s40.167 -47.5 52.5 -73.5s18.5 -52.333 18.5 -79
c0 -58.667 -17 -108.5 -51 -149.5s-78.5 -74.333 -133.5 -100s-117.667 -44.334 -188 -56.001s-141.5 -17.5 -213.5 -17.5c-50 0 -99.333 2.16699 -148 6.5s-95 11.333 -139 21s-84.667 22.667 -122 39s-69.833 36.333 -97.5 60s-49.167 51.667 -64.5 84s-23 69.5 -23 111.5
c0 26.667 6.16699 52.834 18.5 78.501s29.833 50 52.5 73s50 44.333 82 64s67.667 36.5 107 50.5c-90.667 38 -168.667 92.667 -234 164c-42 46 -72.833 93.833 -92.5 143.5s-29.834 101.5 -30.501 155.5c0 51.333 9.33301 101.333 28 150s43.834 91.834 75.501 129.501
s68.834 68 111.501 91s88 34.5 136 34.5c33.333 0 64.333 -6.33301 93 -19s53.5 -30 74.5 -52s37.333 -47.833 49 -77.5s17.5 -61.167 17.5 -94.5c0 -32 -6.66699 -62.333 -20 -91s-31 -54 -53 -76s-47.5 -39.333 -76.5 -52s-58.833 -19 -89.5 -19
c-23.333 0 -46.166 3.5 -68.499 10.5s-43 16.667 -62 29s-36 27.166 -51 44.499s-27.5 36 -37.5 56c-1.33301 -10 -2.33301 -20.167 -3 -30.5s-1 -20.166 -1 -29.499c0 -61.333 15.667 -117.166 47 -167.499s73.5 -93.666 126.5 -129.999s114.333 -64.5 184 -84.5
s143.167 -30 220.5 -30c68.667 0 133.5 8.83301 194.5 26.5s118.833 44.834 173.5 81.501c60.667 40 106.5 85.333 137.5 136s46.5 108.334 46.5 173.001v24c0 7.33301 -0.666992 15.333 -2 24c-10.667 -20 -23.667 -38.167 -39 -54.5s-32.166 -30.333 -50.499 -42
s-37.833 -20.667 -58.5 -27s-42 -9.5 -64 -9.5c-34 0 -65.667 6.5 -95 19.5s-55 30.667 -77 53s-39.333 48.166 -52 77.499s-19 60.666 -19 93.999c0 32 6.33301 62.333 19 91s29.667 53.834 51 75.501s46.166 38.834 74.499 51.501s58.166 19 89.499 19
c46.667 0 90.834 -11.167 132.501 -33.5s78.167 -52 109.5 -89s56.166 -79.5 74.499 -127.5s27.5 -97.333 27.5 -148zM1242 -196.004c0 20 -6.66895 38.832 -20.002 56.499s-31.333 33.834 -54 48.501s-49.334 27.834 -80.001 39.501s-63.5 21.5 -98.5 29.5
s-71 14.167 -108 18.5s-73.5 6.83301 -109.5 7.5c-53.333 0 -107.833 -4.83301 -163.5 -14.5s-106.167 -23.334 -151.5 -41.001s-82.5 -38.667 -111.5 -63s-43.5 -51.5 -43.5 -81.5c0 -26 8.66699 -49.167 26 -69.5s39.833 -37.833 67.5 -52.5s58.834 -27.167 93.501 -37.5
s69.334 -18.5 104.001 -24.5s67.834 -10.333 99.501 -13s58.167 -4 79.5 -4c35.333 0 71.5 2.16699 108.5 6.5s73 10.5 108 18.5s67.833 18 98.5 30s57.5 25.333 80.5 40s41.167 31 54.5 49s20 37 20 57zM1257 746.995c-20 21.333 -42.001 38.3311 -66.001 50.998
s-47.333 19 -70 19c-16 0 -31.167 -3.16699 -45.5 -9.5s-27 -15 -38 -26s-19.667 -23.833 -26 -38.5s-9.5 -30 -9.5 -46s3.16699 -31.167 9.5 -45.5s14.833 -27 25.5 -38s23.334 -19.667 38.001 -26s30 -9.5 46 -9.5c18 0 35.167 4.33301 51.5 13s30.833 20.334 43.5 35.001
s22.667 31.834 30 51.501s11 40.5 11 62.5v7zM548.994 696.993c0 16 -3.16699 31.167 -9.5 45.5s-15 27 -26 38s-23.667 19.833 -38 26.5s-29.5 10 -45.5 10c-22.667 0 -46.167 -6.5 -70.5 -19.5s-46.5 -30.5 -66.5 -52.5c0 -23.333 3.66699 -45 11 -65
s17.166 -37.667 29.499 -53s26.833 -27.333 43.5 -36s34.334 -13 53.001 -13c16 0 31.167 3.16699 45.5 9.5s27 15 38 26s19.667 23.667 26 38s9.5 29.5 9.5 45.5z" />
    <glyph glyph-name="ml_li" unicode="&#xd0c;" horiz-adv-x="1632" 
d="M1547 396c0 -59.333 -7.33301 -114.169 -22 -164.502s-35.5 -93.833 -62.5 -130.5s-59.5 -65.167 -97.5 -85.5s-80.333 -30.5 -127 -30.5c-41.333 0 -79.833 8.16699 -115.5 24.5s-66.5 38.5 -92.5 66.5s-46.5 61 -61.5 99s-22.5 78.667 -22.5 122
c0 48 10.333 95.333 31 142s48.334 88.334 83.001 125.001s74.5 66.167 119.5 88.5s91.833 33.5 140.5 33.5h15c4.66699 0 9.66699 -0.333008 15 -1c-25.333 42 -55.166 74.5 -89.499 97.5s-72.5 34.5 -114.5 34.5c-35.333 0 -70 -10 -104 -30s-64.5 -45.833 -91.5 -77.5
s-48.667 -67.167 -65 -106.5s-24.5 -78.333 -24.5 -117v-486h-121v486c0 42.667 -7.16699 84 -21.5 124s-33.5 75.333 -57.5 106s-51.833 55.167 -83.5 73.5s-65.167 27.5 -100.5 27.5c-38.667 0 -74.5 -10.833 -107.5 -32.5s-61.667 -50.5 -86 -86.5
s-43.333 -76.833 -57 -122.5s-20.5 -92.5 -20.5 -140.5c0 -8 -0.333008 -17 -1 -27c0.666992 -9.33301 1.66699 -17.333 3 -24c44.667 54.667 104.334 82 179.001 82c32 0 62.667 -6.33301 92 -19s55 -30 77 -52s39.667 -47.667 53 -77s20 -60.333 20 -93
c0 -31.333 -6.33301 -61.5 -19 -90.5s-29.834 -54.5 -51.501 -76.5s-47 -39.667 -76 -53s-59.5 -20 -91.5 -20c-46 0 -87.667 11.5 -125 34.5s-69.5 54.333 -96.5 94s-47.833 86.167 -62.5 139.5s-22 110.333 -22 171c0 65.333 10 128.833 30 190.5s47.5 116.5 82.5 164.5
s76.333 86.5 124 115.5s99.5 43.5 155.5 43.5c32.667 0 65 -5.5 97 -16.5s62 -26.5 90 -46.5s53.667 -43.667 77 -71s42.666 -57 57.999 -89c14 32 33 61.667 57 89s51 51 81 71s62.167 35.5 96.5 46.5s69.166 16.5 104.499 16.5c60 0 115 -15 165 -45
s93.167 -70.167 129.5 -120.5s64.5 -108.166 84.5 -173.499s30 -133 30 -203zM1419 385.997c0 26.667 -1.49707 54.167 -4.49707 82.5s-7.83301 54.166 -14.5 77.499c-10.667 3.33301 -22.334 6 -35.001 8s-26 3 -40 3c-34 0 -66.667 -7.5 -98 -22.5
s-59.166 -34.667 -83.499 -59s-43.833 -52 -58.5 -83s-22 -62.833 -22 -95.5c0 -27.333 4.16699 -52.666 12.5 -75.999s19.666 -43.5 33.999 -60.5s31.166 -30.333 50.499 -40s39.666 -14.5 60.999 -14.5c30.667 0 58.167 6.83301 82.5 20.5s45 32.834 62 57.501
s30.167 54.167 39.5 88.5s14 72.166 14 113.499zM508.003 224.997c0 16 -3.16895 31.167 -9.50195 45.5s-15 27 -26 38s-23.833 19.833 -38.5 26.5s-30 10 -46 10c-30 0 -56.333 -8 -79 -24s-41 -41 -55 -75c4 -20 10 -38.5 18 -55.5s17.833 -31.833 29.5 -44.5
s24.834 -22.5 39.501 -29.5s30.334 -10.5 47.001 -10.5c16 0 31.167 3.16699 45.5 9.5s27 15 38 26s19.833 23.667 26.5 38s10 29.5 10 45.5z" />
    <glyph glyph-name="ml_e" unicode="&#xd0e;" horiz-adv-x="2130" 
d="M2045 389c0.666992 -70.667 -3.33203 -143.506 -11.999 -218.506s-23.334 -148.167 -44.001 -219.5s-47.667 -138.666 -81 -201.999s-74.333 -118.666 -123 -165.999l-83 77c34.667 42.667 65.834 89 93.501 139s51.167 104.833 70.5 164.5s34.166 124.667 44.499 195
s15.5 147.166 15.5 230.499c0 45.333 -3.16699 93 -9.5 143s-16.5 99.167 -30.5 147.5s-32.167 94.666 -54.5 138.999s-49 83.166 -80 116.499s-66.833 59.833 -107.5 79.5s-86.667 29.5 -138 29.5c-49.333 0 -93.5 -10.167 -132.5 -30.5s-73.333 -47.666 -103 -81.999
s-54.834 -74 -75.501 -119s-37.5 -91.667 -50.5 -140s-22.5 -97 -28.5 -146s-9 -94.833 -9 -137.5c0 -46.667 1.33301 -92 4 -136s7 -88 13 -132h333v720h121v-862c0 -276.667 -75 -415 -225 -415c-85.333 0 -155.333 36.5 -210 109.5s-94 181.833 -118 326.5h-462v110
c12 23.333 21.167 44.5 27.5 63.5s9.5 36.833 9.5 53.5c0 22.667 -5.5 44.167 -16.5 64.5s-25.333 38 -43 53s-38 27 -61 36s-46.5 13.5 -70.5 13.5c-29.333 0 -56.333 -4.33301 -81 -13s-46 -20.5 -64 -35.5s-32.167 -33 -42.5 -54s-15.5 -43.833 -15.5 -68.5
c0 -46 15.667 -94 47 -144l-85 -86c-55.333 64.667 -83 141.334 -83 230.001c0 42 8.16699 80.833 24.5 116.5s39 66.5 68 92.5s63.333 46.333 103 61s82.5 22 128.5 22c40.667 0 79.834 -7.5 117.501 -22.5s71 -35.333 100 -61s52.167 -55.5 69.5 -89.5s26 -70 26 -108
c0 -18.667 -2.5 -37.667 -7.5 -57s-11.833 -38 -20.5 -56h310c-5.33301 43.333 -9 87.166 -11 131.499s-3 89.833 -3 136.5c0 54.667 4.16699 111.834 12.5 171.501s21.5 118.334 39.5 176.001s40.833 112.334 68.5 164.001s60.667 97.167 99 136.5s82.333 70.5 132 93.5
s105.5 34.5 167.5 34.5c62.667 0 119.667 -11.167 171 -33.5s97 -52.833 137 -91.5s74.667 -83.667 104 -135s53.5 -105.666 72.5 -162.999s32.667 -116.166 41 -176.499s11.833 -119.166 10.5 -176.499zM1457 -0.00585938l-310.999 0.000976562
c10 -47.333 22.167 -90.333 36.5 -129s30.333 -71.834 48 -99.501s36.667 -49 57 -64s42.166 -22.5 65.499 -22.5c69.333 0 104 90.333 104 271v44z" />
    <glyph glyph-name="ml_ee" unicode="&#xd0f;" horiz-adv-x="2133" 
d="M2048 672c0 -83.333 -15.668 -155.16 -47.001 -215.493s-80.333 -110.5 -147 -150.5c30 -19.333 56.833 -41.833 80.5 -67.5s44 -53.834 61 -84.501s30 -62.834 39 -96.501s13.5 -68.167 13.5 -103.5c0 -49.333 -10 -96.833 -30 -142.5s-47.167 -86.5 -81.5 -122.5
s-74.166 -65.667 -119.499 -89s-93.333 -37 -144 -41v117c34.667 6 67.5 17.667 98.5 35s58 38.666 81 63.999s41.333 53.666 55 84.999s20.5 64 20.5 98c0 38 -7.66699 74.167 -23 108.5s-36.5 64.5 -63.5 90.5s-58.5 46.667 -94.5 62s-74.333 23.333 -115 24v115
c94.667 15.333 167.5 50.666 218.5 105.999s76.5 128.666 76.5 219.999c0 51.333 -8 98.5 -24 141.5s-38.833 80.167 -68.5 111.5s-65.5 55.666 -107.5 72.999s-89 26 -141 26c-76.667 0 -145.167 -15.667 -205.5 -47s-111.5 -75.5 -153.5 -132.5s-74 -125.167 -96 -204.5
s-33 -167 -33 -263c0 -42.667 1.5 -86.167 4.5 -130.5s8.16699 -90.166 15.5 -137.499h331v720h120v-862c0 -276.667 -74.333 -415 -223 -415c-81.333 0 -149.166 35.833 -203.499 107.5s-95.166 181.167 -122.499 328.5h-456v110c24 44 36 84.333 36 121
c0 22.667 -5.5 44 -16.5 64s-25.833 37.333 -44.5 52s-40 26.167 -64 34.5s-49 12.5 -75 12.5s-50.667 -4.5 -74 -13.5s-44 -21 -62 -36s-32.167 -32.667 -42.5 -53s-15.5 -41.833 -15.5 -64.5c0 -49.333 15.333 -98.666 46 -147.999l-84 -86
c-55.333 64.667 -83 142.667 -83 234c0 39.333 8.33301 76.5 25 111.5s39.167 65.5 67.5 91.5s61.666 46.667 99.999 62s79.166 23 122.499 23c44 0 85.5 -7.33301 124.5 -22s73 -34.834 102 -60.501s52 -55.667 69 -90s25.5 -71.5 25.5 -111.5
c0 -20.667 -2.16699 -39.667 -6.5 -57s-11.5 -35 -21.5 -53h307c-6 44.667 -10.333 89.167 -13 133.5s-4 89.166 -4 134.499c0 112 14 214.833 42 308.5s68 174.5 120 242.5s115 121 189 159s157.333 57 250 57c68 0 130.333 -12.333 187 -37s105.5 -58.5 146.5 -101.5
s73 -94.167 96 -153.5s34.5 -123.333 34.5 -192zM1449 0.00585938l-310 0.000976562c21.333 -100.667 49.5 -178.334 84.5 -233.001s75.833 -82 122.5 -82c68.667 0 103 88 103 264v51z" />
    <glyph glyph-name="ml_ai" unicode="&#xd10;" horiz-adv-x="3000" 
d="M910 443c0 -47.333 -4.3291 -93.6611 -12.9961 -138.994s-20.834 -87.833 -36.501 -127.5s-34.334 -76 -56.001 -109s-45.5 -60.833 -71.5 -83.5l-77 95c23.333 21.333 43.333 45.666 60 72.999s30.334 56.666 41.001 87.999s18.5 64.166 23.5 98.499
s7.5 69.166 7.5 104.499c0 50.667 -6.5 98.5 -19.5 143.5s-31.667 84.5 -56 118.5s-54.333 61 -90 81s-76.5 30 -122.5 30c-49.333 0 -92.5 -11 -129.5 -33s-67.833 -50.833 -92.5 -86.5s-43 -76.334 -55 -122.001s-18 -92.167 -18 -139.5c0 -7.33301 -0.333008 -16 -1 -26
c0.666992 -10 1.66699 -18.333 3 -25c18 21.333 43 40.333 75 57s67 25 105 25c32 0 62.5 -6.33301 91.5 -19s54.5 -30 76.5 -52s39.667 -47.667 53 -77s20 -60.333 20 -93c0 -31.333 -6.33301 -61.5 -19 -90.5s-29.834 -54.5 -51.501 -76.5s-46.834 -39.667 -75.501 -53
s-59 -20 -91 -20c-46.667 0 -88.834 11.5 -126.501 34.5s-69.834 54.333 -96.501 94s-47.167 86.167 -61.5 139.5s-21.5 110.333 -21.5 171c0 94.667 13 174.667 39 240s59.333 118.166 100 158.499s85.334 69.5 134.001 87.5s96 27 142 27c57.333 0 111 -11.833 161 -35.5
s93.5 -57 130.5 -100s66 -95 87 -156s31.5 -128.5 31.5 -202.5zM507.004 225.005c0 16 -3.16797 31.167 -9.50098 45.5s-15 27 -26 38s-23.667 19.833 -38 26.5s-29.5 10 -45.5 10c-55.333 0 -100.666 -33 -135.999 -99c7.33301 -41.333 23.333 -75 48 -101s54 -39 88 -39
c16 0 31.167 3.16699 45.5 9.5s27 15 38 26s19.667 23.667 26 38s9.5 29.5 9.5 45.5zM2914 389.005c0.666992 -70.667 -3.33398 -143.506 -12.001 -218.506s-23.334 -148.167 -44 -219.5c-20.667 -71.333 -47.667 -138.666 -81 -201.999s-74.333 -118.666 -123 -165.999
l-83 77c34.667 42.667 65.834 89 93.5 139c27.667 50 51.167 104.833 70.5 164.5s34.166 124.667 44.5 195c10.333 70.333 15.5 147.166 15.5 230.499c0 45.333 -3.16699 93 -9.5 143s-16.5 99.167 -30.5 147.5s-32.167 94.666 -54.5 138.999s-49 83.166 -80 116.499
s-66.833 59.833 -107.5 79.5s-86.667 29.5 -138 29.5c-49.333 0 -93.5 -10.167 -132.5 -30.5s-73.333 -47.666 -103 -81.999s-54.834 -74 -75.5 -119c-20.667 -45 -37.5 -91.667 -50.5 -140s-22.5 -97 -28.5 -146s-9 -94.833 -9 -137.5c0 -46.667 1.33301 -92 4 -136
s7 -88 13 -132h333v720h121v-862c0 -276.667 -75 -415 -225 -415c-85.333 0 -155.333 36.5 -210 109.5s-94 181.833 -118 326.5h-462v110c12 23.333 21.167 44.5 27.5 63.5s9.5 36.833 9.5 53.5c0 22.667 -5.5 44.167 -16.5 64.5s-25.333 38 -43 53s-38 27 -61 36
s-46.5 13.5 -70.5 13.5c-29.333 0 -56.333 -4.33301 -81 -13s-46 -20.5 -64 -35.5s-32.167 -33 -42.5 -54s-15.5 -43.833 -15.5 -68.5c0 -46 15.667 -94 47 -144l-85 -86c-55.333 64.667 -83 141.334 -83 230.001c0 42 8.16699 80.833 24.5 116.5s39 66.5 68 92.5
s63.333 46.333 103 61s82.5 22 128.5 22c40.667 0 79.834 -7.5 117.501 -22.5s71 -35.333 100 -61s52.167 -55.5 69.5 -89.5s26 -70 26 -108c0 -18.667 -2.5 -37.667 -7.5 -57s-11.833 -38 -20.5 -56h310c-5.33301 43.333 -9 87.166 -11 131.499s-3 89.833 -3 136.5
c0 54.667 4.16699 111.834 12.5 171.501s21.5 118.334 39.5 176.001s40.833 112.334 68.5 164.001s60.667 97.167 99 136.5s82.333 70.5 132 93.5s105.5 34.5 167.5 34.5c62.667 0 119.667 -11.167 171 -33.5s97 -52.833 137 -91.5s74.667 -83.667 104 -135
s53.5 -105.666 72.5 -162.999s32.667 -116.166 41 -176.499s11.833 -119.166 10.5 -176.499zM2326 -0.000976562l-311 0.000976562c10 -47.333 22.167 -90.333 36.5 -129s30.333 -71.834 48 -99.501s36.667 -49 57 -64s42.166 -22.5 65.5 -22.5c69.333 0 104 90.333 104 271
v44z" />
    <glyph glyph-name="ml_o" unicode="&#xd12;" horiz-adv-x="1266" 
d="M1181 231c0 -36 -6.66797 -69.0029 -20.001 -99.0029s-31.333 -55.833 -54 -77.5s-48.667 -38.667 -78 -51s-60.333 -18.5 -93 -18.5c-54 0 -111.667 23 -173 69l76 99c28.667 -31.333 61 -47 97 -47c16.667 0 32.5 2.83301 47.5 8.5s28.333 14 40 25
s20.834 24.333 27.501 40s10 33.167 10 52.5c0 29.333 -7 55.333 -21 78s-34 38.334 -60 47.001c-14 4 -36.167 6.83301 -66.5 8.5s-68.5 2.5 -114.5 2.5v120c49.333 0 90.833 2.5 124.5 7.5s60.667 12.833 81 23.5s34.833 24.667 43.5 42s13 38.333 13 63
c0 29.333 -8.83301 55.833 -26.5 79.5s-42.667 44 -75 61s-71.833 30 -118.5 39s-99 13.5 -157 13.5c-68 0 -130 -10.667 -186 -32s-105 -51.333 -147 -90s-76 -84.5 -102 -137.5s-43 -111.167 -51 -174.5c20.667 25.333 47.167 45.5 79.5 60.5s66.5 22.5 102.5 22.5
c34 0 65.5 -6.5 94.5 -19.5s54.333 -30.667 76 -53s38.5 -48 50.5 -77s18 -59.5 18 -91.5c0 -32.667 -6.16699 -63.5 -18.5 -92.5s-29 -54.5 -50 -76.5s-45.833 -39.333 -74.5 -52s-59.334 -19 -92.001 -19c-43.333 0 -83.333 10 -120 30s-68.167 47.333 -94.5 82
s-47 75.167 -62 121.5s-22.5 95.5 -22.5 147.5c0 78.667 15.167 152.834 45.5 222.501s72.333 130.334 126 182.001s117 92.5 190 122.5s152.167 45 237.5 45c74 0 141.333 -7.66699 202 -23s112.834 -37.5 156.501 -66.5s77.5 -64.167 101.5 -105.5s36 -88 36 -140
c0 -34 -7.66699 -65.5 -23 -94.5s-38 -53.5 -68 -73.5c14 -10 26.667 -22.667 38 -38s21 -32 29 -50s14.167 -36.833 18.5 -56.5s6.5 -39.5 6.5 -59.5zM499.999 224.997c0 16 -3.33301 31.167 -10 45.5s-15.5 27 -26.5 38s-23.667 19.833 -38 26.5s-29.5 10 -45.5 10
c-16.667 0 -32.5 -3.5 -47.5 -10.5s-28.5 -16.5 -40.5 -28.5s-22.167 -26.167 -30.5 -42.5s-13.833 -33.833 -16.5 -52.5c40.667 -70 85.667 -105 135 -105c16 0 31.167 3.16699 45.5 9.5s27 15 38 26s19.833 23.667 26.5 38s10 29.5 10 45.5z" />
    <glyph glyph-name="ml_oo" unicode="&#xd13;" horiz-adv-x="2048" 
d="M1963 467c0 -70.667 -11 -135.499 -33 -194.499s-52 -109.833 -90 -152.5s-82.333 -75.834 -133 -99.501s-105 -35.5 -163 -35.5c-111.333 0 -208 48 -290 144l88 71c70.667 -62.667 140.334 -94 209.001 -94c39.333 0 76.666 8.5 111.999 25.5s66.166 41.333 92.499 73
s47.333 69.667 63 114s23.5 93.833 23.5 148.5c0 44 -7.5 87 -22.5 129s-35.333 79.333 -61 112s-55.667 59 -90 79s-71.166 30 -110.499 30c-82.667 0 -154 -32 -214 -96l-92 75c78.667 94.667 176 142 292 142c62 0 118.667 -12.5 170 -37.5s95.5 -59 132.5 -102
s65.667 -93 86 -150s30.5 -117.5 30.5 -181.5zM1181 231.001c0 -36 -6.66797 -69.0029 -20.001 -99.0029s-31.333 -55.833 -54 -77.5s-48.667 -38.667 -78 -51s-60.333 -18.5 -93 -18.5c-54 0 -111.667 23 -173 69l76 99c28.667 -31.333 61 -47 97 -47
c16.667 0 32.5 2.83301 47.5 8.5s28.333 14 40 25s20.834 24.333 27.501 40s10 33.167 10 52.5c0 29.333 -7 55.333 -21 78s-34 38.334 -60 47.001c-14 4 -36.167 6.83301 -66.5 8.5s-68.5 2.5 -114.5 2.5v120c49.333 0 90.833 2.5 124.5 7.5s60.667 12.833 81 23.5
s34.833 24.667 43.5 42s13 38.333 13 63c0 29.333 -8.83301 55.833 -26.5 79.5s-42.667 44 -75 61s-71.833 30 -118.5 39s-99 13.5 -157 13.5c-68 0 -130 -10.667 -186 -32s-105 -51.333 -147 -90s-76 -84.5 -102 -137.5s-43 -111.167 -51 -174.5
c20.667 25.333 47.167 45.5 79.5 60.5s66.5 22.5 102.5 22.5c34 0 65.5 -6.5 94.5 -19.5s54.333 -30.667 76 -53s38.5 -48 50.5 -77s18 -59.5 18 -91.5c0 -32.667 -6.16699 -63.5 -18.5 -92.5s-29 -54.5 -50 -76.5s-45.833 -39.333 -74.5 -52s-59.334 -19 -92.001 -19
c-43.333 0 -83.333 10 -120 30s-68.167 47.333 -94.5 82s-47 75.167 -62 121.5s-22.5 95.5 -22.5 147.5c0 78.667 15.167 152.834 45.5 222.501s72.333 130.334 126 182.001s117 92.5 190 122.5s152.167 45 237.5 45c74 0 141.333 -7.66699 202 -23
s112.834 -37.5 156.501 -66.5s77.5 -64.167 101.5 -105.5s36 -88 36 -140c0 -34 -7.66699 -65.5 -23 -94.5s-38 -53.5 -68 -73.5c14 -10 26.667 -22.667 38 -38s21 -32 29 -50s14.167 -36.833 18.5 -56.5s6.5 -39.5 6.5 -59.5zM499.999 224.998
c0 16 -3.33301 31.167 -10 45.5s-15.5 27 -26.5 38s-23.667 19.833 -38 26.5s-29.5 10 -45.5 10c-16.667 0 -32.5 -3.5 -47.5 -10.5s-28.5 -16.5 -40.5 -28.5s-22.167 -26.167 -30.5 -42.5s-13.833 -33.833 -16.5 -52.5c40.667 -70 85.667 -105 135 -105
c16 0 31.167 3.16699 45.5 9.5s27 15 38 26s19.833 23.667 26.5 38s10 29.5 10 45.5z" />
    <glyph glyph-name="ml_au" unicode="&#xd14;" horiz-adv-x="2319" 
d="M1181 231c0 -36 -6.66797 -69.0029 -20.001 -99.0029s-31.333 -55.833 -54 -77.5s-48.667 -38.667 -78 -51s-60.333 -18.5 -93 -18.5c-54 0 -111.667 23 -173 69l76 99c28.667 -31.333 61 -47 97 -47c16.667 0 32.5 2.83301 47.5 8.5s28.333 14 40 25
s20.834 24.333 27.501 40s10 33.167 10 52.5c0 29.333 -7 55.333 -21 78s-34 38.334 -60 47.001c-14 4 -36.167 6.83301 -66.5 8.5s-68.5 2.5 -114.5 2.5v120c49.333 0 90.833 2.5 124.5 7.5s60.667 12.833 81 23.5s34.833 24.667 43.5 42s13 38.333 13 63
c0 29.333 -8.83301 55.833 -26.5 79.5s-42.667 44 -75 61s-71.833 30 -118.5 39s-99 13.5 -157 13.5c-68 0 -130 -10.667 -186 -32s-105 -51.333 -147 -90s-76 -84.5 -102 -137.5s-43 -111.167 -51 -174.5c20.667 25.333 47.167 45.5 79.5 60.5s66.5 22.5 102.5 22.5
c34 0 65.5 -6.5 94.5 -19.5s54.333 -30.667 76 -53s38.5 -48 50.5 -77s18 -59.5 18 -91.5c0 -32.667 -6.16699 -63.5 -18.5 -92.5s-29 -54.5 -50 -76.5s-45.833 -39.333 -74.5 -52s-59.334 -19 -92.001 -19c-43.333 0 -83.333 10 -120 30s-68.167 47.333 -94.5 82
s-47 75.167 -62 121.5s-22.5 95.5 -22.5 147.5c0 78.667 15.167 152.834 45.5 222.501s72.333 130.334 126 182.001s117 92.5 190 122.5s152.167 45 237.5 45c74 0 141.333 -7.66699 202 -23s112.834 -37.5 156.501 -66.5s77.5 -64.167 101.5 -105.5s36 -88 36 -140
c0 -34 -7.66699 -65.5 -23 -94.5s-38 -53.5 -68 -73.5c14 -10 26.667 -22.667 38 -38s21 -32 29 -50s14.167 -36.833 18.5 -56.5s6.5 -39.5 6.5 -59.5zM499.999 224.997c0 16 -3.33301 31.167 -10 45.5s-15.5 27 -26.5 38s-23.667 19.833 -38 26.5s-29.5 10 -45.5 10
c-16.667 0 -32.5 -3.5 -47.5 -10.5s-28.5 -16.5 -40.5 -28.5s-22.167 -26.167 -30.5 -42.5s-13.833 -33.833 -16.5 -52.5c40.667 -70 85.667 -105 135 -105c16 0 31.167 3.16699 45.5 9.5s27 15 38 26s19.833 23.667 26.5 38s10 29.5 10 45.5zM2234 469.997
c0 -67.333 -8.49707 -130.501 -25.4971 -189.501s-41.833 -110.333 -74.5 -154s-72.334 -78.167 -119 -103.5c-46.667 -25.333 -99.334 -38 -158.001 -38c-38 0 -74.333 6.16699 -109 18.5s-66.5 30.166 -95.5 53.499s-54.5 51.5 -76.5 84.5s-39 70.5 -51 112.5l107 46
c20.667 -59.333 50.667 -106.5 90 -141.5s84.333 -52.5 135 -52.5c41.333 0 78.166 8.66699 110.499 26s59.833 41.5 82.5 72.5s39.834 67.667 51.5 110c11.667 42.333 17.5 88.833 17.5 139.5c0 18 -1.16699 39.333 -3.5 64s-6.16602 50.334 -11.499 77.001
s-12.333 53 -21 79s-19.167 49.5 -31.5 70.5s-26.666 38 -42.999 51s-34.833 20.167 -55.5 21.5c-22.667 0 -42.667 -3.5 -60 -10.5s-32 -18.667 -44 -35s-21.5 -38.166 -28.5 -65.499s-11.5 -61.333 -13.5 -102v-84h-121v84c0 74 -11.833 128 -35.5 162
s-58.834 51 -105.501 51c-20 0 -39.167 -3.83301 -57.5 -11.5s-34.5 -17.834 -48.5 -30.501s-25 -27.5 -33 -44.5s-12 -34.5 -12 -52.5c0 -41.333 15 -76.333 45 -105l-95 -82c-46.667 50.667 -70 115 -70 193c0 34.667 7.5 67.5 22.5 98.5s35 58 60 81
s53.333 41.167 85 54.5s64.5 20 98.5 20c42 0 80.667 -9.16699 116 -27.5s66 -44.5 92 -78.5c25.333 38 53.666 65.167 84.999 81.5s67 24.5 107 24.5c46 0 87.167 -11.5 123.5 -34.5s67.166 -55.167 92.5 -96.5c25.333 -41.333 44.666 -90.666 57.999 -147.999
s20 -120.333 20 -189z" />
    <glyph glyph-name="ml_ka" unicode="&#xd15;" horiz-adv-x="1504" 
d="M1419 249c0 -35.333 -6.16797 -68.8281 -18.501 -100.495s-29.333 -59.667 -51 -84s-47.334 -43.666 -77.001 -57.999s-62.167 -21.5 -97.5 -21.5c-67.333 0 -131.666 26.667 -192.999 80l80 90c18 -17.333 35.667 -29.833 53 -37.5s34.666 -11.5 51.999 -11.5
c19.333 0 37 3.83301 53 11.5s29.833 18 41.5 31s20.667 28.167 27 45.5s9.5 35.666 9.5 54.999c0 36 -6.66699 66.167 -20 90.5s-32 44.166 -56 59.499s-52.833 26.666 -86.5 33.999s-70.5 12.333 -110.5 15c-0.666992 -70 -6.33398 -133.333 -17.001 -190
s-27.5 -105.334 -50.5 -146.001s-52.5 -72 -88.5 -94s-79.333 -33 -130 -33c-81.333 0 -145 28 -191 84c-32 -25.333 -65.667 -45.666 -101 -60.999s-73.666 -23 -114.999 -23c-37.333 0 -71.166 6.83301 -101.499 20.5s-56.166 32.5 -77.499 56.5s-38 52 -50 84
s-18 66.333 -18 103c0 57.333 8.83301 105.166 26.5 143.499s42.834 69.5 75.501 93.5s72 42.167 118 54.5s97 20.833 153 25.5c4.66699 54.667 13.667 104.667 27 150s31.333 84.5 54 117.5s50.5 58.667 83.5 77s71.833 27.5 116.5 27.5s83.5 -9.16699 116.5 -27.5
s60.833 -43.833 83.5 -76.5s40.5 -71.834 53.5 -117.501s22.167 -95.5 27.5 -149.5c58.667 -4 112.5 -12 161.5 -24s91.167 -30 126.5 -54s62.666 -55.333 81.999 -94s29 -87.334 29 -146.001zM738.999 106.005c34 0 61.6689 9 83.002 27s38 42.667 50 74s20.333 68 25 110
s7 87 7 135h-330c0 -48 2.33301 -93 7 -135s13.167 -78.667 25.5 -110s29.166 -56 50.499 -74s48.666 -27 81.999 -27zM492.001 173.005c-13.333 36.667 -23.001 78.1699 -29.001 124.503s-9 96.166 -9 149.499c-37.333 -3.33301 -71.166 -8.83301 -101.499 -16.5
s-56.333 -19 -78 -34s-38.5 -34.5 -50.5 -58.5s-18 -53.667 -18 -89c0 -40.667 11 -74.667 33 -102s53 -41 93 -41c8 0 18.667 1.5 32 4.5s27.333 7.16699 42 12.5s29.667 12.166 45 20.499s29 18.166 41 29.499zM899 572.008c-3.33301 33.333 -8.49805 64.833 -15.498 94.5
s-16.833 55.667 -29.5 78s-28.334 40 -47.001 53s-41.334 19.5 -68.001 19.5s-49.5 -6.5 -68.5 -19.5s-34.833 -30.667 -47.5 -53s-22.5 -48.333 -29.5 -78s-12.167 -61.167 -15.5 -94.5c26.667 0.666992 53.667 1 81 1h163c26 0 51.667 -0.333008 77 -1z" />
    <glyph glyph-name="ml_kha" unicode="&#xd16;" horiz-adv-x="1663" 
d="M1578 923l0.000976562 -922.999h-778v111c13.333 21.333 26 46.666 38 75.999s22.333 60 31 92s15.5 63.833 20.5 95.5s7.5 60.5 7.5 86.5c0 48 -9 93.5 -27 136.5s-42.5 80.833 -73.5 113.5s-67.667 58.5 -110 77.5s-87.833 28.5 -136.5 28.5
c-50.667 0 -97.167 -10 -139.5 -30s-78.666 -47.5 -108.999 -82.5s-54 -75.833 -71 -122.5s-25.5 -96.667 -25.5 -150c0 -32 2.33301 -58.333 7 -79c10 17.333 22.167 33 36.5 47s30.166 25.833 47.499 35.5s35.833 17.167 55.5 22.5s39.834 8 60.501 8
c34.667 0 66.667 -6.33301 96 -19s54.833 -29.834 76.5 -51.501s38.667 -47.167 51 -76.5s18.5 -60.666 18.5 -93.999s-6.16699 -64.666 -18.5 -93.999s-29.5 -54.833 -51.5 -76.5s-47.667 -38.667 -77 -51s-61 -18.5 -95 -18.5c-46.667 0 -90.834 14.5 -132.501 43.5
s-78.5 68.5 -110.5 118.5c-24.667 44 -44.834 91.333 -60.501 142s-23.5 100 -23.5 148c0 66 11.667 129.333 35 190s55.833 114 97.5 160s90.834 82.667 147.501 110s118.334 41 185.001 41c63.333 0 123.166 -12.833 179.499 -38.5s105.666 -60 147.999 -103
s75.833 -92.833 100.5 -149.5s37 -116.334 37 -179.001c0 -52 -6.5 -106 -19.5 -162s-35.167 -117.667 -66.5 -185h529v802h120zM533.001 225.001c0 16 -3.16602 31.333 -9.49902 46s-15 27.5 -26 38.5s-23.667 19.667 -38 26s-29.5 9.5 -45.5 9.5
c-30.667 0 -58.167 -10 -82.5 -30s-40.833 -48.333 -49.5 -85c8 -39.333 24 -69.833 48 -91.5s52 -32.5 84 -32.5c15.333 0 30.166 3.16699 44.499 9.5s27 14.833 38 25.5s19.833 23.167 26.5 37.5s10 29.833 10 46.5z" />
    <glyph glyph-name="ml_ga" unicode="&#xd17;" horiz-adv-x="1334" 
d="M1249 467c0 -60.667 -8.67188 -119.172 -26.0049 -175.505s-41.166 -106 -71.499 -149s-66 -77.5 -107 -103.5s-85.5 -39 -133.5 -39v121c32 0 61.333 9.16699 88 27.5s49.5 43.333 68.5 75s33.833 68.334 44.5 110.001s16 86.167 16 133.5
c0 38 -3.83301 77.5 -11.5 118.5s-19.5 78.667 -35.5 113s-36.333 62.666 -61 84.999s-54 33.5 -88 33.5c-44.667 0 -79.667 -12.667 -105 -38s-45 -57.666 -59 -96.999s-24.333 -82.833 -31 -130.5l-20 -137.5c-6 -36 -12.333 -71.5 -19 -106.5
s-15.334 -68.333 -26.001 -100s-23.5 -61.167 -38.5 -88.5s-33.167 -50.833 -54.5 -70.5s-46.666 -35.167 -75.999 -46.5s-63.666 -17 -102.999 -17c-47.333 0 -90.333 12.667 -129 38s-71.667 60 -99 104s-48.666 95.167 -63.999 153.5s-23 120.5 -23 186.5
c0 36 3.16699 72.667 9.5 110s15.666 73.166 27.999 107.499s27.5 66.5 45.5 96.5s39.167 55.833 63.5 77.5s51.333 38.334 81 50.001s62.167 16.5 97.5 14.5v-121c-28.667 -0.666992 -55.5 -10.834 -80.5 -30.501s-46.667 -45 -65 -76s-32.666 -66 -42.999 -105
s-15.5 -77.833 -15.5 -116.5c0 -46 4.66699 -91 14 -135s22.5 -83.167 39.5 -117.5s37.333 -62.166 61 -83.499s50.167 -32 79.5 -32c41.333 0 74.333 10.167 99 30.5s44.334 47 59.001 80s25.5 70.333 32.5 112s13.5 83.834 19.5 126.501
c4.66699 36.667 9.83398 74 15.501 112s13 74.833 22 110.5s20.5 69.334 34.5 101.001s31.833 59.334 53.5 83.001s48 42.334 79 56.001s67.833 20.5 110.5 20.5c54 0 101.167 -13.333 141.5 -40s74 -62 101 -106s47.333 -94.167 61 -150.5s20.5 -114.5 20.5 -174.5z" />
    <glyph glyph-name="ml_gha" unicode="&#xd18;" horiz-adv-x="2033" 
d="M1948 0h-1116v288h-269v112c24 36 36 77.667 36 125c0 22 -5.5 42.5 -16.5 61.5s-25.333 35.5 -43 49.5s-37.834 25 -60.501 33s-45.667 12 -69 12c-27.333 0 -53.333 -4 -78 -12s-46.334 -19 -65.001 -33s-33.5 -30.667 -44.5 -50s-16.5 -40.333 -16.5 -63
c0 -59.333 15.667 -110.333 47 -153l-86 -89c-54.667 71.333 -82 150.333 -82 237c0 41.333 8.33301 79.5 25 114.5s39.5 65 68.5 90s63.333 44.5 103 58.5s82.5 21 128.5 21c41.333 0 80.833 -7.5 118.5 -22.5s70.667 -35.333 99 -61s51 -55.667 68 -90
s25.5 -71.166 25.5 -110.499c0 -42 -8.66699 -78.333 -26 -109h137v165c0 49.333 10.333 96.166 31 140.499s48.334 83 83.001 116s74.334 59.167 119.001 78.5s90.667 29 138 29c49.333 0 96.166 -9.83301 140.499 -29.5s83.166 -46 116.499 -79s59.833 -71.667 79.5 -116
s29.5 -90.833 29.5 -139.5v-286h-617v-167h875v802h121v-923zM1449 405l-0.000976562 162c0 33.333 -6.5 65 -19.5 95s-30.667 56.5 -53 79.5s-48.333 41.333 -78 55s-61.5 20.5 -95.5 20.5c-33.333 0 -65.166 -6.66699 -95.499 -20s-57 -31.333 -80 -54
s-41.333 -49.167 -55 -79.5s-20.5 -62.5 -20.5 -96.5v-162h497z" />
    <glyph glyph-name="ml_nga" unicode="&#xd19;" horiz-adv-x="1432" 
d="M1347 645c0 -18.667 -2.49902 -37.5059 -7.49902 -56.5059s-12 -37 -21 -54s-19.833 -32.5 -32.5 -46.5s-26.334 -26 -41.001 -36c32.667 -24 57.834 -54.5 75.501 -91.5s26.5 -79.5 26.5 -127.5c0 -31.333 -7 -61.166 -21 -89.499s-32.5 -53.166 -55.5 -74.499
s-49.333 -38.166 -79 -50.499s-60.167 -18.5 -91.5 -18.5h-103v121c42.667 0 78.667 2.16699 108 6.5s53 11.833 71 22.5s31 24.334 39 41.001s12 37.667 12 63c0 43.333 -18.333 75.666 -55 96.999s-95 32 -175 32v120c32.667 0 62.834 3.5 90.501 10.5s51.167 17 70.5 30
s34.5 28.833 45.5 47.5s16.5 39.334 16.5 62.001s-4.83301 44 -14.5 64s-22.667 37.333 -39 52s-35 26.334 -56 35.001s-42.833 13 -65.5 13c-24 0 -47.167 -4.16699 -69.5 -12.5s-42 -19.666 -59 -33.999s-30.5 -31.166 -40.5 -50.499s-15 -39.666 -15 -60.999v-659h-120
v453c0 50.667 -6.33301 98 -19 142s-30.5 82.5 -53.5 115.5s-50.833 59 -83.5 78s-68.667 28.5 -108 28.5s-75.5 -11 -108.5 -33s-61.5 -50.833 -85.5 -86.5s-42.833 -76.334 -56.5 -122.001s-20.5 -92.5 -20.5 -140.5c0 -7.33301 -0.333008 -15.666 -1 -24.999
c0.666992 -8.66699 1.66699 -16.334 3 -23.001c41.333 52.667 101 79 179 79c32 0 62.667 -6.5 92 -19.5s55.166 -30.667 77.499 -53s40 -48 53 -77s19.5 -59.5 19.5 -91.5c0 -31.333 -6.33301 -61.5 -19 -90.5s-29.834 -54.5 -51.501 -76.5s-47 -39.667 -76 -53
s-59.5 -20 -91.5 -20c-46 0 -87.667 11.5 -125 34.5s-69.5 54.333 -96.5 94s-47.833 86.167 -62.5 139.5s-22 110.333 -22 171c0 38 3.33301 77.167 10 117.5s17 79.666 31 117.999s31.667 74.333 53 108s46.5 63.167 75.5 88.5s62 45.333 99 60s78.167 22 123.5 22
c122.667 0 220 -54 292 -162c12.667 23.333 28.5 45 47.5 65s40 37.167 63 51.5s47.5 25.5 73.5 33.5s52 12 78 12c46 0 88.333 -7.5 127 -22.5s72 -35.667 100 -62s49.833 -57.333 65.5 -93s23.5 -74.167 23.5 -115.5zM508.001 224.994c0 16 -3.16699 31.167 -9.5 45.5
s-15 27 -26 38s-23.833 19.833 -38.5 26.5s-30 10 -46 10c-63.333 0 -108.333 -33.333 -135 -100c4 -20 10.167 -38.5 18.5 -55.5s18.5 -31.667 30.5 -44s25.333 -22 40 -29s30 -10.5 46 -10.5s31.167 3.16699 45.5 9.5s27 15 38 26s19.833 23.667 26.5 38s10 29.5 10 45.5z
" />
    <glyph glyph-name="ml_ca" unicode="&#xd1a;" horiz-adv-x="1641" 
d="M1556 923l0.00292969 -922.999h-1471v121h537c30 0 59.833 8.5 89.5 25.5s56.167 39 79.5 66s42.166 57.5 56.499 91.5s21.5 67.667 21.5 101c0 28 -3.66699 53.667 -11 77s-17.5 43.5 -30.5 60.5s-28.833 30.333 -47.5 40s-39.334 14.5 -62.001 14.5
c-21.333 0 -41.5 -4 -60.5 -12s-35.833 -19.167 -50.5 -33.5s-26.167 -31.166 -34.5 -50.499s-12.5 -40 -12.5 -62c0 -36.667 18 -67.334 54 -92.001l-65 -91c-73.333 54 -110 117.333 -110 190c0 38 6.83301 73.5 20.5 106.5s32.667 61.833 57 86.5s53.166 44 86.499 58
s69.333 21 108 21c41.333 0 79.166 -7.83301 113.499 -23.5s63.833 -37.334 88.5 -65.001s43.834 -60.667 57.501 -99s20.5 -80.166 20.5 -125.499c0 -108.667 -44.333 -203.334 -133 -284.001h577v802h121z" />
    <glyph glyph-name="ml_cha" unicode="&#xd1b;" horiz-adv-x="2264" 
d="M2172 389c0 -54 -7.33691 -105.336 -22.0039 -154.003s-35 -91.5 -61 -128.5s-56.667 -66.5 -92 -88.5s-74 -33 -116 -33c-38.667 0 -74.167 6.33301 -106.5 19s-60.333 30.167 -84 52.5s-42 49.166 -55 80.499s-19.5 65.666 -19.5 102.999c0 34 6.83301 66.333 20.5 97
s32.167 57.667 55.5 81s50.166 41.833 80.499 55.5s62.166 20.5 95.499 20.5c74.667 0 135.334 -24.667 182.001 -74c-5.33301 54 -19.166 104.833 -41.499 152.5s-51.5 89.334 -87.5 125.001s-77.333 63.834 -124 84.501s-97 31 -151 31
c-55.333 0 -107.833 -10.5 -157.5 -31.5s-93.5 -49.667 -131.5 -86s-68.167 -78.666 -90.5 -126.999s-33.5 -99.833 -33.5 -154.5c0 -35.333 3.83301 -69.833 11.5 -103.5s18.5 -63.834 32.5 -90.501s30.5 -49 49.5 -67s39.833 -29.333 62.5 -34v-119h-1304v121h354
c29.333 0 58.833 9 88.5 27s56.5 40.833 80.5 68.5s43.5 58.334 58.5 92.001s22.5 66.167 22.5 97.5c0 26.667 -3.83301 51.667 -11.5 75s-18.5 43.5 -32.5 60.5s-30.667 30.333 -50 40s-40.666 14.5 -63.999 14.5c-22 0 -42.5 -3.83301 -61.5 -11.5
s-35.667 -18.334 -50 -32.001s-25.666 -30.167 -33.999 -49.5s-12.5 -40.333 -12.5 -63c0 -34.667 19.333 -65 58 -91l-65 -97c-76.667 54 -115 117.667 -115 191c0 38 7.33301 73.667 22 107s34.667 62.5 60 87.5s54.833 44.667 88.5 59s69.834 21.5 108.501 21.5
c41.333 0 79.166 -8.16699 113.499 -24.5s63.666 -38.833 87.999 -67.5s43.333 -62.167 57 -100.5s20.5 -79.5 20.5 -123.5c0 -56 -10.167 -106.833 -30.5 -152.5s-53.5 -88.5 -99.5 -128.5h522c-60 86 -90 181.667 -90 287c0 72.667 14.333 140.834 43 204.501
s67.334 119.334 116.001 167.001s105.5 85.334 170.5 113.001s133.5 41.5 205.5 41.5c72.667 0 140.834 -15 204.501 -45s119.334 -70 167.001 -120s85.334 -107.833 113 -173.5c27.667 -65.667 41.5 -134.5 41.5 -206.5zM1869 105.997
c19.333 0 37.834 4.33203 55.501 12.999s33.5 20.334 47.5 35.001s25.333 31.667 34 51s13.667 39.333 15 60c-14.667 32 -35 58 -61 78s-53.333 30 -82 30c-42.667 0 -76.834 -12.5 -102.501 -37.5s-38.5 -56.833 -38.5 -95.5c0 -18.667 3.5 -36.167 10.5 -52.5
s16.5 -30.5 28.5 -42.5s26 -21.5 42 -28.5s33 -10.5 51 -10.5z" />
    <glyph glyph-name="ml_ja" unicode="&#xd1c;" horiz-adv-x="1178" 
d="M1093 672c0 -46 -8.16699 -84.501 -24.5 -115.501s-39 -57 -68 -78s-63.5 -38.167 -103.5 -51.5s-83.333 -25.333 -130 -36l-200 -48c-18.667 -4.66699 -40.5 -9.5 -65.5 -14.5s-50.833 -10.5 -77.5 -16.5s-53.167 -12.833 -79.5 -20.5s-49.666 -16 -69.999 -25
s-36.833 -18.833 -49.5 -29.5s-19 -22.667 -19 -36c0 -28.667 9.83301 -51.667 29.5 -69s54.167 -26 103.5 -26c23.333 0 47.833 3.5 73.5 10.5s51.834 16.833 78.501 29.5s52.834 27.5 78.501 44.5s50.167 35.167 73.5 54.5l62 49.5c21.333 16.333 42.666 31 63.999 44
s42.5 23.667 63.5 32s40.5 12.5 58.5 12.5c28 0 54.333 -5.66699 79 -17s46 -26.5 64 -45.5s32.333 -41.167 43 -66.5s16 -51.666 16 -78.999c0 -28.667 -5 -54.667 -15 -78s-24 -43.333 -42 -60s-39 -29.5 -63 -38.5s-50 -13.5 -78 -13.5c-23.333 0 -45.5 4.33301 -66.5 13
s-39.667 20 -56 34s-29.833 30.333 -40.5 49s-17.667 38 -21 58c-70.667 -53.333 -136.5 -92.333 -197.5 -117s-120.5 -37 -178.5 -37c-84 0 -146.667 19.333 -188 58s-62 91.334 -62 158.001c0 28.667 5.83301 53.834 17.5 75.501s27.834 40.5 48.501 56.5
s45.334 29.833 74.001 41.5s59.834 22.167 93.501 31.5s69.334 18 107.001 26l114.5 25l209 47c44.667 12 81.5 23.5 110.5 34.5s52 23 69 36s28.667 27.333 35 43s9.5 33.834 9.5 54.501s-3.83301 39.834 -11.5 57.501s-18.334 33 -32.001 46s-29.834 23.167 -48.501 30.5
s-39.334 11 -62.001 11c-52.667 0 -90.334 -18.333 -113.001 -55s-34 -96.334 -34 -179.001v-37h-121v111c0 21.333 -4.66699 41.666 -14 60.999s-21.833 36.333 -37.5 51s-33.834 26.334 -54.501 35.001s-42.334 13 -65.001 13c-32 0 -59.667 -6.66699 -83 -20
c22 0 43 -5 63 -15s37.667 -23.333 53 -40s27.5 -35.834 36.5 -57.501s13.5 -43.834 13.5 -66.501c0 -24 -5.16699 -46.833 -15.5 -68.5s-24 -41 -41 -58s-36.333 -30.5 -58 -40.5s-43.834 -15 -66.501 -15c-28 0 -54.167 6 -78.5 18s-45.166 28.333 -62.499 49
s-31 45 -41 73s-15 58 -15 90c0 36 7.83301 70.333 23.5 103s36.834 61.5 63.501 86.5s57.167 45 91.5 60s70.166 22.5 107.499 22.5c50 0 94.833 -9 134.5 -27s74.167 -44 103.5 -78c27.333 35.333 58 61.666 92 78.999s73 26 117 26c42 0 80 -6 114 -18s63 -29.5 87 -52.5
s42.333 -51 55 -84s19 -70.167 19 -111.5zM975 180.999c0 10.667 -2.33203 20.8291 -6.99902 30.4961s-10.834 18.334 -18.501 26.001s-16.5 13.834 -26.5 18.501s-20.333 7 -31 7c-23.333 0 -47.333 -10.667 -72 -32c-2 -7.33301 -3.33301 -14.166 -4 -20.499
s-1 -12.166 -1 -17.499c0 -26 7.16699 -47.167 21.5 -63.5s33.833 -24.5 58.5 -24.5c24 0 43.333 6.33301 58 19s22 31.667 22 57zM342.001 619.994c0 17.333 -6.66797 32 -20.001 44s-27.666 18 -42.999 18c-22.667 0 -42.334 -5.33301 -59.001 -16
c-1.33301 -10 -2.66602 -22.333 -3.99902 -37c0 -20.667 6.5 -37.667 19.5 -51s27.5 -20.333 43.5 -21c12.667 0 23 1.83301 31 5.5s14.333 8.5 19 14.5s8 12.833 10 20.5s3 15.167 3 22.5z" />
    <glyph glyph-name="ml_jha" unicode="&#xd1d;" horiz-adv-x="2283" 
d="M2198 453c0 -63.333 -7.50195 -123.329 -22.502 -179.996s-36.167 -106.334 -63.5 -149.001s-60.333 -76.5 -99 -101.5s-82 -37.5 -130 -37.5c-95.333 0 -172.666 35.667 -231.999 107c-21.333 -32.667 -49.833 -58.667 -85.5 -78s-76.5 -29 -122.5 -29
c-43.333 0 -79.833 6 -109.5 18s-54.667 28.5 -75 49.5s-36.333 45.667 -48 74s-20.667 58.5 -27 90.5s-11 65.333 -14 100s-5.5 68.667 -7.5 102c-4.66699 72 -14.834 133.167 -30.501 183.5s-37.167 91.5 -64.5 123.5s-60.5 55.167 -99.5 69.5s-84.167 21.5 -135.5 21.5
c-5.33301 0 -11.333 0.333008 -18 1l-7 -1c52.667 -56 92.5 -122.667 119.5 -200s40.5 -160 40.5 -248c0 -50.667 -7.33301 -99.167 -22 -145.5s-35.167 -87.166 -61.5 -122.499s-57.333 -63.5 -93 -84.5s-74.5 -31.5 -116.5 -31.5c-40.667 0 -78.834 10.667 -114.501 32
s-66.667 49.666 -93 84.999s-47 76.166 -62 122.499s-22.5 94.5 -22.5 144.5c0 37.333 3.5 77.333 10.5 120s17.5 84.334 31.5 125.001s31.667 78.667 53 114s46.333 64.666 75 87.999c-3.33301 0.666992 -7 1 -11 1h-11c-46 0 -88.833 -11.667 -128.5 -35
s-74 -54.333 -103 -93s-51.833 -83.334 -68.5 -134.001s-25 -103 -25 -157c0 -134 39.333 -241.333 118 -322l-81 -82c-104.667 104.667 -157 239.334 -157 404.001c0 72 10.667 140.5 32 205.5s51.5 122.333 90.5 172s85.833 89.167 140.5 118.5s115.334 44 182.001 44
c43.333 0 91 -11 143 -33c48 22 117 33 207 33c68.667 0 127.5 -12.667 176.5 -38s89.5 -60.833 121.5 -106.5s56.333 -100.334 73 -164.001s27.334 -133.5 32.001 -209.5c4 -62 10 -113.167 18 -153.5s18.333 -72.333 31 -96s27.667 -40.334 45 -50.001s37 -14.5 59 -14.5
c48 0 86 19.667 114 59s42 96.666 42 171.999v586h120v-586c0 -31.333 4.16699 -61 12.5 -89s20 -52.5 35 -73.5s33 -37.667 54 -50s44.167 -18.5 69.5 -18.5c30 0 57 9.83301 81 29.5s44.5 46.667 61.5 81s30.167 75.166 39.5 122.499s14 99 14 155
c0 34 -3.33301 67.833 -10 101.5s-16.167 65.834 -28.5 96.501s-27.166 58.834 -44.499 84.501s-36.333 47.5 -57 65.5l63 99c130.667 -100 196 -262.667 196 -488zM846.998 369.004c0.666992 32.667 -3.33203 68.1729 -11.999 106.506s-20.834 75.666 -36.501 111.999
s-34.334 70.5 -56.001 102.5s-45.167 58.333 -70.5 79c-28 -19.333 -52.667 -44.5 -74 -75.5s-39.166 -64.833 -53.499 -101.5s-25 -74.334 -32 -113.001s-10.5 -75.334 -10.5 -110.001c0 -34 4.33301 -66.833 13 -98.5s20.5 -59.667 35.5 -84s33 -43.833 54 -58.5
s44.167 -22 69.5 -22c22 0 43.333 8.16699 64 24.5s39.167 37.166 55.5 62.499s29.333 53.666 39 84.999s14.5 61.666 14.5 90.999z" />
    <glyph glyph-name="ml_nya" unicode="&#xd1e;" horiz-adv-x="1996" 
d="M1911 384c0 -140.667 -50.3311 -270.664 -150.998 -389.997l-91 73c18 19.333 34.5 41.833 49.5 67.5s27.833 52.834 38.5 81.501s19 58 25 88s9 59 9 87c0 56 -8.16699 109.667 -24.5 161s-38.833 96.666 -67.5 135.999s-62.5 70.666 -101.5 93.999s-81.5 35 -127.5 35
c-6 0 -12.333 -0.333008 -19 -1s-14 -1.66699 -22 -3c24.667 -27.333 46.834 -57.833 66.501 -91.5s36.334 -69 50.001 -106s24.167 -75.333 31.5 -115s11 -79.5 11 -119.5c0 -56 -6.5 -108 -19.5 -156s-31.333 -89.833 -55 -125.5s-52 -63.667 -85 -84
s-69.5 -30.5 -109.5 -30.5c-44 0 -84.167 10.5 -120.5 31.5s-67.666 49.5 -93.999 85.5s-46.666 78 -60.999 126s-21.5 99 -21.5 153c0 86 14.167 166.167 42.5 240.5s70.833 139.5 127.5 195.5c-4 0.666992 -7.66699 0.666992 -11 0c-66.667 0 -121 -12.167 -163 -36.5
s-74.833 -57.333 -98.5 -99s-39.5 -90 -47.5 -145s-11.667 -113.167 -11 -174.5v-362h-121v453c0 50.667 -6.33301 98 -19 142s-30.5 82.5 -53.5 115.5s-50.833 59 -83.5 78s-68.667 28.5 -108 28.5s-75.5 -11 -108.5 -33s-61.5 -50.833 -85.5 -86.5
s-42.833 -76.334 -56.5 -122.001s-20.5 -92.5 -20.5 -140.5c0 -7.33301 -0.333008 -15.333 -1 -24c0.666992 -8 1.33398 -15.333 2.00098 -22c20 24 46.333 42.833 79 56.5s66.667 20.5 102 20.5c32 0 62.5 -6.33301 91.5 -19s54.5 -30 76.5 -52s39.667 -47.667 53 -77
s20 -60.333 20 -93c0 -31.333 -6.33301 -61.5 -19 -90.5s-29.834 -54.5 -51.501 -76.5s-46.834 -39.667 -75.501 -53s-59 -20 -91 -20c-46 0 -87.833 11.5 -125.5 34.5s-69.834 54.333 -96.501 94s-47.334 86.167 -62.001 139.5s-22 110.333 -22 171
c0 65.333 10 128.833 30 190.5s47.5 116.5 82.5 164.5s76.333 86.5 124 115.5s99.167 43.5 154.5 43.5c35.333 0 69.166 -5.16699 101.499 -15.5s62.5 -25.166 90.5 -44.499s53.333 -42.666 76 -69.999s42.334 -58 59.001 -92c14 34 32.5 64.667 55.5 92
s49.333 50.666 79 69.999s62.167 34.166 97.5 44.499s72.666 15.5 111.999 15.5c26.667 0 53.334 -3.33301 80.001 -10s52.667 -16.334 78 -29.001c56 26 113.333 39 172 39c47.333 0 90.833 -7.83301 130.5 -23.5s75.667 -37 108 -64s60.666 -58.667 84.999 -95
s44.666 -75 60.999 -116s28.666 -83.333 36.999 -127s12.5 -86.5 12.5 -128.5zM1468 374.003c0 76.667 -13.668 148.497 -41.001 215.497s-68.666 124.833 -123.999 173.5c-24 -17.333 -46 -38.666 -66 -63.999s-37 -54 -51 -86s-24.833 -67 -32.5 -105
s-11.5 -78 -11.5 -120c0 -40 4.16699 -77.167 12.5 -111.5s20 -64.166 35 -89.499s32.833 -45.166 53.5 -59.499s43.667 -21.5 69 -21.5c24 0 45.5 6.83301 64.5 20.5s35.333 32.5 49 56.5s24.167 52.333 31.5 85s11 68 11 106zM388.001 345
c-31.333 0 -58.999 -9 -82.999 -27s-41.333 -41.667 -52 -71c7.33301 -42 23.166 -76 47.499 -102s53.5 -39 87.5 -39c16 0 31.167 3.16699 45.5 9.5s27 15 38 26s19.833 23.667 26.5 38s10 29.5 10 45.5s-3.16699 31.167 -9.5 45.5s-15 27 -26 38
s-23.833 19.833 -38.5 26.5s-30 10 -46 10z" />
    <glyph glyph-name="ml_tta" unicode="&#xd1f;" horiz-adv-x="846" 
d="M761 258c0 -42 -9.00195 -79.8252 -27.002 -113.492s-42.333 -62.334 -73 -86.001s-66.5 -41.834 -107.5 -54.501s-84.5 -19 -130.5 -19c-50.667 0 -96.834 7.5 -138.501 22.5s-77.167 36.167 -106.5 63.5s-52.166 59.666 -68.499 96.999s-24.5 78.666 -24.5 123.999h120
c0 -29.333 5.66699 -55.5 17 -78.5s26.833 -42.5 46.5 -58.5s42.167 -28.167 67.5 -36.5s52 -12.5 80 -12.5c30 0 58.5 3.66699 85.5 11s50.833 17.833 71.5 31.5s37.167 29.834 49.5 48.501s18.5 39 18.5 61c0 20.667 -5.5 39.834 -16.5 57.501s-26.667 33 -47 46
s-44.666 23.833 -72.999 32.5s-59.5 14.334 -93.5 17.001c-50.667 4 -96.167 11.667 -136.5 23s-74.5 27.333 -102.5 48s-49.5 46.5 -64.5 77.5s-22.5 67.833 -22.5 110.5c0 36.667 8.66699 71.334 26 104.001s41.5 61.167 72.5 85.5s67.5 43.5 109.5 57.5s87.667 21 137 21
c44.667 0 87 -7.5 127 -22.5s75.167 -35.833 105.5 -62.5s54.333 -57.834 72 -93.501s26.5 -73.834 26.5 -114.501h-119c-1.33301 25.333 -7.33301 48.5 -18 69.5s-25.167 39.167 -43.5 54.5s-40.166 27.166 -65.499 35.499s-53.666 12.5 -84.999 12.5
c-36.667 0 -69 -3.83301 -97 -11.5s-51.5 -18.334 -70.5 -32.001s-33.333 -29.334 -43 -47.001s-14.5 -36.5 -14.5 -56.5c0 -30 6.66699 -53.833 20 -71.5s31.666 -31.5 54.999 -41.5s50.5 -17.5 81.5 -22.5l99.5 -15.5c46 -7.33301 87.5 -17.333 124.5 -30
s68.5 -29.334 94.5 -50.001s46 -45.834 60 -75.501s21 -64.834 21 -105.501z" />
    <glyph glyph-name="ml_ttha" unicode="&#xd20;" horiz-adv-x="1062" 
d="M977 462c0 -70.667 -11.668 -135.334 -35.001 -194.001s-55.166 -109 -95.499 -151s-87.5 -74.5 -141.5 -97.5s-112 -34.5 -174 -34.5s-120 11.5 -174 34.5s-101.167 55.5 -141.5 97.5s-72.166 92.333 -95.499 151s-35 123.334 -35 194.001c0 65.333 11.667 127 35 185
s55 108.5 95 151.5s87.167 77 141.5 102s112.5 37.5 174.5 37.5s120 -12.5 174 -37.5s101.167 -59 141.5 -102s72.166 -93.5 95.499 -151.5s35 -119.667 35 -185zM856.999 462c0 48.667 -8.5 94.499 -25.5 137.499s-40.167 80.667 -69.5 113s-63.833 57.833 -103.5 76.5
s-82.167 28 -127.5 28c-46 0 -88.833 -9.33301 -128.5 -28s-74.167 -44.167 -103.5 -76.5s-52.333 -70 -69 -113s-25 -88.833 -25 -137.5s8.33301 -94.667 25 -138s39.667 -81.166 69 -113.499s63.833 -57.833 103.5 -76.5s82.5 -28 128.5 -28
c45.333 0 87.833 8.33301 127.5 25s74.167 40.5 103.5 71.5s52.5 68.5 69.5 112.5s25.5 93 25.5 147z" />
    <glyph glyph-name="ml_dda" unicode="&#xd21;" horiz-adv-x="1771" 
d="M1686 496c0 -78.667 -7.99902 -149.504 -23.999 -212.504s-38.667 -116.667 -68 -161s-64.5 -78.333 -105.5 -102s-86.5 -35.5 -136.5 -35.5c-96.667 0 -174.667 33.667 -234 101c-11.333 -16 -26 -30.167 -44 -42.5s-37.333 -22.833 -58 -31.5
s-41.834 -15.334 -63.501 -20.001s-42.5 -7 -62.5 -7c-53.333 0 -97.5 9.33301 -132.5 28s-63.167 47.5 -84.5 86.5s-37.166 89 -47.499 150s-17.5 133.5 -21.5 217.5c-1.33301 36 -4 74.333 -8 115s-11.333 78.5 -22 113.5s-25.834 64 -45.501 87
s-45.834 34.5 -78.501 34.5c-34.667 0 -67 -9.33301 -97 -28s-56 -43.5 -78 -74.5s-39.167 -66.667 -51.5 -107s-18.5 -82.5 -18.5 -126.5c0 -85.333 13 -160 39 -224s61.333 -118.667 106 -164l-67 -108c-66.667 66.667 -116.334 141.5 -149.001 224.5s-49 173.5 -49 271.5
c0 32 3.16699 65.5 9.5 100.5s15.833 69.5 28.5 103.5s28.667 66.333 48 97s42 57.834 68 81.501s55.333 42.334 88 56.001s69 20.5 109 20.5c54 0 98.5 -10 133.5 -30s62.833 -49.667 83.5 -89s35.5 -88.333 44.5 -147s14.833 -127 17.5 -205
c2 -62 6.16699 -115.833 12.5 -161.5s16 -83.5 29 -113.5s30.333 -52.167 52 -66.5s48.834 -21.5 81.501 -21.5c24 0 46.333 5.66699 67 17s38.834 28 54.501 50s28 49.5 37 82.5s13.5 71.167 13.5 114.5v553h120v-553c0 -87.333 15.5 -153.166 46.5 -197.499
s72.167 -66.5 123.5 -66.5c32.667 0 62.167 8.83301 88.5 26.5s48.833 43.334 67.5 77.001s33 74.5 43 122.5s15 102 15 162c0 70.667 -11.667 134.834 -35 192.501s-59.333 107.167 -108 148.5l67 105c130.667 -92 196 -240 196 -444z" />
    <glyph glyph-name="ml_ddha" unicode="&#xd22;" horiz-adv-x="1913" 
d="M1828 498c0 -100 -11.334 -183.001 -34.001 -249.001s-51.834 -118.5 -87.501 -157.5s-75.334 -66.5 -119.001 -82.5s-86.5 -24 -128.5 -24c-40 0 -76.333 5 -109 15s-62 22.667 -88 38s-48.833 32.166 -68.5 50.499s-35.834 35.833 -48.501 52.5
c-11.333 -28 -27.333 -51.833 -48 -71.5s-43 -35.834 -67 -48.501s-48.333 -21.834 -73 -27.501s-47 -8.5 -67 -8.5c-53.333 0 -97.5 9.33301 -132.5 28s-63.167 47.5 -84.5 86.5s-37.166 89 -47.499 150s-17.5 133.5 -21.5 217.5c-1.33301 36 -4 74.333 -8 115
s-11.333 78.5 -22 113.5s-25.834 64 -45.501 87s-45.834 34.5 -78.501 34.5c-34.667 0 -67 -9.33301 -97 -28s-56 -43.5 -78 -74.5s-39.167 -66.667 -51.5 -107s-18.5 -82.5 -18.5 -126.5c0 -85.333 13 -160 39 -224s61.333 -118.667 106 -164l-67 -108
c-66.667 66.667 -116.334 141.5 -149.001 224.5s-49 173.5 -49 271.5c0 32 3.16699 65.5 9.5 100.5s15.833 69.5 28.5 103.5s28.667 66.333 48 97s42 57.834 68 81.501s55.333 42.334 88 56.001s69 20.5 109 20.5c54 0 98.5 -10 133.5 -30s62.833 -49.667 83.5 -89
s35.5 -88.333 44.5 -147s14.833 -127 17.5 -205c2 -62 6.16699 -115.833 12.5 -161.5s16 -83.5 29 -113.5s30.333 -52.167 52 -66.5s48.834 -21.5 81.501 -21.5c24 0 46.333 5.66699 67 17s38.834 28 54.501 50s28 49.5 37 82.5s13.5 71.167 13.5 114.5v553h120v-553
c0 -41.333 8.83301 -78.333 26.5 -111s40 -60.334 67 -83.001s56.833 -40.167 89.5 -52.5s64.334 -18.5 95.001 -18.5c38.667 0 73.334 8.66699 104.001 26s56.834 42.333 78.501 75s38 72.834 49 120.501s16.167 101.5 15.5 161.5c0 8.66699 0.166992 15.334 0.5 20.001
s0.5 8.66699 0.5 12s-0.166992 7 -0.5 11s-1.16602 10.333 -2.49902 19c-10 -14 -21.667 -26.667 -35 -38s-28 -21 -44 -29s-32.5 -14.333 -49.5 -19s-33.833 -7 -50.5 -7c-32 0 -62.667 6.33301 -92 19s-55 30 -77 52s-39.667 47.5 -53 76.5s-20 59.833 -20 92.5
c0 33.333 6.5 64.666 19.5 93.999s30.5 54.833 52.5 76.5s47.333 38.834 76 51.501s58.667 19 90 19c45.333 0 86.833 -11.5 124.5 -34.5s70 -54.333 97 -94s47.833 -86.167 62.5 -139.5s22 -110.666 22 -171.999zM1525 577.999c16.667 0 32.332 3.5 46.999 10.5
s27.834 16.5 39.501 28.5s21.5 26.5 29.5 43.5s14 35.5 18 55.5c-30 67.333 -74.667 101 -134 101c-16 0 -31.333 -3.16699 -46 -9.5s-27.5 -15 -38.5 -26s-19.667 -23.833 -26 -38.5s-9.5 -30 -9.5 -46s3.16699 -31.167 9.5 -45.5s15 -27 26 -38s23.833 -19.667 38.5 -26
s30 -9.5 46 -9.5z" />
    <glyph glyph-name="ml_nna" unicode="&#xd23;" horiz-adv-x="1922" 
d="M1837 494c-0.666992 -55.333 -3.8291 -105.161 -9.49609 -149.494s-15.834 -85.833 -30.501 -124.5s-34.834 -76.334 -60.501 -113.001s-58.5 -75.334 -98.5 -116.001l-61 100c46.667 47.333 81.5 104 104.5 170s34.5 141.333 34.5 226c0 40 -6.33301 79.667 -19 119
s-30 74.666 -52 105.999s-47.333 56.666 -76 75.999s-59 29 -91 29c-50 0 -87.333 -23.5 -112 -70.5s-37 -117.167 -37 -210.5v-536h-121v529c0 102 -12.5 175.5 -37.5 220.5s-64.5 67.5 -118.5 67.5c-32.667 0 -61 -7.5 -85 -22.5s-43.833 -38.833 -59.5 -71.5
s-27.334 -74.667 -35.001 -126s-11.5 -113 -11.5 -185v-412h-121v453c0 50.667 -6.33301 98 -19 142s-30.5 82.5 -53.5 115.5s-50.833 59 -83.5 78s-68.667 28.5 -108 28.5c-38.667 0 -74.5 -11 -107.5 -33s-61.5 -50.833 -85.5 -86.5s-42.833 -76.334 -56.5 -122.001
s-20.5 -92.5 -20.5 -140.5c0 -7.33301 -0.333008 -16 -1 -26c0.666992 -8.66699 1.66699 -16.334 3 -23.001c22 28.667 47.5 49.167 76.5 61.5s63.167 18.5 102.5 18.5c32 0 62.667 -6.5 92 -19.5s55 -30.667 77 -53s39.5 -48 52.5 -77s19.5 -59.5 19.5 -91.5
c0 -31.333 -6.33301 -61.5 -19 -90.5s-29.667 -54.5 -51 -76.5s-46.5 -39.667 -75.5 -53s-59.5 -20 -91.5 -20c-46 0 -87.667 11.5 -125 34.5s-69.5 54.333 -96.5 94s-47.833 86.167 -62.5 139.5s-22 110.333 -22 171c0 38 3.5 77.167 10.5 117.5s17.667 79.666 32 117.999
s32.166 74.333 53.499 108s46.5 63.167 75.5 88.5s61.833 45.333 98.5 60s77 22 121 22c66 0 125.833 -16.5 179.5 -49.5s97.167 -79.5 130.5 -139.5c52.667 126 141.334 189 266.001 189c19.333 0 39.166 -2.33301 59.499 -7s40 -11.5 59 -20.5s36.667 -19.667 53 -32
s30.5 -26.166 42.5 -41.499c58 67.333 128.667 101 212 101c51.333 0 98.833 -12.167 142.5 -36.5s81.5 -57 113.5 -98s57.167 -88.333 75.5 -142s27.5 -109.5 27.5 -167.5zM388.005 345.005c-15.333 0 -30.001 -2.66797 -44.001 -8.00098s-27 -12.5 -39 -21.5
s-22.5 -19.5 -31.5 -31.5s-15.833 -24.667 -20.5 -38c4 -20 10 -38.667 18 -56s18 -32.166 30 -44.499s25.333 -22 40 -29s30.334 -10.5 47.001 -10.5c16 0 31.167 3.16699 45.5 9.5s27 15 38 26s19.833 23.667 26.5 38s10 29.5 10 45.5s-3.16699 31.167 -9.5 45.5
s-15 27 -26 38s-23.833 19.833 -38.5 26.5s-30 10 -46 10z" />
    <glyph glyph-name="ml_ta" unicode="&#xd24;" horiz-adv-x="1383" 
d="M1297 384c0 -70.667 -12.5039 -139.668 -37.5039 -207.001s-62.833 -131.333 -113.5 -192l-91 73c17.333 18 33.5 40.167 48.5 66.5s28 54.5 39 84.5s19.5 60.667 25.5 92s9 61.333 9 90c0 56 -7 109.667 -21 161s-34.667 96.666 -62 135.999
s-60.833 70.666 -100.5 93.999s-85.5 35 -137.5 35c-8.66699 0 -16.667 -0.333008 -24 -1s-14 -1.66699 -20 -3c56.667 -58.667 97.834 -125 123.501 -199s38.5 -153.333 38.5 -238c0 -54 -6.66699 -104.667 -20 -152s-32 -88.833 -56 -124.5s-53 -63.667 -87 -84
s-71.667 -30.5 -113 -30.5c-43.333 0 -82.666 9.83301 -117.999 29.5s-65.5 46.834 -90.5 81.501s-44.333 76 -58 124s-20.5 100 -20.5 156c0 38 3.5 76.833 10.5 116.5s17.833 78.5 32.5 116.5s32.667 74.333 54 109s46.666 66.334 75.999 95.001
c-7.33301 1.33301 -13.666 2.83301 -18.999 4.5l-14 4.5c-51.333 -1.33301 -98.333 -13.333 -141 -36s-79.167 -53.5 -109.5 -92.5s-53.833 -84.333 -70.5 -136s-25 -107.167 -25 -166.5c0 -28 3 -57.833 9 -89.5s14.5 -62.5 25.5 -92.5s23.833 -58.333 38.5 -85
s31 -49 49 -67l-90 -72c-20.667 20 -40.167 46 -58.5 78s-34.5 66.333 -48.5 103s-25 74 -33 112s-12 73.333 -12 106c0 76.667 11.167 148.667 33.5 216s53.333 126 93 176s86.834 89.5 141.501 118.5s114.667 43.5 180 43.5c28.667 0 55.834 -3.16699 81.501 -9.5
s51.167 -16.166 76.5 -29.499c56 26 113.333 39 172 39c48 0 92.167 -7.83301 132.5 -23.5s76.666 -37 108.999 -64s60.833 -58.667 85.5 -95s45.167 -75 61.5 -116s28.333 -83.333 36 -127s10.834 -86.5 9.50098 -128.5zM853.996 368.999
c0 84 -13.167 159.999 -39.5 227.999s-67.5 123.333 -123.5 166c-25.333 -19.333 -47.833 -44 -67.5 -74s-36.334 -62.167 -50.001 -96.5s-24.167 -69.666 -31.5 -105.999s-10.666 -70.833 -9.99902 -103.5c0 -38 3.83301 -73.833 11.5 -107.5s18.667 -63 33 -88
s31.833 -44.833 52.5 -59.5s43.667 -22 69 -22c24 0 45.667 6.83301 65 20.5s35.833 32.167 49.5 55.5s24 51 31 83s10.5 66.667 10.5 104z" />
    <glyph glyph-name="ml_tha" unicode="&#xd25;" horiz-adv-x="1236" 
d="M1151 0l-1066 -0.000976562v923h121v-802h344v480c0 44.667 7.66699 87.334 23 128.001s36.333 76.5 63 107.5s57.667 55.667 93 74s73 27.5 113 27.5c42.667 0 82.667 -8.5 120 -25.5s70 -40.333 98 -70s50.167 -64.667 66.5 -105s24.5 -83.5 24.5 -129.5v-608z
M1030 120.999l0.00195312 494c0 26 -4.83301 51.167 -14.5 75.5s-22.834 45.833 -39.501 64.5s-36 33.667 -58 45s-45.333 17 -70 17c-26 0 -49.833 -5.83301 -71.5 -17.5s-40.334 -27.5 -56.001 -47.5s-27.667 -43.667 -36 -71s-12.5 -56.333 -12.5 -87v-473h358z" />
    <glyph glyph-name="ml_da" unicode="&#xd26;" horiz-adv-x="960" 
d="M875 666c0 -46 -9.16797 -87.667 -27.501 -125s-45.5 -67.666 -81.5 -90.999c34.667 -25.333 60.334 -55.5 77.001 -90.5s25 -73.5 25 -115.5c0 -40.667 -8.83301 -76.334 -26.5 -107.001s-40.667 -56.167 -69 -76.5s-60.666 -35.5 -96.999 -45.5s-72.833 -15 -109.5 -15
h-187v121h121c83.333 0 145.5 9.33301 186.5 28s61.5 50.334 61.5 95.001c0 46 -18 81.667 -54 107s-90.333 38 -163 38h-152v121h193c30.667 0 57.5 4.16699 80.5 12.5s42.167 19.5 57.5 33.5s26.666 29.833 33.999 47.5s11 36.167 11 55.5
c0 25.333 -6.16699 47.833 -18.5 67.5s-28.333 36.167 -48 49.5s-41.5 23.5 -65.5 30.5s-48 10.5 -72 10.5c-37.333 0 -72.166 -5.16699 -104.499 -15.5s-61.166 -24.5 -86.499 -42.5s-47.333 -38.833 -66 -62.5s-33.334 -48.834 -44.001 -75.501
c-12 -30 -21.167 -64.167 -27.5 -102.5s-10.833 -77.833 -13.5 -118.5s-4 -81 -4 -121c0 -39.333 0.333008 -75 1 -107v-172h-121v172c0 60.667 0.5 115 1.5 163s3.66699 92 8 132s10.666 77.333 18.999 112s19.833 68.667 34.5 102c18 41.333 40.5 78 67.5 110
s58 58.833 93 80.5s73 38.167 114 49.5s84.5 17 130.5 17c44.667 0 86.5 -6.5 125.5 -19.5s73 -31.5 102 -55.5s52 -52.667 69 -86s25.5 -70.333 25.5 -111z" />
    <glyph glyph-name="ml_dha" unicode="&#xd27;" horiz-adv-x="1304" 
d="M1219 439c0 -66 -9.16699 -126.836 -27.5 -182.503s-43.5 -103.667 -75.5 -144s-70 -71.666 -114 -93.999s-91.333 -33.5 -142 -33.5c-86 0 -157 34 -213 102c-56 -68 -123.333 -102 -202 -102c-51.333 0 -98.833 11.667 -142.5 35s-81.667 55.333 -114 96
s-57.666 88.667 -75.999 144s-27.5 115 -27.5 179c0 56.667 2.83301 107 8.5 151s15.834 85.333 30.501 124s35 76.167 61 112.5s59 75.166 99 116.499l62 -100c-93.333 -95.333 -140 -227.666 -140 -396.999c0 -47.333 6.33301 -91.666 19 -132.999
s29.834 -77.333 51.501 -108s47 -54.834 76 -72.501s59.833 -26.5 92.5 -26.5c23.333 0 44.166 6.16699 62.499 18.5s33.666 29.833 45.999 52.5s21.833 49.5 28.5 80.5s10 65.5 10 103.5v562h121v-562c0 -35.333 3.5 -68.5 10.5 -99.5s16.833 -58 29.5 -81
s28.167 -41.167 46.5 -54.5s38.5 -20 60.5 -20c32 0 62.333 8.83301 91 26.5s54 41.834 76 72.501s39.333 66.667 52 108s19 85.666 19 132.999c0 169.333 -46.333 301.666 -139 396.999l61 100c38 -33.333 69.667 -67.666 95 -102.999s45.666 -73.166 60.999 -113.499
s26.333 -84.166 33 -131.499s10 -99.333 10 -156z" />
    <glyph glyph-name="ml_na" unicode="&#xd28;" horiz-adv-x="1303" 
d="M1218 494c0 -56 -3.66504 -107.165 -10.998 -153.498s-18.833 -89.5 -34.5 -129.5s-36 -78 -61 -114s-55.5 -71.333 -91.5 -106l-62 100c92.667 93.333 139 225.333 139 396c0 39.333 -4 78.666 -12 117.999s-20.167 74.666 -36.5 105.999s-37.5 56.833 -63.5 76.5
s-57 29.5 -93 29.5c-26 0 -50 -4.83301 -72 -14.5s-40.833 -25 -56.5 -46s-28 -48 -37 -81s-13.5 -73.167 -13.5 -120.5v-555h-121v555c0 48 -2.83301 88.667 -8.5 122s-14.334 60.333 -26.001 81s-26.834 35.667 -45.501 45s-41 14 -67 14c-32 0 -62.333 -9.33301 -91 -28
s-53.834 -43.5 -75.501 -74.5s-39 -66.333 -52 -106s-19.5 -80.167 -19.5 -121.5c0 -85.333 12.167 -160.5 36.5 -225.5s59.833 -121.167 106.5 -168.5l-66 -102c-33.333 34 -62.5 68.833 -87.5 104.5s-45.833 73.5 -62.5 113.5s-29 83.333 -37 130s-12 98.334 -12 155.001
c0 60.667 9.16699 117.834 27.5 171.501s43.666 100.667 75.999 141s70.5 72.333 114.5 96s91.333 35.5 142 35.5c40 0 79.833 -9.16699 119.5 -27.5s73.5 -44.5 101.5 -78.5c28.667 34 60.834 60.167 96.501 78.5s74.834 27.5 117.501 27.5c60 0 111.333 -11.833 154 -35.5
s77.667 -55.834 105 -96.501s47.333 -87.834 60 -141.501s19 -110.5 19 -170.5z" />
    <glyph glyph-name="ml_pa" unicode="&#xd2a;" horiz-adv-x="1655" 
d="M1570 923l0.00195312 -922.999h-1007v110c24.667 43.333 37 84.333 37 123c0 21.333 -5.33301 41.666 -16 60.999s-24.667 36.166 -42 50.499s-37.333 25.833 -60 34.5s-46.334 13 -71.001 13c-28 0 -54.333 -4 -79 -12s-46.5 -19 -65.5 -33s-34 -30.667 -45 -50
s-16.5 -40.666 -16.5 -63.999c0 -54.667 16 -105 48 -151l-84 -87c-11.333 9.33301 -22 23 -32 41s-18.833 37.833 -26.5 59.5s-13.834 44 -18.501 67s-7 44.5 -7 64.5c0 42.667 8.33301 81.667 25 117s39.667 65.5 69 90.5s63.833 44.5 103.5 58.5s82.5 21 128.5 21
c42.667 0 82.667 -7.5 120 -22.5s70 -35.667 98 -62s50.167 -57.333 66.5 -93s24.5 -74.5 24.5 -116.5c0 -35.333 -8 -68.333 -24 -99h753v802h121z" />
    <glyph glyph-name="ml_pha" unicode="&#xd2b;" horiz-adv-x="1665" 
d="M1580 608v-608h-1016v111c24.667 53.333 37 94 37 122c0 22 -5.5 42.667 -16.5 62s-25.5 36.333 -43.5 51s-38.333 26.167 -61 34.5s-45.667 12.5 -69 12.5c-28 0 -54.333 -4 -79 -12s-46.5 -19 -65.5 -33s-34 -30.833 -45 -50.5s-16.5 -41.167 -16.5 -64.5
c0 -44 17 -94.333 51 -151l-88 -89c-55.333 63.333 -83 141.333 -83 234c0 40 8.33301 77.5 25 112.5s39.5 65.5 68.5 91.5s63.5 46.333 103.5 61s83 22 129 22c41.333 0 80.833 -7.5 118.5 -22.5s70.667 -35.5 99 -61.5s51 -56.333 68 -91s25.5 -71.334 25.5 -110.001
c0 -19.333 -2.16699 -37.833 -6.5 -55.5s-10.833 -35.167 -19.5 -52.5h285v480c0 44.667 7.5 87.334 22.5 128.001s35.5 76.5 61.5 107.5s56.667 55.667 92 74s73 27.5 113 27.5c43.333 0 83.833 -8.66699 121.5 -26s70.5 -40.833 98.5 -70.5s50 -64.5 66 -104.5
s24 -83 24 -129zM1458 594c0 30.667 -4.50098 59.667 -13.501 87s-21.333 51 -37 71s-34.167 35.833 -55.5 47.5s-44.333 17.5 -69 17.5c-25.333 0 -49 -5.66699 -71 -17s-41.167 -26.5 -57.5 -45.5s-29.166 -40.5 -38.499 -64.5s-14 -49 -14 -75v-494h356v473z" />
    <glyph glyph-name="ml_ba" unicode="&#xd2c;" horiz-adv-x="1956" 
d="M1871 923l0.00292969 -923.002h-657v108c64.667 133.333 97 262 97 386c0 44 -6 85.5 -18 124.5s-28.667 73.333 -50 103s-47.333 53 -78 70s-64.334 25.5 -101.001 25.5c-69.333 0 -120.5 -29 -153.5 -87s-49.5 -150.667 -49.5 -278v-452h-120v453
c0 50.667 -6.5 98.167 -19.5 142.5s-31.167 83 -54.5 116s-51.166 58.833 -83.499 77.5s-67.833 28 -106.5 28c-39.333 0 -75.5 -11 -108.5 -33s-61.5 -50.833 -85.5 -86.5s-42.833 -76.334 -56.5 -122.001s-20.5 -92.5 -20.5 -140.5
c0 -7.33301 -0.333008 -15.666 -1 -24.999c0.666992 -8 1.66699 -15.667 3 -23c20.667 25.333 46.167 44.833 76.5 58.5s64.833 20.5 103.5 20.5c31.333 0 61.5 -6.33301 90.5 -19s54.667 -30 77 -52s40.166 -47.667 53.499 -77s20 -60.333 20 -93
c0 -31.333 -6.33301 -61.5 -19 -90.5s-29.834 -54.5 -51.501 -76.5s-47 -39.667 -76 -53s-59.5 -20 -91.5 -20c-46 0 -87.667 11.5 -125 34.5s-69.5 54.333 -96.5 94s-47.833 86.167 -62.5 139.5s-22 110.333 -22 171c0 64.667 8.5 127.834 25.5 189.501
s42.167 116.5 75.5 164.5s74.333 86.667 123 116s104.667 44 168 44c60.667 0 117.5 -15.667 170.5 -47s96.833 -75 131.5 -131c12 26 27.667 49.833 47 71.5s41.166 40.334 65.499 56.001s50.5 28 78.5 37s57 13.5 87 13.5c56 0 106.833 -11.5 152.5 -34.5
s85 -54.5 118 -94.5s58.5 -87 76.5 -141s27 -112 27 -174c0 -130 -30 -254.333 -90 -373h409v802h121zM508.003 224.998c0 16 -3.16699 31.167 -9.5 45.5s-15 27 -26 38s-23.667 19.833 -38 26.5s-29.5 10 -45.5 10c-64 0 -109.333 -33 -136 -99
c7.33301 -41.333 23.5 -75 48.5 -101s54.167 -39 87.5 -39c16 0 31.167 3.16699 45.5 9.5s27 15 38 26s19.667 23.667 26 38s9.5 29.5 9.5 45.5z" />
    <glyph glyph-name="ml_bha" unicode="&#xd2d;" horiz-adv-x="1118" 
d="M1033 220c0 -34 -8 -65.332 -24 -93.999s-39 -53.5 -69 -74.5s-66.667 -37.333 -110 -49s-92.333 -17.5 -147 -17.5c-74.667 0 -141.834 11.833 -201.501 35.5s-111.167 54.834 -154.5 93.501l79 83c35.333 -29.333 75.166 -52.166 119.499 -68.499
s95.833 -24.5 154.5 -24.5c70 0 126 9.33301 168 28s63 46.667 63 84c0 16 -4.16699 30.167 -12.5 42.5s-19.5 22.666 -33.5 30.999s-30.167 14.666 -48.5 18.999s-37.5 6.5 -57.5 6.5c-18.667 0 -36.167 -1.66699 -52.5 -5s-33.166 -7.16602 -50.499 -11.499
s-36 -8.16602 -56 -11.499s-42.667 -5 -68 -5c-30 0 -58 5.5 -84 16.5s-48.333 25.833 -67 44.5s-33.334 40.667 -44.001 66s-16 52.333 -16 81c0 28 6.16699 54.333 18.5 79s28.833 46.5 49.5 65.5s44.334 34 71.001 45s54.667 16.5 84 16.5c26 0 50.5 -1.5 73.5 -4.5
s45.167 -6.33301 66.5 -10s42.333 -7 63 -10s41.667 -4.5 63 -4.5c24 0 42 4.83301 54 14.5s18 22.834 18 39.501c0 31.333 -19.667 55.166 -59 71.499s-99 24.5 -179 24.5c-143.333 0 -252.166 -41.5 -326.499 -124.5s-111.5 -203.833 -111.5 -362.5
c0 -45.333 4.33301 -95 13 -149s21.334 -110.333 38.001 -169l-115 -27c-18.667 68 -32.834 131.5 -42.501 190.5s-14.5 110.5 -14.5 154.5c0 94.667 12.5 179.667 37.5 255s61.167 139.166 108.5 191.499s105.166 92.333 173.499 120s146.166 41.5 233.499 41.5
c122 0 213.167 -18.5 273.5 -55.5s90.5 -90.833 90.5 -161.5c0 -25.333 -5.16699 -48.666 -15.5 -69.999s-24 -39.833 -41 -55.5s-36.5 -28 -58.5 -37s-44.333 -13.5 -67 -13.5c-24.667 0 -47.667 1.66699 -69 5s-42.166 7.16602 -62.499 11.499
s-40.666 8.16602 -60.999 11.499s-41.5 5 -63.5 5c-16.667 0 -32.334 -2 -47.001 -6s-27.667 -9.83301 -39 -17.5s-20.333 -17.167 -27 -28.5s-10 -24 -10 -38c0 -9.33301 2.66699 -18.833 8 -28.5s12.5 -18.334 21.5 -26.001s19.333 -14 31 -19s23.834 -7.5 36.501 -7.5
c22 0 42 1.5 60 4.5s35.167 6.33301 51.5 10s32.5 7 48.5 10s33.333 4.5 52 4.5c45.333 0 85.5 -5.33301 120.5 -16s64.5 -25.5 88.5 -44.5s42.333 -41.667 55 -68s19 -55.5 19 -87.5z" />
    <glyph glyph-name="ml_ma" unicode="&#xd2e;" horiz-adv-x="1153" 
d="M1068 533l0.000976562 -532.997h-983v533c0 64 14.667 121.167 44 171.5s67.5 92.666 114.5 126.999s99.667 60.666 158 78.999s116.5 27.5 174.5 27.5c38.667 0 77.667 -4 117 -12s77.166 -20 113.499 -36s70.5 -35.5 102.5 -58.5s59.667 -49.5 83 -79.5
s41.833 -63.333 55.5 -100s20.5 -76.334 20.5 -119.001zM947.001 491.003c0 55.333 -9.66602 102.337 -28.999 141.004s-44 70.667 -74 96s-63.333 44.666 -100 57.999s-72.334 22.333 -107.001 27c17.333 -25.333 31.333 -53.833 42 -85.5s16 -64.5 16 -98.5
c0.666992 -32 -4 -61.333 -14 -88s-23.5 -51.834 -40.5 -75.501s-37.167 -46.334 -60.5 -68.001l-74 -66.5l-60 -50.5c-20.667 -17 -39.5 -33.833 -56.5 -50.5s-31 -32.834 -42 -48.501s-16.5 -30.5 -16.5 -44.5c0 -10.667 13.667 -16 41 -16h575v370zM578.002 615.007
c0 16.667 -2.00098 34 -6.00098 52s-10 35.667 -18 53s-18 33.666 -30 48.999s-25.667 28 -41 38c-33.333 -6.66699 -66.5 -17.167 -99.5 -31.5s-62.667 -34 -89 -59s-47.666 -56 -63.999 -93s-24.5 -81.167 -24.5 -132.5v-305c14.667 24.667 30.5 46.667 47.5 66
s34.333 37.333 52 54s35.834 32.667 54.501 48l56 47c22 18 42.167 35.333 60.5 52s34.666 33.334 48.999 50.001s26 34 35 52s14.833 38 17.5 60z" />
    <glyph glyph-name="ml_ya" unicode="&#xd2f;" horiz-adv-x="1623" 
d="M1538 542c0 -77.333 -12.1699 -149.836 -36.5029 -217.503s-57.833 -126.667 -100.5 -177s-92.667 -90 -150 -119s-119 -43.5 -185 -43.5c-74.667 0 -149 21.333 -223 64c-77.333 -42.667 -157.333 -64 -240 -64c-76.667 0 -146.834 14 -210.501 42
s-118.167 66.833 -163.5 116.5s-80.666 108.667 -105.999 177s-38 143.166 -38 224.499c0 49.333 8.16699 97.5 24.5 144.5s39 89 68 126s63.333 66.667 103 89s82.5 33.5 128.5 33.5c50 0 95.833 -10.5 137.5 -31.5s74.167 -53.5 97.5 -97.5
c10.667 18.667 23.5 35.834 38.5 51.501s31.333 29.167 49 40.5s36 20.333 55 27s38.167 10 57.5 10c38.667 0 74.667 -10 108 -30s62.333 -47 87 -81s43.834 -73.5 57.501 -118.5s20.5 -92.5 20.5 -142.5c0 -84 -14.167 -163 -42.5 -237s-71.166 -141.333 -128.499 -202
c17.333 -7.33301 36 -12.666 56 -15.999s42.667 -5 68 -5c48 0 93.167 12.5 135.5 37.5s79.166 58 110.499 99s56 88.167 74 141.5s27 108.666 27 165.999c0 32 -5.66699 63.833 -17 95.5s-27 60.334 -47 86.001s-43.667 46.667 -71 63s-57 25.5 -89 27.5l39 116
c46.667 -6 88.834 -20.333 126.501 -43s69.834 -51.667 96.501 -87s47.167 -75.666 61.5 -120.999s21.5 -93.666 21.5 -144.999zM743.997 132.997c-23.333 29.333 -43.4971 58.502 -60.4971 87.502s-31.667 60.167 -44 93.5s-22.666 70.166 -30.999 110.499
s-15.166 86.833 -20.499 139.5c-8.66699 82 -27.5 144.667 -56.5 188s-66.5 65 -112.5 65c-30 0 -58 -7.33301 -84 -22s-48.5 -34.5 -67.5 -59.5s-34 -53.833 -45 -86.5s-16.5 -67 -16.5 -103c0 -56 8.66699 -110.5 26 -163.5s42.666 -100 75.999 -141
s74.666 -73.833 123.999 -98.5s105.666 -37 168.999 -37c23.333 0 46.666 2.16699 69.999 6.5s47.666 11.166 72.999 20.499zM996 577.999c0 32 -3.83203 62.3301 -11.499 90.9971s-18.334 54 -32.001 76s-29.834 39.5 -48.501 52.5s-38.667 19.5 -60 19.5
c-19.333 0 -37.166 -7.66699 -53.499 -23s-30.5 -35.166 -42.5 -59.499s-21.333 -51.833 -28 -82.5s-10 -61 -10 -91c0 -68.667 11.333 -134 34 -196s57 -117 103 -165c26 22.667 48.333 48.334 67 77.001s34 59.334 46 92.001s21 66.667 27 102s9 71 9 107z" />
    <glyph glyph-name="ml_ra" unicode="&#xd30;" horiz-adv-x="1209" 
d="M1124 368c0 -58.667 -8.16992 -111.665 -24.5029 -158.998s-38.833 -87.5 -67.5 -120.5s-62.167 -58.5 -100.5 -76.5s-79.5 -27 -123.5 -27c-51.333 0 -97.166 10.167 -137.499 30.5s-74.5 48.166 -102.5 83.499s-49.333 76.666 -64 123.999s-22 97.666 -22 150.999
c0 48 6.5 94 19.5 138s32.333 83.667 58 119s57.334 65.166 95.001 89.499s81.167 40.833 130.5 49.5c-23.333 13.333 -49.333 24.5 -78 33.5s-59 13.5 -91 13.5c-57.333 0 -110.833 -11.167 -160.5 -33.5s-93 -52.833 -130 -91.5s-66.167 -83.834 -87.5 -135.501
s-32 -106.834 -32 -165.501c0 -118.667 34.667 -216.667 104 -294l-65 -110c-54 58.667 -94.167 122.834 -120.5 192.501s-39.5 144.834 -39.5 225.501c0 70.667 13.333 138.167 40 202.5s63.334 121 110.001 170s102 88 166 117s133.333 43.5 208 43.5
c51.333 0 99.833 -7.5 145.5 -22.5s87.5 -35.833 125.5 -62.5s72.167 -58 102.5 -94s56 -75.167 77 -117.5s37 -86.666 48 -132.999s16.5 -93.166 16.5 -140.499zM1003 374.002c0 60.667 -11.001 115.833 -33.001 165.5s-52.333 92.5 -91 128.5
c-38.667 -0.666992 -74.667 -7.83398 -108 -21.501s-62.5 -33.167 -87.5 -58.5s-44.667 -56 -59 -92s-21.5 -76.667 -21.5 -122c0 -35.333 5 -69.166 15 -101.499s23.833 -60.833 41.5 -85.5s38.5 -44.334 62.5 -59.001s50.333 -22 79 -22s55.334 6.5 80.001 19.5
s46 31.333 64 55s32.167 51.834 42.5 84.501s15.5 69 15.5 109z" />
    <glyph glyph-name="ml_rra" unicode="&#xd31;" horiz-adv-x="1194" 
d="M1109 443c0 -47.333 -7.16992 -93.667 -21.5029 -139s-32.833 -88 -55.5 -128s-48 -76.333 -76 -109s-56 -60.334 -84 -83.001l-77 95c32 32.667 60 63.334 84 92.001s44 57.167 60 85.5s28 57.666 36 87.999s12 63.166 12 98.499c0 52.667 -10.333 101.834 -31 147.501
s-48.834 85.167 -84.501 118.5s-77.167 59.666 -124.5 78.999s-97.666 29 -150.999 29c-53.333 -0.666992 -103.666 -10.5 -150.999 -29.5s-88.666 -45.333 -123.999 -79s-63.166 -73.167 -83.499 -118.5s-30.5 -94.333 -30.5 -147c0 -35.333 4 -68.166 12 -98.499
s20 -59.666 36 -87.999s36 -56.833 60 -85.5s52 -59.334 84 -92.001l-77 -95c-28 22.667 -56 50.334 -84 83.001s-53.333 69 -76 109s-41.167 82.667 -55.5 128s-21.5 91.666 -21.5 138.999c0 71.333 13 137.166 39 197.499s61.833 112.5 107.5 156.5s99.667 78.333 162 103
s129.833 37.334 202.5 38.001c72 0 139.333 -12.5 202 -37.5s117 -59.5 163 -103.5s82.167 -96.167 108.5 -156.5s39.5 -126.166 39.5 -197.499z" />
    <glyph glyph-name="ml_la" unicode="&#xd32;" horiz-adv-x="1367" 
d="M1282 923v-923h-1197v570c0 49.333 10.333 96.166 31 140.499s48.167 83.333 82.5 117s73.833 60.5 118.5 80.5s91 30 139 30c49.333 0 96 -10 140 -30s82.667 -46.833 116 -80.5s59.833 -72.667 79.5 -117s29.5 -91.166 29.5 -140.499v-282h-616v-167h957v802h120z
M701 563c0 33.333 -6.50098 65.334 -19.501 96.001s-30.5 57.667 -52.5 81s-47.833 42 -77.5 56s-61.5 21 -95.5 21c-33.333 0 -65.166 -6.83301 -95.499 -20.5s-57 -32 -80 -55s-41.333 -49.833 -55 -80.5s-20.5 -63.334 -20.5 -98.001v-158h496v158z" />
    <glyph glyph-name="ml_lla" unicode="&#xd33;" horiz-adv-x="1147" 
d="M1062 632c0 -40 -11.333 -77.8369 -34 -113.504s-52 -63.834 -88 -84.501c81.333 -70.667 122 -155.667 122 -255c0 -61.333 -9.33301 -114.833 -28 -160.5s-48.667 -83.5 -90 -113.5s-94.833 -52.5 -160.5 -67.5s-145.167 -22.5 -238.5 -22.5h-255
c-25.333 0 -45.333 -5.66699 -60 -17s-22 -29.333 -22 -54c0 -8.66699 1.83301 -17.167 5.5 -25.5s8.5 -16 14.5 -23s13.167 -12.667 21.5 -17s17.166 -6.5 26.499 -6.5h786v-120h-786c-24 0 -47.333 5.33301 -70 16s-42.834 25 -60.501 43s-31.834 38.667 -42.501 62
s-16 47.333 -16 72c0 28 5.16699 53.5 15.5 76.5s24.5 43 42.5 60s38.833 30.167 62.5 39.5s48.834 14 75.501 14h274c70 0 129.5 5.33301 178.5 16s88.833 26.334 119.5 47.001s52.834 45.5 66.501 74.5s20.5 62.167 20.5 99.5c0 32.667 -6.33301 62.334 -19 89.001
s-30.667 49.5 -54 68.5s-51.166 33.5 -83.499 43.5s-67.833 15 -106.5 15v121c50.667 0 93 2.16699 127 6.5s61 11.166 81 20.499s34.167 21.833 42.5 37.5s12.5 35.167 12.5 58.5c0 26.667 -7.83301 51.334 -23.5 74.001s-36.667 42.334 -63 59.001s-57 29.5 -92 38.5
s-71.833 13.5 -110.5 13.5c-64 0 -122.667 -11.167 -176 -33.5s-99.833 -53 -139.5 -92s-71.667 -85.167 -96 -138.5s-38.833 -111 -43.5 -173c44 57.333 105.333 86 184 86c33.333 0 64.5 -6.33301 93.5 -19s54.167 -29.834 75.5 -51.501s38.166 -47.167 50.499 -76.5
s18.5 -60.666 18.5 -93.999c0 -34.667 -6.5 -66.667 -19.5 -96s-30.833 -54.666 -53.5 -75.999s-49 -38 -79 -50s-62 -18 -96 -18c-41.333 0 -79.5 10.667 -114.5 32s-65.167 49.666 -90.5 84.999s-45.333 76.333 -60 123s-22 95.667 -22 147c0 74 13.5 145.167 40.5 213.5
s65 128.5 114 180.5s108.167 93.667 177.5 125s146 47 230 47c54 0 105.833 -7.66699 155.5 -23s93.834 -36.666 132.501 -63.999s69.5 -59.666 92.5 -96.999s34.5 -78 34.5 -122zM380 344.996c-36.667 0 -67.1689 -12.167 -91.502 -36.5s-39.5 -56.833 -45.5 -97.5
c32.667 -70 78.334 -105 137.001 -105c16 0 31.333 3.16699 46 9.5s27.334 15 38.001 26s19.167 23.667 25.5 38s9.5 29.5 9.5 45.5s-3.16699 31.167 -9.5 45.5s-14.833 27 -25.5 38s-23.167 19.833 -37.5 26.5s-29.833 10 -46.5 10z" />
    <glyph glyph-name="ml_llla" unicode="&#xd34;" horiz-adv-x="1204" 
d="M1119 669c0 -39.333 -9.50293 -78.1709 -28.5029 -116.504s-44.167 -73.5 -75.5 -105.5s-67.333 -59.667 -108 -83s-83 -39.666 -127 -48.999c-2 -107.333 -30.667 -189.166 -86 -245.499s-139.333 -84.5 -252 -84.5c-27.333 0 -55.5 3.83301 -84.5 11.5
s-57.333 18.5 -85 32.5s-54 30.833 -79 50.5s-46.833 41.5 -65.5 65.5l96 87c54.667 -84 135.667 -126 243 -126c60.667 0 106.834 16.667 138.501 50s48.834 78.333 51.501 135c-14.667 0.666992 -26.167 0.5 -34.5 -0.5s-17.5 -1.5 -27.5 -1.5
c-62 0 -120.667 8.33301 -176 25s-108.333 41 -159 73c-116.667 76.667 -175 174 -175 292c0 53.333 11.333 102 34 146s56.667 84.667 102 122l77 -90c-61.333 -60 -92 -121.667 -92 -185c0 -38.667 12.5 -74.667 37.5 -108s59.167 -62.666 102.5 -87.999
c39.333 -21.333 80.833 -37.5 124.5 -48.5s87.5 -16.5 131.5 -16.5h26c8.66699 0 17.334 0.666992 26.001 2c-2 12 -4.66699 29.167 -8 51.5s-6.5 45.833 -9.5 70.5s-5.66699 48.834 -8 72.501s-3.5 42.834 -3.5 57.501c0 35.333 6.16699 69.333 18.5 102
s29.333 61.667 51 87s47.5 45.666 77.5 60.999s62.667 23 98 23c38 0 72.5 -6.5 103.5 -19.5s57.167 -31.333 78.5 -55s37.833 -52 49.5 -85s17.5 -69.5 17.5 -109.5zM994.997 671.995c0 18.667 -3.16797 36.667 -9.50098 54s-15 32.833 -26 46.5s-24.167 24.5 -39.5 32.5
s-32 12 -50 12c-17.333 0 -33.5 -4.16699 -48.5 -12.5s-28.167 -19.5 -39.5 -33.5s-20.166 -30.167 -26.499 -48.5s-9.5 -37.5 -9.5 -57.5c0 -14.667 1 -32.667 3 -54s4.33301 -43 7 -65l8 -63c2.66699 -20 5 -35.667 7 -47c29.333 7.33301 57.5 19 84.5 35
s50.833 34.667 71.5 56s37.167 44.5 49.5 69.5s18.5 50.167 18.5 75.5z" />
    <glyph glyph-name="ml_va" unicode="&#xd35;" horiz-adv-x="1769" 
d="M1109 443c0 -59.333 -10.6699 -116.501 -32.0029 -171.501s-48 -105.167 -80 -150.5h567v802h120v-923h-825l-64 79c32 32.667 60 63.334 84 92.001s44 57.167 60 85.5s28 57.666 36 87.999s12 63.166 12 98.499c0 52.667 -10.333 101.834 -31 147.501
s-48.834 85.167 -84.501 118.5s-77.167 59.666 -124.5 78.999s-97.666 29 -150.999 29c-53.333 -0.666992 -103.666 -10.5 -150.999 -29.5s-88.666 -45.333 -123.999 -79s-63.166 -73.167 -83.499 -118.5s-30.5 -94.333 -30.5 -147c0 -35.333 4 -68.166 12 -98.499
s20 -59.666 36 -87.999s36 -56.833 60 -85.5s52 -59.334 84 -92.001l-77 -95c-28 22.667 -56 50.334 -84 83.001s-53.333 69 -76 109s-41.167 82.667 -55.5 128s-21.5 91.666 -21.5 138.999c0 71.333 13 137.166 39 197.499s61.833 112.5 107.5 156.5s99.667 78.333 162 103
s129.833 37.334 202.5 38.001c72 0 139.333 -12.5 202 -37.5s117 -59.5 163 -103.5s82.167 -96.167 108.5 -156.5s39.5 -126.166 39.5 -197.499z" />
    <glyph glyph-name="ml_sha" unicode="&#xd36;" horiz-adv-x="1411" 
d="M1326 453c0 -63.333 -7 -123.33 -21 -179.997s-34.333 -106.334 -61 -149.001s-58.834 -76.5 -96.501 -101.5s-79.834 -37.5 -126.501 -37.5c-34 0 -65.667 6.33301 -95 19s-54.666 30 -75.999 52s-38 47.5 -50 76.5s-18 59.833 -18 92.5
c0 33.333 6.5 64.666 19.5 93.999s30.5 54.833 52.5 76.5s47.667 38.834 77 51.501s60.666 19 93.999 19c16 0 32.333 -2.33301 49 -7s33 -11 49 -19s31.167 -17.5 45.5 -28.5s27.166 -22.833 38.499 -35.5c1.33301 13.333 2.33301 27 3 41s1 27.667 1 41
c0 52 -5.83301 100 -17.5 144s-28.834 81.833 -51.501 113.5s-50.5 56.5 -83.5 74.5s-70.833 27 -113.5 27c-48 0 -86.333 -11.5 -115 -34.5s-51 -51.833 -67 -86.5s-27.167 -72.334 -33.5 -113.001s-11.166 -79 -14.499 -115c-3.33301 -37.333 -7.83301 -75.333 -13.5 -114
s-13.667 -75.834 -24 -111.501s-23.166 -69.167 -38.499 -100.5s-34.333 -58.666 -57 -81.999s-49.5 -41.666 -80.5 -54.999s-66.833 -20 -107.5 -20c-50.667 0 -95.167 10.667 -133.5 32s-70.5 51.166 -96.5 89.499s-45.667 83.833 -59 136.5s-20 110 -20 172
c0 31.333 2 64.333 6 99s10.5 69.5 19.5 104.5s20.833 69 35.5 102s33 63.667 55 92s47.667 53.166 77 74.499s63 37.666 101 48.999l27 -114c-30 -8.66699 -57.333 -26 -82 -52s-45.667 -57.667 -63 -95s-30.833 -78.5 -40.5 -123.5s-14.5 -90.5 -14.5 -136.5
c0 -45.333 3.83301 -86.833 11.5 -124.5s19.334 -70.167 35.001 -97.5s35 -48.666 58 -63.999s49.5 -23 79.5 -23c28 0 52.333 5.83301 73 17.5s38.334 27.5 53.001 47.5s26.834 43.167 36.501 69.5s17.5 54.333 23.5 84s10.833 59.834 14.5 90.501s6.83398 60 9.50098 88
c3.33301 33.333 8.16602 67.333 14.499 102s15 68.167 26 100.5s24.833 62.666 41.5 90.999s36.667 53 60 74s50.666 37.5 81.999 49.5s67.333 18 108 18c59.333 0 113.166 -12.333 161.499 -37s89.833 -58.667 124.5 -102s61.334 -94.5 80.001 -153.5
s28 -123.167 28 -192.5zM1175 246.003c-8 13.333 -17.9951 25.999 -29.9951 37.999s-24.833 22.5 -38.5 31.5s-27.834 16.167 -42.501 21.5s-29 8 -43 8c-16 0 -31.167 -3.16699 -45.5 -9.5s-27 -15 -38 -26s-19.667 -23.667 -26 -38s-9.5 -29.833 -9.5 -46.5
c0 -17.333 3.33301 -33.166 10 -47.499s15.667 -26.833 27 -37.5s24 -19 38 -25s28.667 -9 44 -9c17.333 0 34.166 3.5 50.499 10.5s31.166 16.833 44.499 29.5s25.166 27.5 35.499 44.5s18.166 35.5 23.499 55.5z" />
    <glyph glyph-name="ml_ssa" unicode="&#xd37;" horiz-adv-x="1663" 
d="M1578 923l-0.00195312 -923.003h-1015v112c24.667 35.333 37 75.666 37 120.999c0 22.667 -5.5 43.667 -16.5 63s-25.5 36.166 -43.5 50.499s-38.5 25.5 -61.5 33.5s-46.833 12 -71.5 12c-27.333 0 -53.166 -4 -77.499 -12s-45.833 -19.167 -64.5 -33.5
s-33.334 -31.166 -44.001 -50.499s-16 -40.333 -16 -63c0 -54.667 16.333 -105.334 49 -152.001l-88 -88c-54 66 -81 144 -81 234c0 40.667 8.5 78.667 25.5 114s40 65.666 69 90.999s63.167 45.333 102.5 60s81 22 125 22c40.667 0 80 -7.16699 118 -21.5
s71.333 -34.166 100 -59.499s51.667 -55 69 -89s26 -71 26 -111c0 -21.333 -2 -40.833 -6 -58.5s-10.667 -35.5 -20 -53.5h367v297c-7.33301 -0.666992 -14.666 -1 -21.999 -1h-22c-58 0 -110.333 6.16699 -157 18.5s-86.167 30.5 -118.5 54.5s-57.166 53.833 -74.499 89.5
s-26 76.834 -26 123.501c0 34.667 7 66.334 21 95.001s32.667 53.334 56 74.001s50.333 36.834 81 48.501s62.667 17.5 96 17.5c93.333 0 164 -31.667 212 -95s73 -157.666 75 -282.999c38 10.667 73.667 25 107 43s62.5 38.5 87.5 61.5s44.833 47.5 59.5 73.5
s22 52.333 22 79v106h120zM1458 559.997c-72 -59.333 -164 -101 -276 -125v-314h276v439zM1061 535.997l-0.000976562 27.0029c0 84 -13.667 147.333 -41 190s-69 64 -125 64c-22 0 -41.5 -3.33301 -58.5 -10s-31 -15.334 -42 -26.001s-19.333 -22.834 -25 -36.501
s-8.5 -27.5 -8.5 -41.5c0 -52.667 22.833 -93.834 68.5 -123.501s109.834 -44.5 192.501 -44.5z" />
    <glyph glyph-name="ml_sa" unicode="&#xd38;" horiz-adv-x="1764" 
d="M1679 472c0 -65.333 -7.99805 -127.503 -23.998 -186.503s-39 -110.667 -69 -155s-66.5 -79.666 -109.5 -105.999s-91.167 -39.5 -144.5 -39.5c-52 0 -95 13.333 -129 40s-61.167 62.334 -81.5 107.001s-35.666 96.5 -45.999 155.5s-17.833 120.833 -22.5 185.5
c-3.33301 45.333 -7.83301 88.666 -13.5 129.999s-14.334 77.833 -26.001 109.5s-27.834 57 -48.501 76s-47.667 28.5 -81 28.5c-26 0 -49.5 -4.83301 -70.5 -14.5s-39 -25 -54 -46s-26.5 -48 -34.5 -81s-12 -73.167 -12 -120.5v-555h-121v555
c0 48 -2.83301 88.667 -8.5 122s-14.334 60.333 -26.001 81s-26.834 35.667 -45.501 45s-41 14 -67 14c-32 0 -62.333 -9.33301 -91 -28s-53.834 -43.5 -75.501 -74.5s-39 -66.333 -52 -106s-19.5 -80.167 -19.5 -121.5c0 -85.333 12.167 -160.5 36.5 -225.5
s59.833 -121.167 106.5 -168.5l-66 -102c-33.333 34 -62.5 68.833 -87.5 104.5s-45.833 73.5 -62.5 113.5s-29 83.333 -37 130s-12 98.334 -12 155.001c0 60.667 9.16699 117.834 27.5 171.501s43.666 100.667 75.999 141s70.5 72.333 114.5 96s91.333 35.5 142 35.5
c40 0 79.833 -9.16699 119.5 -27.5s73.5 -44.5 101.5 -78.5c28.667 34 60.834 60.167 96.501 78.5s74.834 27.5 117.501 27.5c58.667 0 106 -12.5 142 -37.5s64.5 -58.667 85.5 -101s36 -91 45 -146s16.167 -112.5 21.5 -172.5c6 -70.667 13.333 -130 22 -178
s19.334 -86.5 32.001 -115.5s27.834 -49.833 45.501 -62.5s38.5 -19 62.5 -19c34.667 0 66 10 94 30s51.667 46.333 71 79s34.166 69.834 44.499 111.501s15.5 84.167 15.5 127.5c0 167.333 -43.667 295.666 -131 384.999l55 104c66 -66.667 114.833 -139 146.5 -217
s47.5 -162.667 47.5 -254z" />
    <glyph glyph-name="ml_ha" unicode="&#xd39;" horiz-adv-x="2143" 
d="M2058 467c0 -141.333 -53.6709 -299.002 -161.004 -473.002l-92 64c88 122.667 132 259 132 409c0 48 -11 93.333 -33 136s-51.333 79.834 -88 111.501s-79.167 56.667 -127.5 75s-98.5 27.5 -150.5 27.5s-101.667 -9.33301 -149 -28s-89.166 -43.834 -125.499 -75.501
s-65.333 -68.667 -87 -111s-32.5 -87.5 -32.5 -135.5c0 -118.667 31.333 -237.667 94 -357v-110h-674v112c24 36 36 76.333 36 121c0 22.667 -5.5 43.667 -16.5 63s-25.5 36.166 -43.5 50.499s-38.667 25.5 -62 33.5s-47 12 -71 12
c-27.333 0 -53.166 -4.16699 -77.499 -12.5s-45.666 -19.666 -63.999 -33.999s-32.833 -31.166 -43.5 -50.499s-16 -40 -16 -62c0 -52.667 15.667 -103.334 47 -152.001l-86 -88c-54.667 66.667 -82 144.667 -82 234c0 42 8.5 80.5 25.5 115.5s40 65.167 69 90.5
s63 45.166 102 59.499s80.833 21.5 125.5 21.5c40.667 0 79.834 -7.16699 117.501 -21.5s71 -34.166 100 -59.499s52.333 -55.166 70 -89.499s26.5 -71.166 26.5 -110.499c0 -20 -2 -39.333 -6 -58s-10.667 -36.667 -20 -54h415c-30 62 -52 121.667 -66 179s-21 113 -21 167
c0 66 13.667 127.5 41 184.5s64.5 106.833 111.5 149.5s101.667 76.167 164 100.5s128.5 36.5 198.5 36.5s136.5 -12.167 199.5 -36.5s118.167 -57.833 165.5 -100.5s85 -92.5 113 -149.5s42 -118.5 42 -184.5z" />
    <glyph glyph-name="ml_aakaar" unicode="&#xd3e;" horiz-adv-x="861" 
d="M776 467c0 -70.667 -11 -135.499 -33 -194.499s-52 -109.833 -90 -152.5s-82.333 -75.834 -133 -99.501s-105 -35.5 -163 -35.5c-111.333 0 -208 48 -290 144l88 71c70.667 -62.667 140.334 -94 209.001 -94c39.333 0 76.666 8.5 111.999 25.5s66.166 41.333 92.499 73
s47.333 69.667 63 114s23.5 93.833 23.5 148.5c0 44 -7.5 87 -22.5 129s-35.333 79.333 -61 112s-55.667 59 -90 79s-71.166 30 -110.499 30c-82.667 0 -154 -32 -214 -96l-92 75c78.667 94.667 176 142 292 142c62 0 118.667 -12.5 170 -37.5s95.5 -59 132.5 -102
s65.667 -93 86 -150s30.5 -117.5 30.5 -181.5z" />
    <glyph glyph-name="ml_ikaar" unicode="&#xd3f;" horiz-adv-x="598" 
d="M513 1041v-1041h-121v1050c0 32 -6.16699 62.5 -18.5 91.5s-29 54.5 -50 76.5s-45.667 39.5 -74 52.5s-58.166 19.5 -89.499 19.5c-35.333 0 -67.833 -6.5 -97.5 -19.5s-55.334 -30.667 -77.001 -53s-38.667 -48.833 -51 -79.5s-18.5 -63.667 -18.5 -99v-39h-120v31
c0 52.667 8.5 102 25.5 148s41.167 86 72.5 120s69.166 60.667 113.499 80s93.833 29 148.5 29c51.333 0 98.833 -9.66699 142.5 -29s81.334 -45.5 113.001 -78.5s56.5 -71.833 74.5 -116.5s27 -92.334 27 -143.001z" />
    <glyph glyph-name="ml_iikaar" unicode="&#xd40;" horiz-adv-x="464" 
d="M378 946l-0.00292969 -946h-121v947c0 46 -6.5 89.667 -19.5 131s-31.167 77.666 -54.5 108.999s-51.166 56.333 -83.499 75s-68.166 28 -107.499 28h-31c32 -31.333 48 -72.333 48 -123c0 -24.667 -4.16699 -47.167 -12.5 -67.5s-19.833 -38 -34.5 -53
s-32.167 -26.667 -52.5 -35s-42.833 -12.5 -67.5 -12.5c-25.333 0 -48.333 4 -69 12s-38.667 19.333 -54 34s-27.166 31.834 -35.499 51.501s-12.5 41.167 -12.5 64.5c0 35.333 8.33301 68 25 98s39.5 56 68.5 78s62.833 39.333 101.5 52s79.667 19 123 19
c57.333 0 109.833 -12.167 157.5 -36.5s88.667 -57.5 123 -99.5s61 -91 80 -147s28.5 -115.667 28.5 -179zM-89.0029 1168c0 18 -5.00195 34.833 -15.002 50.5s-26.333 30.167 -49 43.5c-10 -2 -19.833 -6.33301 -29.5 -13s-18 -14.5 -25 -23.5s-12.667 -18.667 -17 -29
s-6.5 -19.833 -6.5 -28.5s1.83301 -17.167 5.5 -25.5s8.83398 -15.833 15.501 -22.5s14.334 -12 23.001 -16s18 -6 28 -6c19.333 0 35.833 6.83301 49.5 20.5s20.5 30.167 20.5 49.5z" />
    <glyph glyph-name="ml_ukaar" unicode="&#xd41;" horiz-adv-x="567" 
d="M482 563c0 -42 -3.83301 -78.0029 -11.5 -108.003s-18.834 -58.5 -33.501 -85.5s-32.167 -55.333 -52.5 -85l-69.5 -105.5c-20 -32 -38 -62.5 -54 -91.5s-25.667 -51.5 -29 -67.5c24 -9.33301 45.833 -21.666 65.5 -36.999s36.667 -32.833 51 -52.5
s25.5 -41.167 33.5 -64.5s12 -47 12 -71c0 -31.333 -6.5 -61.666 -19.5 -90.999s-30.5 -55.166 -52.5 -77.499s-47.333 -40.333 -76 -54s-58.667 -20.5 -90 -20.5c-33.333 0 -64.666 6.16699 -93.999 18.5s-55 29.333 -77 51s-39.333 47 -52 76s-19 60.5 -19 94.5
c0 28.667 4.66699 56.167 14 82.5s22.333 50 39 71s36.5 38.667 59.5 53s47.833 24.5 74.5 30.5c-2 4.66699 -0.5 13.5 4.5 26.5s12.333 28.167 22 45.5s21 36.166 34 56.499l40.5 61.5l60.5 91l43.5 66c12 18.667 21.667 34.834 29 48.501s13 26.834 17 39.501
s6.66699 25.667 8 39s2 28.666 2 45.999c0 32.667 -4.16699 63.5 -12.5 92.5s-20.5 55.5 -36.5 79.5s-35.167 44.667 -57.5 62s-47.5 30.333 -75.5 39l37 115c85.333 -22.667 150.833 -66 196.5 -130s68.5 -145.333 68.5 -244zM274 -207.003c0 16 -3.33301 31.167 -10 45.5
s-15.5 27 -26.5 38s-23.667 19.833 -38 26.5s-29.5 10 -45.5 10s-31.333 -3.33301 -46 -10s-27.5 -15.5 -38.5 -26.5s-19.667 -23.667 -26 -38s-9.5 -29.5 -9.5 -45.5s3.16699 -31.333 9.5 -46s15 -27.5 26 -38.5s23.833 -19.667 38.5 -26s30 -9.5 46 -9.5
s31.167 3.16699 45.5 9.5s27 15 38 26s19.833 23.833 26.5 38.5s10 30 10 46z" />
    <glyph glyph-name="ml_uukaar" unicode="&#xd42;" horiz-adv-x="768" 
d="M-85 -274c0 34.667 8.00293 68.001 24.0029 100.001s37.5 61 64.5 87s58.667 48.333 95 67s75.166 32 116.499 40c5.33301 26.667 14.5 55.167 27.5 85.5s31.5 61.166 55.5 92.499c25.333 32.667 48.833 65.167 70.5 97.5s40.5 63.5 56.5 93.5s28.5 58.5 37.5 85.5
s13.5 51.833 13.5 74.5c0 32 -4.16699 62.5 -12.5 91.5s-20.333 55.333 -36 79s-34.834 44.334 -57.501 62.001s-48 31.167 -76 40.5l36 115c43.333 -11.333 81.5 -28.333 114.5 -51s60.833 -50.167 83.5 -82.5s39.667 -68.833 51 -109.5s17 -84.334 17 -131.001
c0 -50 -8 -96.833 -24 -140.5s-34.5 -83.167 -55.5 -118.5s-42 -66.666 -63 -93.999s-36.5 -49.666 -46.5 -66.999l-33.5 -62c-10.333 -20 -18.166 -38.333 -23.499 -55c44.667 -4.66699 87.167 -15.5 127.5 -32.5s75.666 -38.833 105.999 -65.5s54.5 -57.334 72.5 -92.001
s27 -71.334 27 -110.001c0 -48.667 -10.5 -93.5 -31.5 -134.5s-49.333 -76.5 -85 -106.5s-76.834 -53.333 -123.501 -70s-95.667 -25 -147 -25c-52 0 -101 8.5 -147 25.5s-86.333 40.5 -121 70.5s-62.167 65.5 -82.5 106.5s-30.5 85.5 -30.5 133.5zM524.003 -188.999
c0 -31.333 -5.83203 -60.333 -17.499 -87s-27.5 -49.667 -47.5 -69s-43.167 -34.666 -69.5 -45.999s-54.5 -17 -84.5 -17c-30.667 0 -59.167 5.5 -85.5 16.5s-49.333 26.167 -69 45.5s-35.167 42.333 -46.5 69s-17 56 -17 88c0 8 0.166992 16.667 0.5 26
s1.16602 17.666 2.49902 24.999c-50.667 -38 -76 -83.333 -76 -136c0 -32 8.33301 -62.5 25 -91.5s38.5 -54.167 65.5 -75.5s57.5 -38.333 91.5 -51s68.667 -19 104 -19c34 0 67.833 6.16699 101.5 18.5s64 29 91 50s49 45.167 66 72.5s25.5 56.333 25.5 87
c0 44 -20.667 84.667 -62 122c0.666992 -5.33301 1.16699 -10 1.5 -14s0.5 -8.66699 0.5 -14zM186.004 -188.999c0 -16 3.16699 -31.334 9.5 -46.001s15 -27.5 26 -38.5s23.667 -19.667 38 -26s29.5 -9.5 45.5 -9.5s31.167 3.16699 45.5 9.5s27 15 38 26
s19.833 23.833 26.5 38.5s10 30 10 46c0 18 -3.33301 34.167 -10 48.5s-15.834 26.5 -27.501 36.5s-25.167 17.833 -40.5 23.5s-31.666 8.5 -48.999 8.5c-15.333 0 -29.833 -3.16699 -43.5 -9.5s-25.5 -14.833 -35.5 -25.5s-18 -23.167 -24 -37.5s-9 -29.166 -9 -44.499z
" />
    </font>
</defs>
</svg>
